<?xml version="1.0" standalone="no"?>
<!DOCTYPE svg PUBLIC "-//W3C//DTD SVG 1.1//EN" "http://www.w3.org/Graphics/SVG/1.1/DTD/svg11.dtd" >
<svg xmlns="http://www.w3.org/2000/svg">
<metadata></metadata>
<defs>
<font id="canaveralregular" horiz-adv-x="1171" >
<font-face units-per-em="2048" ascent="1583" descent="-465" />
<missing-glyph horiz-adv-x="1241" />
<glyph horiz-adv-x="2048" />
<glyph horiz-adv-x="2048" />
<glyph unicode="&#xd;" horiz-adv-x="1241" />
<glyph unicode=" "  horiz-adv-x="1241" />
<glyph unicode="&#x09;" horiz-adv-x="1241" />
<glyph unicode="&#xa0;" horiz-adv-x="1241" />
<glyph unicode="#" horiz-adv-x="1929" d="M201 461q0 43 30.5 73.5t73.5 30.5h252v375h-252q-43 0 -73.5 30.5t-30.5 73.5t30.5 74t73.5 31h252v252q0 43 30.5 73.5t74.5 30.5q43 0 73.5 -30.5t30.5 -73.5v-252h375v252q0 43 30.5 73.5t73.5 30.5t74 -30.5t31 -73.5v-252h252q43 0 73.5 -31t30.5 -74t-30.5 -73.5 t-73.5 -30.5h-252v-375h252q43 0 73.5 -30.5t30.5 -73.5t-30.5 -74t-73.5 -31h-252v-252q0 -45 -31 -74.5t-74 -29.5t-73.5 29.5t-30.5 74.5v252h-375v-252q0 -45 -30.5 -74.5t-73.5 -29.5t-74 29.5t-31 74.5v252h-252q-43 0 -73.5 31t-30.5 74zM766 565h375v375h-375v-375z " />
<glyph unicode="," horiz-adv-x="528" d="M196.5 -79.5q-6.5 40.5 18.5 75.5l121 170q23 35 64.5 43t76.5 -16q35 -25 41.5 -67t-16.5 -77l-121 -170q-25 -35 -67 -42t-76 18q-35 25 -41.5 65.5z" />
<glyph unicode="." horiz-adv-x="393" d="M131 100q0 43 29.5 73t72.5 30h54q43 0 72.5 -30t29.5 -73q0 -41 -29.5 -70.5t-72.5 -29.5h-54q-43 0 -72.5 29.5t-29.5 70.5z" />
<glyph unicode="0" horiz-adv-x="1138" d="M0 100v1297q0 43 30.5 73.5t73.5 30.5h932q43 0 74 -30.5t31 -73.5v-1297q0 -43 -31 -73.5t-74 -30.5h-932q-43 0 -73.5 30.5t-30.5 73.5zM209 205h723v1087h-723v-1087z" />
<glyph unicode="1" horiz-adv-x="753" d="M0 104q0 45 29.5 75t72.5 30h168v1083h-168q-43 0 -72.5 31t-29.5 74t29.5 73.5t72.5 30.5h273q43 0 73.5 -30.5t30.5 -73.5v-1188h166q43 0 74 -29.5t31 -75.5q0 -43 -31 -72.5t-74 -29.5h-543q-43 0 -72.5 29.5t-29.5 72.5z" />
<glyph unicode="2" d="M2 106v426v3v6q0 10 2 14q0 2 1 4t1 4q2 4 2 6t2 4q0 2 4 11q2 2 2 4t2 4t3.5 4t3.5 4l8 8l6 6q2 2 4 3t4 4q2 2 10 6l9 4q4 2 6 2t6 2q2 0 3 1t3 1h2l879 190v469h-754v-186q0 -43 -30.5 -73.5t-74.5 -30.5q-43 0 -73.5 30.5t-30.5 73.5v293q0 43 30.5 73.5t73.5 30.5 h963q43 0 74 -30.5t31 -73.5v-658v-2q0 -2 -1.5 -3t-1.5 -3v-14q-2 -2 -2 -4t-2 -4q0 -4 -1 -6t-1 -4q-2 -4 -3 -5.5t-3 -5.5q0 -4 -4 -8q-2 -2 -3 -4t-3 -4q-4 -4 -6 -8q-4 -4 -8 -6l-7 -7q-8 -4 -10 -6q-4 0 -8 -4q-4 -2 -7 -2t-7 -2q-2 0 -3 -1t-3 -1l-879 -190v-240h858 q43 0 74 -30.5t31 -74.5q0 -45 -31 -74.5t-74 -29.5h-963q-43 0 -73.5 29.5t-30.5 74.5z" />
<glyph unicode="3" d="M2 106q0 43 30.5 74t73.5 31h859v428h-469q-43 0 -74 30.5t-31 73.5t31 74t74 31h469v448h-859q-43 0 -73.5 31t-30.5 76q0 43 30.5 73.5t73.5 30.5h963q43 0 74 -30.5t31 -73.5v-660v-637q0 -45 -31 -74.5t-74 -29.5h-963q-43 0 -73.5 29.5t-30.5 74.5z" />
<glyph unicode="4" horiz-adv-x="1179" d="M0 754v649q0 43 30.5 73.5t73.5 30.5t74 -30.5t31 -73.5v-545h762v545q0 43 30.5 73.5t73.5 30.5t74 -30.5t31 -73.5v-1297q0 -45 -31 -74.5t-74 -29.5t-73.5 29.5t-30.5 74.5v543h-867q-43 0 -73.5 31t-30.5 74z" />
<glyph unicode="5" d="M2 106q0 43 30.5 74t73.5 31h859v459h-859q-43 0 -73.5 30.5t-30.5 73.5v629q0 43 30.5 73.5t73.5 30.5h963q43 0 74 -30.5t31 -73.5q0 -45 -31 -76t-74 -31h-858v-417h858q43 0 74 -31t31 -74v-668q0 -45 -31 -74.5t-74 -29.5h-963q-43 0 -73.5 29.5t-30.5 74.5z" />
<glyph unicode="6" d="M0 106v668v629q0 43 30.5 73.5t73.5 30.5h963q43 0 73.5 -30.5t30.5 -73.5q0 -45 -30.5 -76t-73.5 -31h-858v-417h858q43 0 73.5 -31t30.5 -74v-668q0 -45 -30.5 -74.5t-73.5 -29.5h-963q-43 0 -73.5 29.5t-30.5 74.5zM209 211h754v459h-754v-459z" />
<glyph unicode="7" horiz-adv-x="1114" d="M2 1399q0 43 29.5 73.5t72.5 30.5h904q2 0 3 -1t3 -1h10q4 -2 10 -2q2 -2 4 -2t4 -2q4 -2 6.5 -2t4.5 -2t3 -2t3 -2h2q4 -2 10 -8q2 -2 3 -2t3 -2q2 -4 6 -9q6 -2 9 -8q0 -4 4 -8t4 -8q2 -4 2 -5t2 -5q0 -2 1 -4.5t1 -4.5q2 -4 2 -10q0 -4 1 -5t1 -5v-4q0 -4 -2 -6v-11 q0 -4 -1 -5t-1 -5q-2 -2 -2 -4t-2 -6q0 -2 -4 -10q-2 0 -2 -4l-289 -484h131q43 0 72.5 -29.5t29.5 -72.5t-29.5 -73t-72.5 -30h-254l-362 -608q-14 -25 -38 -37t-51 -12t-53 14q-35 23 -46 64t11 78l299 501h-122q-43 0 -73 30t-30 73t30 72.5t73 29.5h245l258 432h-721 q-43 0 -72.5 31t-29.5 72z" />
<glyph unicode="8" d="M2 100v670v627q0 43 30.5 73.5t73.5 30.5h963q43 0 74 -30.5t31 -73.5v-627v-670q0 -43 -31 -73.5t-74 -30.5h-963q-43 0 -73.5 30.5t-30.5 73.5zM211 205h754v461h-754v-461zM211 874h754v418h-754v-418z" />
<glyph unicode="9" d="M0 770v627q0 43 30.5 73.5t73.5 30.5h963q43 0 73.5 -30.5t30.5 -73.5v-627v-670q0 -43 -30.5 -73.5t-73.5 -30.5q-45 0 -74.5 30.5t-29.5 73.5v566h-859q-43 0 -73.5 30.5t-30.5 73.5zM209 874h754v418h-754v-418z" />
<glyph unicode="A" horiz-adv-x="1785" d="M8 104q0 43 31 74t74 31h168v1188q0 43 29.5 73.5t74.5 30.5h1022q43 0 73.5 -30.5t30.5 -73.5v-1188h166q43 0 74 -31t31 -74t-31 -73.5t-74 -30.5h-542q-43 0 -74 30.5t-31 73.5t31 74t74 31h168v438h-814v-438h166q43 0 74 -31t31 -74t-31 -73.5t-74 -30.5h-542 q-43 0 -74 30.5t-31 73.5zM489 854h814v438h-814v-438z" />
<glyph unicode="B" horiz-adv-x="1466" d="M6 100q0 43 31 74t74 31h168v440h-168q-43 0 -74 30t-31 75q0 43 31 73.5t74 30.5h168v438h-168q-43 0 -74 31t-31 74t31 73.5t74 30.5h1253q45 0 74.5 -30.5t29.5 -73.5v-1297q0 -43 -29.5 -73.5t-74.5 -30.5h-1253q-43 0 -74 30.5t-31 73.5zM487 205h773v440h-773v-440 zM487 854h773v438h-773v-438z" />
<glyph unicode="C" horiz-adv-x="1228" d="M0 102v1295q0 43 30.5 73.5t73.5 30.5h1022q43 0 74 -30.5t31 -73.5v-293q0 -43 -31 -74t-74 -31t-73.5 31t-30.5 74v188h-813v-1085h813v125q0 43 30.5 73.5t73.5 30.5t74 -30.5t31 -73.5v-230q0 -43 -31 -73.5t-74 -30.5h-1022q-43 0 -73.5 30.5t-30.5 73.5z" />
<glyph unicode="D" horiz-adv-x="1437" d="M0 104q0 43 30.5 73t73.5 30h166v1085h-166q-43 0 -73.5 31t-30.5 74t30.5 73.5t73.5 30.5h1231q43 0 74 -30.5t31 -73.5v-1293q0 -45 -31 -74.5t-74 -29.5h-1231q-43 0 -73.5 29.5t-30.5 74.5zM479 207h752v1085h-752v-1085z" />
<glyph unicode="E" horiz-adv-x="1458" d="M8 100q0 45 31 75t74 30h168v440h-168q-43 0 -74 31t-31 74t31 73.5t74 30.5h168v438h-168q-43 0 -74 31t-31 74t31 73.5t74 30.5h1233q43 0 73.5 -30.5t30.5 -73.5t-30.5 -74t-73.5 -31h-857v-438h543q43 0 74 -30.5t31 -73.5t-31 -74t-74 -31h-543v-440h857 q43 0 73.5 -30t30.5 -75q0 -43 -30.5 -73.5t-73.5 -30.5h-1233q-43 0 -74 30.5t-31 73.5z" />
<glyph unicode="F" horiz-adv-x="1439" d="M0 750q0 43 30.5 73.5t73.5 30.5h166v438h-166q-43 0 -73.5 31t-30.5 74t30.5 73.5t73.5 30.5h1231q43 0 74 -30.5t31 -73.5t-31 -74t-74 -31h-856v-438h543q43 0 73.5 -30.5t30.5 -73.5t-30.5 -74t-73.5 -31h-543v-541q0 -45 -30.5 -74.5t-73.5 -29.5t-74 29.5t-31 74.5 v541h-166q-43 0 -73.5 31t-30.5 74z" />
<glyph unicode="G" horiz-adv-x="1228" d="M0 102v1295q0 43 30.5 73.5t73.5 30.5h1022q43 0 74 -30.5t31 -73.5v-293q0 -43 -31 -74t-74 -31t-73.5 31t-30.5 74v188h-813v-1085h813v397h-303q-43 0 -74 30t-31 75q0 43 31 73.5t74 30.5h407q43 0 74 -30.5t31 -73.5v-607q0 -43 -31 -73.5t-74 -30.5h-1022 q-43 0 -73.5 30.5t-30.5 73.5z" />
<glyph unicode="H" horiz-adv-x="1806" d="M0 102q0 43 30.5 74t73.5 31h168v520q-4 12 -4 23q0 6 1 11t3 11v520h-168q-43 0 -73.5 31t-30.5 74t30.5 73.5t73.5 30.5h543q43 0 74 -30.5t31 -73.5t-31 -74t-74 -31h-166v-438h842v438h-168q-43 0 -73.5 31t-30.5 74t30.5 73.5t73.5 30.5h543q43 0 73.5 -30.5 t30.5 -73.5t-30.5 -74t-73.5 -31h-166v-1085h166q43 0 73.5 -31t30.5 -74t-30.5 -73.5t-73.5 -30.5h-543q-43 0 -73.5 30.5t-30.5 73.5t30.5 74t73.5 31h168v438h-842v-438h166q43 0 74 -31t31 -74t-31 -73.5t-74 -30.5h-543q-43 0 -73.5 30.5t-30.5 73.5z" />
<glyph unicode="I" horiz-adv-x="765" d="M6 102q0 45 31 75t74 30h168v1085h-168q-43 0 -74 31t-31 74t31 73.5t74 30.5h542q43 0 74 -30.5t31 -73.5t-31 -74t-74 -31h-166v-1085h166q43 0 74 -30t31 -75q0 -43 -31 -73.5t-74 -30.5h-542q-43 0 -74 30.5t-31 73.5z" />
<glyph unicode="J" horiz-adv-x="1318" d="M0 102v377q0 43 30.5 74t73.5 31h271q45 0 74.5 -31t29.5 -74t-29.5 -73.5t-74.5 -30.5h-166v-168h625v1085h-166q-43 0 -74 31t-31 74t31 73.5t74 30.5h542q43 0 74 -30.5t31 -73.5t-31 -74t-74 -31h-168v-1190q0 -43 -30.5 -72.5t-73.5 -29.5h-834q-43 0 -73.5 29.5 t-30.5 72.5z" />
<glyph unicode="K" horiz-adv-x="1703" d="M0 102q0 43 29.5 73t72.5 30h166v1091h-166q-43 0 -72.5 30t-29.5 73q0 41 29.5 71.5t72.5 30.5h535q43 0 72.5 -30.5t29.5 -71.5q0 -43 -29.5 -73t-72.5 -30h-164v-538l592 538h-2q-43 0 -72.5 30t-29.5 73q0 41 29.5 71.5t72.5 30.5h534q43 0 73 -30.5t30 -71.5 q0 -43 -30 -73t-73 -30h-227l-584 -532l551 -559h260q43 0 73 -30t30 -73t-30 -72.5t-73 -29.5h-534q-43 0 -72.5 29.5t-29.5 72.5q0 41 25.5 69t64.5 34l-416 422l-162 -148v-274h164q43 0 72.5 -30t29.5 -73t-29.5 -72.5t-72.5 -29.5h-535q-43 0 -72.5 29.5t-29.5 72.5z " />
<glyph unicode="L" horiz-adv-x="1454" d="M-4 1397q0 43 30.5 73.5t73.5 30.5h543q43 0 74 -30.5t31 -73.5t-31 -74t-74 -31h-158v-1085h752v125q0 45 30.5 74.5t73.5 29.5t74 -29.5t31 -74.5v-230q0 -43 -31 -73.5t-74 -30.5h-1230q-43 0 -74 30.5t-31 73.5t31 74t74 31h168v1085h-179q-43 0 -73.5 31t-30.5 74z " />
<glyph unicode="M" horiz-adv-x="2228" d="M6 100q0 43 31 74t74 31h168v1087h-168q-43 0 -74 31t-31 74t31 73.5t74 30.5h542q45 0 76 -30.5t31 -73.5t-31 -74t-76 -31h-92l553 -979l553 979h-92q-45 0 -75 31t-30 74t30 73.5t75 30.5h543q43 0 73.5 -30.5t30.5 -73.5t-30.5 -74t-73.5 -31h-168v-1087h168 q43 0 73.5 -31t30.5 -74t-30.5 -73.5t-73.5 -30.5h-543q-45 0 -75 30.5t-30 73.5t30 74t75 31h166v794l-537 -950l-6 -12q-2 0 -2 -2l-12 -12l-2 -3q-4 -4 -8.5 -6t-8.5 -4q0 -2 -2 -2q-8 -4 -10 -4q-2 -2 -4 -2t-6 -2h-2q-16 -4 -27 -4q-10 0 -27 4h-2q-4 2 -6 2t-4 2 q-2 0 -10 4l-2 2l-8 4t-8 6l-3 3l-12 12v2q-4 4 -8 12l-537 950v-794h166q45 0 76 -31t31 -74t-31 -73.5t-76 -30.5h-542q-43 0 -74 30.5t-31 73.5z" />
<glyph unicode="N" horiz-adv-x="1863" d="M4 104q0 43 31 74t74 31h165v1083h-165q-43 0 -74 30t-31 75q0 43 31 72.5t74 29.5h542q43 0 74 -29.5t31 -72.5q0 -45 -31 -75t-74 -30h-45l774 -907v907h-168q-43 0 -72.5 30t-29.5 75q0 43 29.5 72.5t72.5 29.5h543q43 0 74 -29.5t31 -72.5q0 -45 -31 -75t-74 -30 h-166v-1188q0 -2 -2 -4v-12q0 -2 -1 -4t-1 -4q0 -4 -1 -5t-1 -5q-2 -4 -2 -5.5t-2 -5.5q-4 -4 -4 -8q-2 -2 -3 -4t-3 -4t-3 -4t-3 -4t-4.5 -3t-4.5 -5l-2 -2q-2 -2 -3 -2t-3 -3q-4 -4 -6 -4q-4 -2 -5 -3t-5 -3l-8 -4q-4 0 -5 -1t-6 -1q-4 -2 -8 -2q-6 -2 -18 -2q-14 0 -23 2 h-4q-4 2 -8 3t-8 3q-2 2 -3 2t-3 2l-13 6l-6 7q-4 2 -5 4t-5 4q0 2 -1 2t-1 2l-922 1077v-905h168q43 0 74 -31t31 -74t-31 -73.5t-74 -30.5h-542q-43 0 -74 30.5t-31 73.5z" />
<glyph unicode="O" horiz-adv-x="1232" d="M0 100v1297q0 43 30.5 73.5t73.5 30.5h1024q45 0 75 -30.5t30 -73.5v-1297q0 -43 -29.5 -73.5t-75.5 -30.5h-1024q-43 0 -73.5 30.5t-30.5 73.5zM209 205h815v1087h-815v-1087z" />
<glyph unicode="P" horiz-adv-x="1531" d="M0 100q0 45 30.5 75t73.5 30h168v520q-4 16 -4 25q0 6 4 22v520h-168q-43 0 -73.5 31t-30.5 74t30.5 73.5t73.5 30.5h1323q43 0 74 -30.5t31 -73.5v-647q0 -45 -31 -75t-74 -30h-4h-2h-940v-440h166q45 0 75 -30t30 -75q0 -43 -30 -73.5t-75 -30.5h-543q-43 0 -73.5 30.5 t-30.5 73.5zM481 854h842v438h-842v-438z" />
<glyph unicode="Q" horiz-adv-x="1347" d="M2 104v1293q0 43 30.5 73.5t73.5 30.5h1022q43 0 73 -30.5t30 -73.5v-1291l78 -67q33 -29 36 -72v-8q0 -38 -26 -68q-28 -34 -77 -34h-3q-41 0 -68 24l-135 119h-930q-43 0 -73.5 30.5t-30.5 73.5zM211 209h590q-33 29 -35 72v6q0 39 27 69q29 33 71 35h6q39 0 70 -26 l84 -74v1001h-813v-1083z" />
<glyph unicode="R" horiz-adv-x="1802" d="M0 102q0 45 30.5 75t73.5 30h168v520q-4 16 -4 25q0 6 4 22v520h-168q-43 0 -73.5 31t-30.5 74t30.5 73.5t73.5 30.5h1323q43 0 74 -30.5t31 -73.5v-647q0 -45 -31 -75t-74 -30h-4h-4h-301l359 -440h223q43 0 73.5 -30t30.5 -75q0 -43 -30.5 -73.5t-73.5 -30.5h-545 q-43 0 -73.5 30.5t-30.5 73.5q0 45 30.5 75t73.5 30h51l-358 440h-367v-440h166q43 0 74 -30t31 -75q0 -43 -31 -73.5t-74 -30.5h-543q-43 0 -73.5 30.5t-30.5 73.5zM481 856h842v438h-842v-438z" />
<glyph unicode="S" d="M2 102v252q0 43 30.5 74t73.5 31t74 -31t31 -74v-147h752v420h-857q-43 0 -73.5 29.5t-30.5 74.5v668q0 43 30.5 73.5t73.5 30.5h961q45 0 74.5 -30.5t29.5 -73.5v-293q0 -43 -29.5 -74t-74.5 -31q-43 0 -73.5 31t-30.5 74v188h-752v-458h856q45 0 74.5 -31t29.5 -74 v-629q0 -43 -29.5 -73.5t-74.5 -30.5h-961q-43 0 -73.5 30.5t-30.5 73.5z" />
<glyph unicode="T" horiz-adv-x="1507" d="M2 1106v293q0 43 30.5 73.5t73.5 30.5h1297q43 0 73.5 -30.5t30.5 -73.5v-293q0 -43 -30.5 -74t-73.5 -31q-45 0 -75 31t-30 74v188h-440v-1087h168q43 0 73.5 -30t30.5 -75q0 -43 -30.5 -73.5t-73.5 -30.5h-543q-45 0 -74.5 30.5t-29.5 73.5q0 45 29.5 75t74.5 30h166 v1087h-438v-188q0 -43 -30.5 -74t-74.5 -31q-43 0 -73.5 31t-30.5 74z" />
<glyph unicode="U" horiz-adv-x="1773" d="M0 1399q0 43 30.5 73.5t73.5 30.5h543q43 0 74 -30.5t31 -73.5t-31 -74t-74 -31h-166v-1087h815v1087h-168q-43 0 -73.5 31t-30.5 74t30.5 73.5t73.5 30.5h543q43 0 74 -30.5t31 -73.5t-31 -74t-74 -31h-166v-1192q0 -43 -30.5 -73.5t-73.5 -30.5h-1024q-45 0 -75 30.5 t-30 73.5v1192h-168q-43 0 -73.5 31t-30.5 74z" />
<glyph unicode="V" horiz-adv-x="1753" d="M0 1399q0 43 30.5 73.5t73.5 30.5h543q43 0 74 -30.5t31 -73.5t-31 -74t-74 -31h-110l313 -903l387 903h-135q-43 0 -74 31t-31 74t31 73.5t74 30.5h295h248q43 0 73.5 -30.5t30.5 -73.5t-30.5 -74t-73.5 -31h-181l-528 -1233q-27 -63 -96 -63h-2q-35 2 -60.5 21.5 t-36.5 50.5l-428 1224h-209q-43 0 -73.5 31t-30.5 74z" />
<glyph unicode="W" horiz-adv-x="2756" d="M2 1399q0 43 30.5 73.5t73.5 30.5h254h2h287q43 0 74 -30.5t31 -73.5t-31 -74t-74 -31h-129l389 -907l332 907h-131q-43 0 -73.5 31t-30.5 74t30.5 73.5t73.5 30.5h543q43 0 73.5 -30.5t30.5 -73.5t-30.5 -74t-73.5 -31h-113l315 -903l388 903h-136q-45 0 -74.5 31 t-29.5 74t29.5 73.5t74.5 30.5h295h248q43 0 74 -30.5t31 -73.5t-31 -74t-74 -31h-180l-528 -1233q-12 -29 -39 -46t-58 -17h-4q-33 2 -58.5 21.5t-35.5 50.5l-358 1024l-373 -1026q-10 -31 -37 -49.5t-59 -20.5h-2q-33 0 -58.5 17.5t-38.5 45.5l-528 1233h-187 q-43 0 -73.5 31t-30.5 74z" />
<glyph unicode="X" horiz-adv-x="1654" d="M0 102q0 45 30.5 75t73.5 30h199l391 545l-391 542h-199q-43 0 -73.5 31t-30.5 74t30.5 73.5t73.5 30.5h543q43 0 74 -30.5t31 -73.5t-31 -74t-74 -31h-86l262 -364l262 364h-86q-45 0 -74.5 31t-29.5 74t29.5 73.5t74.5 30.5h543q43 0 74 -30.5t31 -73.5t-31 -74 t-74 -31h-199l-391 -542l391 -545h199q43 0 74 -30t31 -75q0 -43 -31 -73.5t-74 -30.5h-543q-45 0 -74.5 30.5t-29.5 73.5q0 45 29.5 75t74.5 30h86l-262 364l-262 -364h86q43 0 74 -30t31 -75q0 -43 -31 -73.5t-74 -30.5h-543q-43 0 -73.5 30.5t-30.5 73.5z" />
<glyph unicode="Y" horiz-adv-x="1691" d="M0 1399q0 43 30.5 73.5t73.5 30.5h543q43 0 74 -30.5t31 -73.5t-31 -74t-74 -31h-80l267 -352l280 352h-74q-43 0 -73.5 31t-30.5 74t30.5 73.5t73.5 30.5h543q45 0 75 -30.5t30 -73.5t-30 -74t-75 -31h-203l-444 -559v-528h166q43 0 73.5 -30t30.5 -75 q0 -43 -30.5 -73.5t-73.5 -30.5h-543q-43 0 -73.5 30.5t-30.5 73.5q0 45 30.5 75t73.5 30h168v530l-422 557h-201q-43 0 -73.5 31t-30.5 74z" />
<glyph unicode="Z" horiz-adv-x="1355" d="M8 59q-10 23 -10 45q0 37 29 68l995 1122h-723v-209q0 -43 -30.5 -73.5t-73.5 -30.5t-74 30.5t-31 73.5v314q0 43 31 73.5t74 30.5h1058q31 0 56.5 -16.5t40.5 -44.5q9 -22 9 -44q0 -8 -1 -16q-4 -30 -27 -53l-995 -1122h813v231q0 43 30.5 74t73.5 31t74 -31t31 -74 v-336q0 -43 -31 -73.5t-74 -30.5h-1149q-31 0 -56 16.5t-40 44.5z" />
<glyph unicode="_" horiz-adv-x="942" d="M131 100q0 43 29.5 73t72.5 30h609q43 0 72.5 -30t29.5 -73q0 -41 -29.5 -70.5t-72.5 -29.5h-609q-43 0 -72.5 29.5t-29.5 70.5z" />
<glyph unicode="a" horiz-adv-x="1785" d="M8 104q0 43 31 74t74 31h168v1188q0 43 29.5 73.5t74.5 30.5h1022q43 0 73.5 -30.5t30.5 -73.5v-1188h166q43 0 74 -31t31 -74t-31 -73.5t-74 -30.5h-542q-43 0 -74 30.5t-31 73.5t31 74t74 31h168v438h-814v-438h166q43 0 74 -31t31 -74t-31 -73.5t-74 -30.5h-542 q-43 0 -74 30.5t-31 73.5zM489 854h814v438h-814v-438z" />
<glyph unicode="b" horiz-adv-x="1466" d="M6 100q0 43 31 74t74 31h168v440h-168q-43 0 -74 30t-31 75q0 43 31 73.5t74 30.5h168v438h-168q-43 0 -74 31t-31 74t31 73.5t74 30.5h1253q45 0 74.5 -30.5t29.5 -73.5v-1297q0 -43 -29.5 -73.5t-74.5 -30.5h-1253q-43 0 -74 30.5t-31 73.5zM487 205h773v440h-773v-440 zM487 854h773v438h-773v-438z" />
<glyph unicode="c" horiz-adv-x="1228" d="M0 102v1295q0 43 30.5 73.5t73.5 30.5h1022q43 0 74 -30.5t31 -73.5v-293q0 -43 -31 -74t-74 -31t-73.5 31t-30.5 74v188h-813v-1085h813v125q0 43 30.5 73.5t73.5 30.5t74 -30.5t31 -73.5v-230q0 -43 -31 -73.5t-74 -30.5h-1022q-43 0 -73.5 30.5t-30.5 73.5z" />
<glyph unicode="d" horiz-adv-x="1437" d="M0 104q0 43 30.5 73t73.5 30h166v1085h-166q-43 0 -73.5 31t-30.5 74t30.5 73.5t73.5 30.5h1231q43 0 74 -30.5t31 -73.5v-1293q0 -45 -31 -74.5t-74 -29.5h-1231q-43 0 -73.5 29.5t-30.5 74.5zM479 207h752v1085h-752v-1085z" />
<glyph unicode="e" horiz-adv-x="1458" d="M8 100q0 45 31 75t74 30h168v440h-168q-43 0 -74 31t-31 74t31 73.5t74 30.5h168v438h-168q-43 0 -74 31t-31 74t31 73.5t74 30.5h1233q43 0 73.5 -30.5t30.5 -73.5t-30.5 -74t-73.5 -31h-857v-438h543q43 0 74 -30.5t31 -73.5t-31 -74t-74 -31h-543v-440h857 q43 0 73.5 -30t30.5 -75q0 -43 -30.5 -73.5t-73.5 -30.5h-1233q-43 0 -74 30.5t-31 73.5z" />
<glyph unicode="f" horiz-adv-x="1439" d="M0 750q0 43 30.5 73.5t73.5 30.5h166v438h-166q-43 0 -73.5 31t-30.5 74t30.5 73.5t73.5 30.5h1231q43 0 74 -30.5t31 -73.5t-31 -74t-74 -31h-856v-438h543q43 0 73.5 -30.5t30.5 -73.5t-30.5 -74t-73.5 -31h-543v-541q0 -45 -30.5 -74.5t-73.5 -29.5t-74 29.5t-31 74.5 v541h-166q-43 0 -73.5 31t-30.5 74z" />
<glyph unicode="g" horiz-adv-x="1228" d="M0 102v1295q0 43 30.5 73.5t73.5 30.5h1022q43 0 74 -30.5t31 -73.5v-293q0 -43 -31 -74t-74 -31t-73.5 31t-30.5 74v188h-813v-1085h813v397h-303q-43 0 -74 30t-31 75q0 43 31 73.5t74 30.5h407q43 0 74 -30.5t31 -73.5v-607q0 -43 -31 -73.5t-74 -30.5h-1022 q-43 0 -73.5 30.5t-30.5 73.5z" />
<glyph unicode="h" horiz-adv-x="1806" d="M0 102q0 43 30.5 74t73.5 31h168v520q-4 12 -4 23q0 6 1 11t3 11v520h-168q-43 0 -73.5 31t-30.5 74t30.5 73.5t73.5 30.5h543q43 0 74 -30.5t31 -73.5t-31 -74t-74 -31h-166v-438h842v438h-168q-43 0 -73.5 31t-30.5 74t30.5 73.5t73.5 30.5h543q43 0 73.5 -30.5 t30.5 -73.5t-30.5 -74t-73.5 -31h-166v-1085h166q43 0 73.5 -31t30.5 -74t-30.5 -73.5t-73.5 -30.5h-543q-43 0 -73.5 30.5t-30.5 73.5t30.5 74t73.5 31h168v438h-842v-438h166q43 0 74 -31t31 -74t-31 -73.5t-74 -30.5h-543q-43 0 -73.5 30.5t-30.5 73.5z" />
<glyph unicode="i" horiz-adv-x="765" d="M6 102q0 45 31 75t74 30h168v1085h-168q-43 0 -74 31t-31 74t31 73.5t74 30.5h542q43 0 74 -30.5t31 -73.5t-31 -74t-74 -31h-166v-1085h166q43 0 74 -30t31 -75q0 -43 -31 -73.5t-74 -30.5h-542q-43 0 -74 30.5t-31 73.5z" />
<glyph unicode="j" horiz-adv-x="1318" d="M0 102v377q0 43 30.5 74t73.5 31h271q45 0 74.5 -31t29.5 -74t-29.5 -73.5t-74.5 -30.5h-166v-168h625v1085h-166q-43 0 -74 31t-31 74t31 73.5t74 30.5h542q43 0 74 -30.5t31 -73.5t-31 -74t-74 -31h-168v-1190q0 -43 -30.5 -72.5t-73.5 -29.5h-834q-43 0 -73.5 29.5 t-30.5 72.5z" />
<glyph unicode="k" horiz-adv-x="1703" d="M0 102q0 43 29.5 73t72.5 30h166v1091h-166q-43 0 -72.5 30t-29.5 73q0 41 29.5 71.5t72.5 30.5h535q43 0 72.5 -30.5t29.5 -71.5q0 -43 -29.5 -73t-72.5 -30h-164v-538l592 538h-2q-43 0 -72.5 30t-29.5 73q0 41 29.5 71.5t72.5 30.5h534q43 0 73 -30.5t30 -71.5 q0 -43 -30 -73t-73 -30h-227l-584 -532l551 -559h260q43 0 73 -30t30 -73t-30 -72.5t-73 -29.5h-534q-43 0 -72.5 29.5t-29.5 72.5q0 41 25.5 69t64.5 34l-416 422l-162 -148v-274h164q43 0 72.5 -30t29.5 -73t-29.5 -72.5t-72.5 -29.5h-535q-43 0 -72.5 29.5t-29.5 72.5z " />
<glyph unicode="l" horiz-adv-x="1454" d="M-4 1397q0 43 30.5 73.5t73.5 30.5h543q43 0 74 -30.5t31 -73.5t-31 -74t-74 -31h-158v-1085h752v125q0 45 30.5 74.5t73.5 29.5t74 -29.5t31 -74.5v-230q0 -43 -31 -73.5t-74 -30.5h-1230q-43 0 -74 30.5t-31 73.5t31 74t74 31h168v1085h-179q-43 0 -73.5 31t-30.5 74z " />
<glyph unicode="m" horiz-adv-x="2228" d="M6 100q0 43 31 74t74 31h168v1087h-168q-43 0 -74 31t-31 74t31 73.5t74 30.5h542q45 0 76 -30.5t31 -73.5t-31 -74t-76 -31h-92l553 -979l553 979h-92q-45 0 -75 31t-30 74t30 73.5t75 30.5h543q43 0 73.5 -30.5t30.5 -73.5t-30.5 -74t-73.5 -31h-168v-1087h168 q43 0 73.5 -31t30.5 -74t-30.5 -73.5t-73.5 -30.5h-543q-45 0 -75 30.5t-30 73.5t30 74t75 31h166v794l-537 -950l-6 -12q-2 0 -2 -2l-12 -12l-2 -3q-4 -4 -8.5 -6t-8.5 -4q0 -2 -2 -2q-8 -4 -10 -4q-2 -2 -4 -2t-6 -2h-2q-16 -4 -27 -4q-10 0 -27 4h-2q-4 2 -6 2t-4 2 q-2 0 -10 4l-2 2l-8 4t-8 6l-3 3l-12 12v2q-4 4 -8 12l-537 950v-794h166q45 0 76 -31t31 -74t-31 -73.5t-76 -30.5h-542q-43 0 -74 30.5t-31 73.5z" />
<glyph unicode="n" horiz-adv-x="1863" d="M4 104q0 43 31 74t74 31h165v1083h-165q-43 0 -74 30t-31 75q0 43 31 72.5t74 29.5h542q43 0 74 -29.5t31 -72.5q0 -45 -31 -75t-74 -30h-45l774 -907v907h-168q-43 0 -72.5 30t-29.5 75q0 43 29.5 72.5t72.5 29.5h543q43 0 74 -29.5t31 -72.5q0 -45 -31 -75t-74 -30 h-166v-1188q0 -2 -2 -4v-12q0 -2 -1 -4t-1 -4q0 -4 -1 -5t-1 -5q-2 -4 -2 -5.5t-2 -5.5q-4 -4 -4 -8q-2 -2 -3 -4t-3 -4t-3 -4t-3 -4t-4.5 -3t-4.5 -5l-2 -2q-2 -2 -3 -2t-3 -3q-4 -4 -6 -4q-4 -2 -5 -3t-5 -3l-8 -4q-4 0 -5 -1t-6 -1q-4 -2 -8 -2q-6 -2 -18 -2q-14 0 -23 2 h-4q-4 2 -8 3t-8 3q-2 2 -3 2t-3 2l-13 6l-6 7q-4 2 -5 4t-5 4q0 2 -1 2t-1 2l-922 1077v-905h168q43 0 74 -31t31 -74t-31 -73.5t-74 -30.5h-542q-43 0 -74 30.5t-31 73.5z" />
<glyph unicode="o" horiz-adv-x="1232" d="M2 102v1295q0 43 30.5 73.5t73.5 30.5h1022q43 0 74 -30.5t31 -73.5v-1295q0 -43 -31 -73.5t-74 -30.5h-1022q-43 0 -73.5 30.5t-30.5 73.5zM211 207h813v1085h-813v-1085z" />
<glyph unicode="p" horiz-adv-x="1531" d="M0 100q0 45 30.5 75t73.5 30h168v520q-4 16 -4 25q0 6 4 22v520h-168q-43 0 -73.5 31t-30.5 74t30.5 73.5t73.5 30.5h1323q43 0 74 -30.5t31 -73.5v-647q0 -45 -31 -75t-74 -30h-4h-2h-940v-440h166q45 0 75 -30t30 -75q0 -43 -30 -73.5t-75 -30.5h-543q-43 0 -73.5 30.5 t-30.5 73.5zM481 854h842v438h-842v-438z" />
<glyph unicode="q" horiz-adv-x="1347" d="M2 104v1293q0 43 30.5 73.5t73.5 30.5h1022q43 0 73 -30.5t30 -73.5v-1291l78 -67q33 -29 36 -72v-8q0 -38 -26 -68q-28 -34 -77 -34h-3q-41 0 -68 24l-135 119h-930q-43 0 -73.5 30.5t-30.5 73.5zM211 209h590q-33 29 -35 72v6q0 39 27 69q29 33 71 35h6q39 0 70 -26 l84 -74v1001h-813v-1083z" />
<glyph unicode="r" horiz-adv-x="1802" d="M0 102q0 45 30.5 75t73.5 30h168v520q-4 16 -4 25q0 6 4 22v520h-168q-43 0 -73.5 31t-30.5 74t30.5 73.5t73.5 30.5h1323q43 0 74 -30.5t31 -73.5v-647q0 -45 -31 -75t-74 -30h-4h-4h-301l359 -440h223q43 0 73.5 -30t30.5 -75q0 -43 -30.5 -73.5t-73.5 -30.5h-545 q-43 0 -73.5 30.5t-30.5 73.5q0 45 30.5 75t73.5 30h51l-358 440h-367v-440h166q43 0 74 -30t31 -75q0 -43 -31 -73.5t-74 -30.5h-543q-43 0 -73.5 30.5t-30.5 73.5zM481 856h842v438h-842v-438z" />
<glyph unicode="s" d="M2 102v252q0 43 30.5 74t73.5 31t74 -31t31 -74v-147h752v420h-857q-43 0 -73.5 29.5t-30.5 74.5v668q0 43 30.5 73.5t73.5 30.5h961q45 0 74.5 -30.5t29.5 -73.5v-293q0 -43 -29.5 -74t-74.5 -31q-43 0 -73.5 31t-30.5 74v188h-752v-458h856q45 0 74.5 -31t29.5 -74 v-629q0 -43 -29.5 -73.5t-74.5 -30.5h-961q-43 0 -73.5 30.5t-30.5 73.5z" />
<glyph unicode="t" horiz-adv-x="1507" d="M2 1106v293q0 43 30.5 73.5t73.5 30.5h1297q43 0 73.5 -30.5t30.5 -73.5v-293q0 -43 -30.5 -74t-73.5 -31q-45 0 -75 31t-30 74v188h-440v-1087h168q43 0 73.5 -30t30.5 -75q0 -43 -30.5 -73.5t-73.5 -30.5h-543q-45 0 -74.5 30.5t-29.5 73.5q0 45 29.5 75t74.5 30h166 v1087h-438v-188q0 -43 -30.5 -74t-74.5 -31q-43 0 -73.5 31t-30.5 74z" />
<glyph unicode="u" horiz-adv-x="1773" d="M0 1399q0 43 30.5 73.5t73.5 30.5h543q43 0 74 -30.5t31 -73.5t-31 -74t-74 -31h-166v-1087h815v1087h-168q-43 0 -73.5 31t-30.5 74t30.5 73.5t73.5 30.5h543q43 0 74 -30.5t31 -73.5t-31 -74t-74 -31h-166v-1192q0 -43 -30.5 -73.5t-73.5 -30.5h-1024q-45 0 -75 30.5 t-30 73.5v1192h-168q-43 0 -73.5 31t-30.5 74z" />
<glyph unicode="v" horiz-adv-x="1753" d="M0 1399q0 43 30.5 73.5t73.5 30.5h543q43 0 74 -30.5t31 -73.5t-31 -74t-74 -31h-110l313 -903l387 903h-135q-43 0 -74 31t-31 74t31 73.5t74 30.5h295h248q43 0 73.5 -30.5t30.5 -73.5t-30.5 -74t-73.5 -31h-181l-528 -1233q-27 -63 -96 -63h-2q-35 2 -60.5 21.5 t-36.5 50.5l-428 1224h-209q-43 0 -73.5 31t-30.5 74z" />
<glyph unicode="w" horiz-adv-x="2756" d="M2 1399q0 43 30.5 73.5t73.5 30.5h254h2h287q43 0 74 -30.5t31 -73.5t-31 -74t-74 -31h-129l389 -907l332 907h-131q-43 0 -73.5 31t-30.5 74t30.5 73.5t73.5 30.5h543q43 0 73.5 -30.5t30.5 -73.5t-30.5 -74t-73.5 -31h-113l315 -903l388 903h-136q-45 0 -74.5 31 t-29.5 74t29.5 73.5t74.5 30.5h295h248q43 0 74 -30.5t31 -73.5t-31 -74t-74 -31h-180l-528 -1233q-12 -29 -39 -46t-58 -17h-4q-33 2 -58.5 21.5t-35.5 50.5l-358 1024l-373 -1026q-10 -31 -37 -49.5t-59 -20.5h-2q-33 0 -58.5 17.5t-38.5 45.5l-528 1233h-187 q-43 0 -73.5 31t-30.5 74z" />
<glyph unicode="x" horiz-adv-x="1654" d="M0 102q0 45 30.5 75t73.5 30h199l391 545l-391 542h-199q-43 0 -73.5 31t-30.5 74t30.5 73.5t73.5 30.5h543q43 0 74 -30.5t31 -73.5t-31 -74t-74 -31h-86l262 -364l262 364h-86q-45 0 -74.5 31t-29.5 74t29.5 73.5t74.5 30.5h543q43 0 74 -30.5t31 -73.5t-31 -74 t-74 -31h-199l-391 -542l391 -545h199q43 0 74 -30t31 -75q0 -43 -31 -73.5t-74 -30.5h-543q-45 0 -74.5 30.5t-29.5 73.5q0 45 29.5 75t74.5 30h86l-262 364l-262 -364h86q43 0 74 -30t31 -75q0 -43 -31 -73.5t-74 -30.5h-543q-43 0 -73.5 30.5t-30.5 73.5z" />
<glyph unicode="y" horiz-adv-x="1691" d="M0 1399q0 43 30.5 73.5t73.5 30.5h543q43 0 74 -30.5t31 -73.5t-31 -74t-74 -31h-80l267 -352l280 352h-74q-43 0 -73.5 31t-30.5 74t30.5 73.5t73.5 30.5h543q45 0 75 -30.5t30 -73.5t-30 -74t-75 -31h-203l-444 -559v-528h166q43 0 73.5 -30t30.5 -75 q0 -43 -30.5 -73.5t-73.5 -30.5h-543q-43 0 -73.5 30.5t-30.5 73.5q0 45 30.5 75t73.5 30h168v530l-422 557h-201q-43 0 -73.5 31t-30.5 74z" />
<glyph unicode="z" horiz-adv-x="1355" d="M8 59q-10 23 -10 45q0 37 29 68l995 1122h-723v-209q0 -43 -30.5 -73.5t-73.5 -30.5t-74 30.5t-31 73.5v314q0 43 31 73.5t74 30.5h1058q31 0 56.5 -16.5t40.5 -44.5q9 -22 9 -44q0 -8 -1 -16q-4 -30 -27 -53l-995 -1122h813v231q0 43 30.5 74t73.5 31t74 -31t31 -74 v-336q0 -43 -31 -73.5t-74 -30.5h-1149q-31 0 -56 16.5t-40 44.5z" />
<glyph unicode="&#x2000;" horiz-adv-x="753" />
<glyph unicode="&#x2001;" horiz-adv-x="1507" />
<glyph unicode="&#x2002;" horiz-adv-x="753" />
<glyph unicode="&#x2003;" horiz-adv-x="1507" />
<glyph unicode="&#x2004;" horiz-adv-x="502" />
<glyph unicode="&#x2005;" horiz-adv-x="376" />
<glyph unicode="&#x2006;" horiz-adv-x="251" />
<glyph unicode="&#x2007;" horiz-adv-x="251" />
<glyph unicode="&#x2008;" horiz-adv-x="188" />
<glyph unicode="&#x2009;" horiz-adv-x="301" />
<glyph unicode="&#x200a;" horiz-adv-x="83" />
<glyph unicode="&#x202f;" horiz-adv-x="301" />
<glyph unicode="&#x205f;" horiz-adv-x="376" />
<glyph unicode="&#xe000;" horiz-adv-x="1505" d="M0 0v1505h1505v-1505h-1505z" />
</font>
</defs>
</svg>
