<?xml version="1.0" standalone="no"?>
<!DOCTYPE svg PUBLIC "-//W3C//DTD SVG 1.1//EN" "http://www.w3.org/Graphics/SVG/1.1/DTD/svg11.dtd" >
<svg xmlns="http://www.w3.org/2000/svg">
<metadata></metadata>
<defs>
<font id="sullivan_bevelregular" horiz-adv-x="794" >
<font-face units-per-em="2048" ascent="1536" descent="-512" />
<missing-glyph horiz-adv-x="327" />
<glyph horiz-adv-x="2048" />
<glyph horiz-adv-x="2048" />
<glyph unicode="&#xd;" horiz-adv-x="2048" />
<glyph unicode=" "  horiz-adv-x="327" />
<glyph unicode="&#x09;" horiz-adv-x="327" />
<glyph unicode="&#xa0;" horiz-adv-x="327" />
<glyph unicode="!" horiz-adv-x="368" d="M61 0v246h246v-246h-246zM61 342v1092h246v-1092h-246zM82 35l88 88l-88 90v-178zM82 377l92 92v838l-92 94v-1024zM94 1415l90 -88l88 88h-178zM96 227l88 -90l90 90h-178z" />
<glyph unicode="&#x22;" horiz-adv-x="671" d="M61 1251v183h246v-183l-59 -176h-127zM82 1255l49 -151l43 41v162l-92 92v-144zM96 1413l86 -88l88 88h-174zM365 1251v183h245v-183l-59 -176h-127zM385 1255l49 -151l43 41v162l-92 92v-144zM399 1413l86 -88l88 88h-174z" />
<glyph unicode="#" horiz-adv-x="1132" d="M61 340v248h170v262h-170v248h170v336h246v-336h178v336h246v-336h170v-248h-170v-262h170v-248h-170v-340h-246v340h-178v-340h-246v340h-170zM80 375l88 88l-88 88v-176zM80 885l88 88l-88 88v-176zM92 567l94 -94h142l-95 94h-141zM92 1077l94 -94h142l-95 94h-141z M250 35l94 94v311l-94 -94v-311zM250 580l94 -95v465l-94 -94v-276zM250 1087l94 -92v312l-94 94v-314zM264 1415l88 -88l88 88h-176zM379 473h373l-93 94h-188zM379 983h373l-93 94h-188zM477 588h178v262h-178v-262zM676 35l92 94v311l-92 -94v-311zM676 580l92 -95v465 l-92 -94v-276zM676 1087l92 -92v312l-92 94v-314zM690 1415l88 -88l88 88h-176zM803 473h141l94 94h-141zM803 983h141l94 94h-141z" />
<glyph unicode="$" horiz-adv-x="878" d="M61 152v294l246 58v-258h264v348h-358q-63 0 -107.5 45t-44.5 109v534q0 63 44.5 107.5t107.5 44.5h102v256h246v-256h105q63 0 107 -44.5t44 -107.5v-291l-246 -57v254h-264v-346h359q63 0 107 -45t44 -109v-536q0 -63 -44 -107.5t-107 -44.5h-105v-254h-246v254h-102 q-63 0 -107.5 44.5t-44.5 107.5zM80 152q0 -48 33 -86l61 61v244l-94 51v-270zM80 748q0 -51 33 -89l61 64v584l-61 61q-33 -38 -33 -86v-534zM98 434l84 -45l84 84zM127 1382l61 -61h230l-96 94h-109q-48 0 -86 -33zM209 133h459l-95 92h-272zM209 729h481l62 62 q-37 32 -86 32h-365zM336 6v-227l92 94v227zM336 1430l92 -97v230l-92 94v-227zM348 1669l88 -88l88 88h-176zM457 1321h229l64 63q-40 31 -84 31h-113zM590 238l94 -95v551l-94 -94v-362zM590 969l94 94v227l-94 -94v-227z" />
<glyph unicode="%" horiz-adv-x="1607" d="M61 831v451q0 63 44.5 107.5t107.5 44.5h283q63 0 107 -44.5t44 -107.5v-451q0 -63 -44 -107t-107 -44h-283q-63 0 -107.5 44t-44.5 107zM82 831q0 -47 31 -86l61 62v500l-61 61q-31 -36 -31 -86v-451zM127 1382l61 -61h330l62 63q-40 31 -84 31h-283q-48 0 -86 -33z M209 813h289l-95 94h-102zM297 0l760 1434h256l-762 -1434h-254zM307 928h94v260h-94v-260zM340 41l123 82l643 1192l-43 88zM422 920l92 -95v465l-92 -94v-276zM961 152v452q0 62 44 106t107 44h283q63 0 107 -44t44 -106v-452q0 -62 -44 -107t-107 -45h-283q-63 0 -107 45 t-44 107zM981 152q0 -47 31 -86l61 63v498l-61 61q-31 -36 -31 -84v-452zM1026 702l61 -61h330l62 64q-38 30 -84 30h-283q-48 0 -86 -33zM1079 1415l41 -86l137 86h-178zM1108 133h289l-92 94h-105zM1206 248h94v260h-94v-260zM1321 240l92 -95v465l-92 -94v-276z" />
<glyph unicode="&#x26;" horiz-adv-x="964" d="M61 152v466q0 58 37 101q-37 43 -37 100v465q0 62 44.5 106t107.5 44h266v-246h-172v-346h178v116l246 58v-174h172v-248h-172v-348h172v-246h-209q-57 0 -112 51q-48 -51 -115 -51h-254q-63 0 -107.5 44.5t-44.5 107.5zM80 152q0 -48 33 -86l61 61v1180l-61 61 q-33 -38 -33 -84v-465q0 -53 39 -92l6 -8l-6 -8q-39 -39 -39 -93v-466zM127 1382l61 -61h160l92 94h-227q-48 0 -86 -33zM209 133h373l-93 92h-188zM209 729h373l-93 94h-188zM307 246h178v348h-178v-348zM506 238l92 -95v551l-92 -94v-362zM506 834l92 -93v140l-92 51v-98z M520 946l86 -45l84 84zM633 133h141l96 92h-143zM633 729h141l96 94h-143z" />
<glyph unicode="'" horiz-adv-x="368" d="M61 1251v183h246v-183l-59 -176h-127zM82 1255l49 -151l43 41v162l-92 92v-144zM96 1413l86 -88l88 88h-174z" />
<glyph unicode="(" horiz-adv-x="532" d="M61 -94v1622q0 63 44 107t106 44h260v-245h-166v-1434h166v-244h-260q-62 0 -106 43.5t-44 106.5zM82 -94q0 -50 31 -86l61 61v1671l-61 62q-31 -36 -31 -86v-1622zM127 1628l59 -61h160l90 92h-225q-44 0 -84 -31zM207 -113h141l90 93h-139z" />
<glyph unicode=")" horiz-adv-x="532" d="M61 0h168v1434h-168v243h263q60 0 103.5 -44t43.5 -107v-1620q0 -63 -43.5 -106.5t-103.5 -43.5h-263v244zM82 -35v-178l88 90zM82 1466l88 90l-88 89v-179zM94 -20l94 -93h140l-92 93h-142zM98 1657l92 -92h158l60 61q-43 31 -84 31h-226zM250 -6l92 -92v1628l-92 -92 v-1444z" />
<glyph unicode="*" horiz-adv-x="890" d="M61 1092l140 82l-140 79l123 211l140 -80v164h243v-164l140 80l122 -211l-139 -79l139 -82l-122 -211l-140 80v-162h-243v162l-140 -80zM94 1073l90 -153l33 120zM94 1272l123 33l-33 120zM100 1092l127 -33l205 110l-209 -6zM203 1432l35 -127l198 -123l-110 178z M344 831l92 95v133l4 100l-96 -184v-2v-142zM344 1370l96 -184l-4 237l-92 93v-146zM356 1530l90 -90l89 90h-179zM455 1182l198 123l35 127l-123 -72zM459 1169l205 -110l127 33l-123 71l-207 6h-2z" />
<glyph unicode="+" horiz-adv-x="876" d="M61 596v246h254v254h246v-254h254v-246h-254v-254h-246v254h-254zM82 629l88 88l-88 88v-176zM94 821l92 -92h228l-95 92h-225zM336 377l94 92v225l-94 -92v-225zM336 834l94 -95v228l-94 92v-225zM348 1075l90 -90l90 90h-180zM463 729h227l92 92h-227z" />
<glyph unicode="," horiz-adv-x="368" d="M61 0v244h246v-264q0 -47 -28.5 -87t-73.5 -57q-12 -4 -33 -6v170h-111zM82 31l86 90l-86 88v-178zM94 223l86 -86l90 86h-176z" />
<glyph unicode="-" horiz-adv-x="622" d="M61 424v246h500v-246h-500zM80 457l88 88l-88 88v-176zM92 649l94 -94h248l92 94h-434z" />
<glyph unicode="." horiz-adv-x="368" d="M61 0v248h246v-248h-246zM80 35l90 90l-90 88v-178zM96 227l88 -90l90 90h-178z" />
<glyph unicode="/" horiz-adv-x="677" d="M0 0l430 1434h248l-428 -1434h-250zM31 37l116 90l359 1186l-64 90zM457 1415l61 -86l117 86h-178z" />
<glyph unicode="0" d="M61 152v1130q0 63 44.5 107.5t107.5 44.5h369q62 0 106.5 -44.5t44.5 -107.5v-1130q0 -62 -45 -107t-106 -45h-369q-63 0 -107.5 45t-44.5 107zM80 152q0 -45 33 -86l61 63v1178l-61 61q-33 -38 -33 -86v-1130zM127 1382l61 -61h414l64 63q-40 31 -84 31h-369 q-48 0 -86 -33zM195 494l393 473l-88 28l-195 -235zM209 133h375l-95 94h-188zM307 248h178v389l-178 -215v-174zM307 793l178 217v178h-178v-395zM506 240l94 -95v750l-94 -231v-424zM506 1014l94 -31v307l-94 -94v-182z" />
<glyph unicode="1" horiz-adv-x="528" d="M31 1391l405 61v-1452h-246v1171l-102 -14zM59 1356l41 -164l52 94zM68 1376l98 -76l145 27l86 100zM209 35l94 94v1159l-94 -106v-1147z" />
<glyph unicode="2" d="M61 0v690q0 63 44.5 107.5t107.5 44.5h272v346h-178v-254l-246 57v291q0 63 44.5 107.5t107.5 44.5h369q62 0 106.5 -44.5t44.5 -107.5v-55v-479q0 -63 -44.5 -107.5t-106.5 -44.5h-275v-348h178v172l248 -58v-362h-672zM80 35l94 94v584l-63 61q-31 -40 -31 -84v-655z M80 1016l94 49v242l-61 61q-33 -38 -33 -86v-266zM125 788l61 -59h398l-95 94h-276q-48 0 -88 -35zM127 1382l61 -61h414l64 63q-40 31 -84 31h-369q-48 0 -86 -33zM209 133h375l-95 94h-188zM506 240l94 -95v144l-94 94v-143zM506 834l94 -95v551l-94 -94v-362zM528 389 l82 -84l84 45z" />
<glyph unicode="3" horiz-adv-x="796" d="M61 152v294l248 58v-256h178v348h-170v246h170v346h-178v-254l-248 57v291q0 63 45 107.5t107 44.5h369q63 0 107 -44.5t44 -107.5l2 -422q0 -71 -55 -117q55 -59 55 -122l-2 -469q0 -62 -44 -107t-107 -45h-369q-61 0 -106.5 45t-45.5 107zM82 152q0 -45 33 -86l61 63 v244l-94 49v-270zM82 1016l94 49v242l-61 61q-33 -38 -33 -86v-266zM100 436l84 -45l84 84zM129 1382l61 -61h414l64 63q-43 31 -86 31h-369q-46 0 -84 -33zM209 133h375l-92 94h-189zM338 629l88 88l-88 88v-176zM348 821l94 -92h142l-92 92h-144zM508 240l92 -95v549 l-92 -92v-362zM508 834l92 -95v551l-92 -94v-362z" />
<glyph unicode="4" horiz-adv-x="919" d="M61 594v782l246 58v-594h178v590h244v-590h170v-246h-170v-594h-244v594h-424zM80 627l94 94v582l-94 49v-725zM98 1366l84 -45l84 84zM207 725h375l-95 94h-186zM504 35l94 92v565l-94 -92v-565zM504 831l94 -94v566l-94 92v-564zM518 1409l88 -88l88 88h-176zM631 725 h139l92 94h-137z" />
<glyph unicode="5" horiz-adv-x="796" d="M61 152v294l246 58v-256h178v432h-272q-63 0 -107.5 44t-44.5 107v603h672v-246h-426v-260h275q61 0 106 -45t45 -107v-624q0 -62 -45 -107t-106 -45h-369q-63 0 -107.5 45t-44.5 107zM80 152q0 -45 33 -86l61 63v244l-94 49v-270zM80 831q0 -45 33 -86l61 62v500l-94 94 v-570zM94 1415l94 -94h414l94 94h-602zM98 436l84 -45l84 84zM209 133h375l-95 94h-188zM209 813h395l64 61q-41 33 -86 33h-281zM506 240l94 -95v635l-94 -94v-446z" />
<glyph unicode="6" d="M61 152v1130q0 63 44.5 107.5t107.5 44.5h369q62 0 106.5 -44.5t44.5 -107.5v-55v-236l-248 -57v254h-178v-346h275q62 0 106.5 -44.5t44.5 -107.5v-538q0 -62 -45 -107t-106 -45h-369q-63 0 -107.5 45t-44.5 107zM80 152q0 -45 33 -86l61 63v1178l-61 61 q-33 -38 -33 -86v-1130zM127 1382l61 -61h414l64 63q-40 31 -84 31h-369q-48 0 -86 -33zM209 133h375l-95 94h-188zM209 729h395l64 62q-37 30 -86 30h-281zM307 248h178v348h-178v-348zM506 240l94 -95v549l-94 -92v-362zM506 969l94 94v227l-94 -94v-227z" />
<glyph unicode="7" horiz-adv-x="735" d="M41 1434h653l-250 -1434h-249l211 1188h-318zM70 1395l30 -168l54 84zM78 1415l94 -94h375l108 94h-577zM221 37l109 92l205 1155l-109 -92z" />
<glyph unicode="8" horiz-adv-x="796" d="M61 152v469q0 62 54 122q-54 47 -54 117v422q0 63 44.5 107.5t107.5 44.5h371q63 0 107 -44.5t44 -107.5v-422q0 -70 -53 -117q53 -61 53 -122v-469q0 -62 -44 -107t-107 -45h-371q-63 0 -107.5 45t-44.5 107zM82 152q0 -48 33 -86l61 63v1178l-61 63q-33 -41 -33 -88 v-422q0 -64 49 -104l12 -8l-6 -9q-55 -58 -55 -118v-469zM129 1384l61 -63h414l64 63q-40 31 -84 31h-371q-44 0 -84 -31zM211 133h375l-94 94h-187zM211 729h375l-94 92h-187zM309 248h180v348h-180v-348zM309 842h180v346h-180v-346zM508 240l94 -95v549l-94 -92v-362z M508 834l94 -95v551l-94 -94v-362z" />
<glyph unicode="9" d="M61 152v288l246 39v-231h178v348h-272q-63 0 -107.5 44.5t-44.5 107.5v534q0 63 44.5 107.5t107.5 44.5h369q62 0 106.5 -44.5t44.5 -107.5v-1130q0 -62 -45 -107t-106 -45h-369q-63 0 -107.5 45t-44.5 107zM80 152q0 -45 33 -86l61 63v240l-94 47v-264zM80 748 q0 -48 33 -86l61 61v584l-61 61q-33 -38 -33 -86v-534zM102 428l80 -41l82 66zM127 1382l61 -61h414l64 63q-40 31 -84 31h-369q-48 0 -86 -33zM209 133h375l-95 94h-188zM209 729h375l-95 92h-188zM307 842h178v346h-178v-346zM506 240l94 -95v551l-94 -94v-362zM506 834 l94 -95v551l-94 -94v-362z" />
<glyph unicode=":" horiz-adv-x="368" d="M61 0v248h246v-248h-246zM61 571v248h246v-248h-246zM80 35l90 90l-90 88v-178zM80 606l90 90l-90 88v-178zM96 227l88 -90l90 90h-178zM96 799l88 -90l90 90h-178z" />
<glyph unicode=";" horiz-adv-x="368" d="M61 0v244h246v-264q0 -47 -28.5 -87t-73.5 -57q-12 -4 -33 -6v170h-111zM61 571v248h246v-248h-246zM80 606l90 90l-90 88v-178zM82 31l86 90l-86 88v-178zM94 223l86 -86l90 86h-176zM96 799l88 -90l90 90h-178z" />
<glyph unicode="&#x3c;" horiz-adv-x="737" d="M61 754l437 436l176 -176l-262 -260l264 -265l-176 -176zM100 762h133l256 256v135zM262 743l242 -243h133l-244 243h-131zM508 1026h127l-127 127v-127z" />
<glyph unicode="=" d="M61 412v245h672v-245h-672zM61 780v246h672v-246h-672zM80 446l88 89l-88 88v-177zM80 815l88 88l-88 88v-176zM92 639l94 -94h420l92 94h-606zM92 1008l94 -95h420l92 95h-606z" />
<glyph unicode="&#x3e;" horiz-adv-x="737" d="M61 492l263 262l-261 260l175 176l438 -436l-438 -441zM100 500h131l246 243h-135zM102 1026h125v125zM248 1020l252 -256h137l-389 387v-131z" />
<glyph unicode="?" d="M61 991v291q0 63 44.5 107.5t107.5 44.5h369q62 0 106.5 -44.5t44.5 -107.5v-534q0 -63 -44.5 -107.5t-106.5 -44.5h-105v-252h-246v328v18q0 63 44.5 107.5t107.5 44.5h102v346h-178v-256zM82 1014l92 51v242l-61 61q-31 -36 -31 -86v-268zM127 1382l61 -61h414l64 63 q-37 29 -84 29h-369q-47 0 -86 -31zM231 0v246h246v-246h-246zM252 35l88 90l-88 88v-178zM252 377l92 94v242l-63 63q-29 -40 -29 -86v-51v-262zM266 227l88 -90l90 90h-178zM295 791l61 -62h226l-90 92h-109q-46 0 -88 -30zM506 834l94 -95v551l-94 -94v-362z" />
<glyph unicode="@" horiz-adv-x="1390" d="M61 152v1130q0 63 44.5 107.5t107.5 44.5h965q62 0 106.5 -44.5t44.5 -107.5v-790q0 -49 -27 -87.5t-71 -56.5l-6 -2q-21 -6 -47 -6h-228q-57 0 -112 51q-25 -25 -41 -33l-6 -4q-31 -14 -60 -14h-184q-60 2 -103 45t-43 104v453q0 62 44.5 107t107.5 45h283q63 0 107 -45 t44 -107v-356h94v602h-774v-940h1018v-248h-1112q-63 0 -107.5 45t-44.5 107zM80 152q0 -45 33 -86l61 63v1178l-61 61q-33 -38 -33 -86v-1130zM127 1382l61 -61h1010l64 63q-40 31 -84 31h-965q-48 0 -86 -33zM209 133h991l94 94h-993zM420 489q0 -45 33 -83l61 61v498 l-61 61q-33 -38 -33 -84v-453zM467 1040l61 -61h330l64 63q-43 31 -86 31h-283q-48 0 -86 -33zM547 473h291l-93 92h-104zM647 586h94v260h-94v-260zM762 578l92 -95v465l-92 -94v-276zM889 473h291l-93 92h-104zM1102 578l94 -93v805l-94 -94v-618z" />
<glyph unicode="A" d="M61 0v1282q0 63 44.5 107.5t107.5 44.5h369q62 0 106.5 -44.5t44.5 -107.5v-1282h-248v426h-178v-426h-246zM80 35l94 94v1178l-61 61q-33 -38 -33 -86v-1247zM127 1382l61 -61h414l64 63q-40 31 -84 31h-369q-48 0 -86 -33zM209 559h375l-95 92h-188zM307 672h178v516 h-178v-516zM506 35l94 94v395l-94 -92v-397zM506 664l94 -95v721l-94 -94v-532z" />
<glyph unicode="B" d="M61 0v1434h521q62 0 106.5 -44.5t44.5 -107.5v-422q0 -71 -55 -117q55 -59 55 -122v-469q0 -62 -45 -107t-106 -45h-521zM80 35l94 94v1178l-94 94v-1366zM94 1415l94 -94h414l64 63q-40 31 -84 31h-488zM209 133h375l-95 94h-188zM209 729h373h2l-95 92h-188zM307 248 h178v348h-178v-348zM307 842h178v346h-178v-346zM506 240l94 -95v549l-94 -92v-362zM506 834l94 -95v551l-94 -94v-362z" />
<glyph unicode="C" d="M61 152v1130q0 63 44.5 107.5t107.5 44.5h369q62 0 106.5 -44.5t44.5 -107.5v-291l-248 -57v254h-178v-940h178v280l248 58v-434q0 -62 -45 -107t-106 -45h-369q-63 0 -107.5 45t-44.5 107zM80 152q0 -45 33 -86l61 63v1178l-61 61q-33 -38 -33 -86v-1130zM127 1382 l61 -61h414l64 63q-40 31 -84 31h-369q-48 0 -86 -33zM209 133h375l-95 94h-188zM506 240l94 -95v310l-94 49v-264zM506 969l94 94v227l-94 -94v-227zM524 516l84 -43l82 82z" />
<glyph unicode="D" d="M61 0v1434h521q62 0 106.5 -44.5t44.5 -107.5v-1130q0 -62 -45 -107t-106 -45h-521zM80 35l94 94v1178l-94 94v-1366zM94 1415l94 -94h414l64 63q-40 31 -84 31h-488zM209 133h375l-95 94h-188zM307 248h178v940h-178v-940zM506 240l94 -95v1145l-94 -94v-956z" />
<glyph unicode="E" d="M61 0v1434h672v-246h-426v-346h340v-246h-340v-348h426v-248h-672zM80 35l94 94v1178l-94 94v-1366zM94 1415l94 -94h414l94 94h-602zM209 133h395l94 94h-397zM209 729h311l92 92h-311z" />
<glyph unicode="F" d="M61 0v1434h672v-246h-426v-346h340v-246h-340v-596h-246zM80 35l94 94v1178l-94 94v-1366zM94 1415l94 -94h414l94 94h-602zM209 729h311l92 92h-311z" />
<glyph unicode="G" d="M61 152v1130q0 63 44.5 107.5t107.5 44.5h369q62 0 106.5 -44.5t44.5 -107.5v-291l-248 -57v254h-178v-940h178v262h-133l47 248h183q61 0 106 -45t45 -107v-454q0 -62 -45 -107t-106 -45h-369q-63 0 -107.5 45t-44.5 107zM80 152q0 -45 33 -86l61 63v1178l-61 61 q-33 -38 -33 -86v-1130zM127 1382l61 -61h414l64 63q-40 31 -84 31h-369q-48 0 -86 -33zM209 133h375l-95 94h-188zM379 547l88 86l-53 88zM426 737l59 -94h119l64 62q-40 32 -86 32h-156zM506 240l94 -95v465l-94 -94v-276zM506 969l94 94v227l-94 -94v-227z" />
<glyph unicode="H" d="M61 0v1434h246v-592h178v592h248v-1434h-248v596h-178v-596h-246zM80 35l94 94v1178l-94 94v-1366zM94 1415l88 -88l90 88h-178zM209 729h375l-95 92h-188zM506 35l94 94v565l-94 -92v-567zM506 834l94 -95v568l-94 94v-567zM520 1415l88 -88l88 88h-176z" />
<glyph unicode="I" horiz-adv-x="370" d="M61 0v1434h246v-1434h-246zM82 35l92 94v1178l-92 94v-1366zM96 1415l88 -88l88 88h-176z" />
<glyph unicode="J" horiz-adv-x="796" d="M61 154v295l248 59v-260h178v1186h248v-1280q0 -63 -44 -108.5t-107 -45.5h-371q-63 0 -107.5 45.5t-44.5 108.5zM82 154q0 -50 31 -86l61 61v246l-92 49v-270zM98 438l84 -45l84 84zM209 135h377l-94 94h-189zM508 240l94 -95v1168l-94 94v-1167zM528 1415l82 -82l82 82 h-164z" />
<glyph unicode="K" horiz-adv-x="825" d="M61 0v1434h246v-592h19l188 592h250l-229 -715l229 -719h-248l-186 596h-23v-596h-246zM80 35l94 92v1180l-94 94v-1366zM94 1413l88 -88l90 88h-178zM207 727h184l-65 94h-25zM344 831l64 -94l182 574l-66 92zM346 606l182 -575l62 92l-184 575zM541 1413l63 -88l115 88 h-178z" />
<glyph unicode="L" horiz-adv-x="710" d="M61 0v1434h246v-1186h342v-248h-588zM80 35l94 94v1178l-94 94v-1366zM94 1415l88 -88l88 88h-176zM209 133h311l94 94h-313z" />
<glyph unicode="M" horiz-adv-x="1048" d="M61 0v1434h244l219 -693l219 693h244v-1434h-246v705l-98 -365h-240l-96 365v-705h-246zM80 35l94 94v1178l-94 94v-1366zM94 1415l88 -88l90 88h-178zM223 1210l84 -428l111 -413l84 84zM535 475l305 848l-84 82l-221 -698v-232zM760 35l94 94v1128l-94 -477v-745z M774 1415l88 -88l88 88h-176z" />
<glyph unicode="N" d="M61 0v1434h244l180 -588v588h248v-1434h-246l-180 627v-627h-246zM80 35l94 94v1178l-94 94v-1366zM94 1415l88 -88l90 88h-178zM209 1276l98 -580l193 -667l86 86zM506 780l94 -547v1074l-94 94v-621zM520 1415l88 -88l88 88h-176z" />
<glyph unicode="O" d="M61 152v1130q0 63 44.5 107.5t107.5 44.5h369q62 0 106.5 -44.5t44.5 -107.5v-1130q0 -62 -45 -107t-106 -45h-369q-63 0 -107.5 45t-44.5 107zM80 152q0 -45 33 -86l61 63v1178l-61 61q-33 -38 -33 -86v-1130zM127 1382l61 -61h414l64 63q-40 31 -84 31h-369 q-48 0 -86 -33zM209 133h375l-95 94h-188zM307 248h178v940h-178v-940zM506 240l94 -95v1145l-94 -94v-956z" />
<glyph unicode="P" d="M61 0v1434h521q62 0 106.5 -44.5t44.5 -107.5v-534q0 -63 -44.5 -107.5t-106.5 -44.5h-275v-358v-238h-246zM80 35l94 94v1178l-94 94v-1366zM94 1415l94 -94h414l64 63q-40 31 -84 31h-488zM209 729h375l-95 92h-188zM307 842h178v346h-178v-346zM506 834l94 -95v551 l-94 -94v-362z" />
<glyph unicode="Q" horiz-adv-x="798" d="M61 152v1132q0 62 44.5 106t105.5 44h371q63 0 108 -44t45 -106v-1132q0 -63 -45 -107.5t-108 -44.5h-21v-172h-246v172h-104q-62 0 -106 44.5t-44 107.5zM82 152q0 -42 29 -84l63 59v1180l-63 63q-29 -42 -29 -86v-1132zM125 1384l63 -63h414l66 63q-45 29 -86 29h-371 q-37 0 -86 -29zM207 133h375l-93 92h-186zM307 246h178v942h-178v-942zM336 4v-141l92 92v145zM506 240l94 -95v1145l-94 -96v-954z" />
<glyph unicode="R" horiz-adv-x="808" d="M61 0v1434h521q62 0 105.5 -44.5t43.5 -107.5v-537q0 -43 -23 -79.5t-63 -55.5l103 -610h-246l-101 596h-94v-596h-246zM80 35l94 92v1180l-94 92v-1364zM94 1413l94 -92h414l64 61q-36 31 -84 31h-488zM209 729h373l-93 92h-188zM307 842h178v346h-178v-346zM422 602 l94 -569l80 90l-100 575zM506 834l92 -95v549l-92 -92v-362z" />
<glyph unicode="S" d="M61 152v294l246 58v-256h178v348h-272q-63 0 -107.5 44.5t-44.5 107.5v534q0 63 44.5 107.5t107.5 44.5h369q62 0 106.5 -44.5t44.5 -107.5v-291l-248 -57v254h-178v-346h275q62 0 106.5 -44.5t44.5 -107.5v-538q0 -62 -45 -107t-106 -45h-369q-63 0 -107.5 45t-44.5 107 zM80 152q0 -45 33 -86l61 63v244l-94 49v-270zM80 748q0 -48 33 -86l61 61v584l-61 61q-33 -38 -33 -86v-534zM98 436l84 -45l84 84zM127 1382l61 -61h414l64 63q-40 31 -84 31h-369q-48 0 -86 -33zM209 133h375l-95 94h-188zM209 729h395l64 62q-37 30 -86 30h-281z M506 240l94 -95v549l-94 -92v-362zM506 969l94 94v227l-94 -94v-227z" />
<glyph unicode="T" horiz-adv-x="880" d="M61 1188v246h756v-246h-254v-1188h-248v1188h-254zM80 1225l90 88l-90 88v-176zM94 1415l94 -94h500l92 94h-686zM336 35l94 94v1161l-94 -94v-1161z" />
<glyph unicode="U" d="M61 152v1282h246v-1186h178v1186h248v-1282q0 -62 -45 -107t-106 -45h-369q-63 0 -107.5 45t-44.5 107zM80 152q0 -45 33 -86l61 63v1178l-94 94v-1249zM94 1415l88 -88l88 88h-176zM209 133h375l-95 94h-188zM506 240l94 -95v1162l-94 94v-1161zM520 1415l88 -88l88 88 h-176z" />
<glyph unicode="V" horiz-adv-x="796" d="M61 1434h248l76 -1186h27l75 1186h248l-96 -1434h-481zM84 1399l90 -1364l86 92l-84 1180zM96 1415l88 -88l88 88h-176zM293 133h209l-88 94h-33zM430 238l88 -93l82 1162l-94 94zM522 1415l88 -88l88 88h-176z" />
<glyph unicode="W" horiz-adv-x="1261" d="M61 1434h246l21 -1186h26l154 1186h244l157 -1186h25l18 1186h248l-39 -1434h-467l-63 592l-64 -592h-469zM82 1399l35 -1364l86 92l-31 1180zM94 1415l88 -90l88 90h-176zM236 133h198l-82 94h-30zM373 236l73 -86l162 1167l-84 88zM543 1415l86 -90l92 90h-178z M637 1257l2 -573l72 -651l86 98zM825 133h201l-88 94h-31zM952 242l86 -92l29 1159l-94 94zM989 1415l88 -90l90 90h-178z" />
<glyph unicode="X" horiz-adv-x="858" d="M61 0l224 719l-224 715h258l111 -373l109 373h258l-224 -715l224 -719h-256l-111 385l-113 -385h-256zM92 35l127 94l191 588l-191 588l-127 96l213 -682zM106 1415l117 -90l70 90h-187zM438 422l115 -389l68 90l-183 561v-262zM438 752l183 559l-70 92l-113 -379v-272z M565 1415l70 -90l117 90h-187z" />
<glyph unicode="Y" horiz-adv-x="841" d="M61 1434h250l111 -426l108 426h250l-235 -830v-604h-248v604zM92 1401l225 -795v-571l95 94v514l-201 662zM104 1415l111 -88l70 88h-181zM430 713l182 598l-69 92l-113 -436v-254zM557 1415l70 -88l110 88h-180z" />
<glyph unicode="Z" horiz-adv-x="800" d="M61 0l351 1188h-346v246h673l-350 -1186h348v-248h-676zM86 1225l88 88l-88 88v-176zM92 37l119 90l348 1159l-125 -96zM98 1415l95 -94h380l121 94h-596zM252 133h356l94 94h-329z" />
<glyph unicode="[" horiz-adv-x="552" d="M82 -244v1923h410v-245h-166v-1434h166v-244h-410zM102 -211l93 92v1671l-93 93v-1856zM117 1659l90 -92h160l90 92h-340zM227 -113h142l90 93h-140z" />
<glyph unicode="\" horiz-adv-x="679" d="M0 1434h250l430 -1434h-248zM33 1397l409 -1364l66 88l-358 1186zM43 1415l113 -88l67 88h-180z" />
<glyph unicode="]" horiz-adv-x="552" d="M61 0h168v1434h-168v243h410v-1921h-410v244zM82 -35v-178l88 90zM82 1466l88 90l-88 89v-179zM94 -20l94 -93h140l-92 93h-142zM98 1657l92 -92h158l90 92h-340zM250 -6l92 -92v1628l-92 -92v-1444z" />
<glyph unicode="_" horiz-adv-x="800" d="M20 0h760v-248h-760v248zM41 -35v-178l88 88zM51 -20l94 -95h508l95 95h-697z" />
<glyph unicode="a" d="M61 0v942q0 63 44.5 107.5t107.5 44.5h369q63 0 107 -44.5t44 -107.5v-942h-246v254h-180v-254h-246zM82 33l92 94v840l-61 61q-31 -40 -31 -86v-909zM127 1042l61 -61h416l62 63q-40 31 -84 31h-369q-48 0 -86 -33zM209 387h375l-95 94h-186zM307 502h180v346h-180v-346 zM506 33l94 94v227l-94 -92v-229zM506 494l94 -95v551l-94 -94v-362z" />
<glyph unicode="b" d="M61 0v1094h521q63 0 107 -44.5t44 -107.5v-115v-137q0 -70 -53 -117q53 -60 53 -124v-99v-198q0 -63 -44 -107.5t-107 -44.5h-521zM82 33l92 94v840l-92 94v-1028zM96 1075l92 -94h416l62 63q-40 31 -84 31h-486zM209 133h375l-95 94h-186zM209 557h375l-95 94h-186z M307 246h180v178h-180v-178zM307 672h180v176h-180v-176zM506 238l94 -95v381l-94 -94v-192zM506 664l94 -95v381l-94 -94v-192z" />
<glyph unicode="c" d="M61 152v790q0 63 44.5 107.5t107.5 44.5h369q63 0 107 -44.5t44 -107.5v-207l-246 -57v170h-180v-602h180v196l246 58v-348q0 -63 -44 -107.5t-107 -44.5h-369q-63 0 -107.5 44.5t-44.5 107.5zM82 152q0 -46 31 -86l61 61v840l-61 61q-31 -40 -31 -86v-790zM127 1042 l61 -61h416l62 63q-40 31 -84 31h-369q-48 0 -86 -33zM209 133h375l-95 94h-186zM506 238l94 -95v226l-94 49v-180zM506 713l94 94v143l-94 -94v-143zM524 430l84 -43l84 82z" />
<glyph unicode="d" d="M61 0v1094h521q63 0 107 -44.5t44 -107.5v-790q0 -63 -44 -107.5t-107 -44.5h-521zM82 35l92 92v840l-92 94v-1026zM96 1075l92 -94h414l64 63q-40 31 -84 31h-486zM209 133h375l-95 94h-188zM307 248h178v600h-178v-600zM506 238l94 -93v805l-94 -94v-618z" />
<glyph unicode="e" d="M61 0v1094h672v-246h-426v-176h340v-248h-340v-178h426v-246h-672zM82 33l92 94v840l-92 94v-1028zM96 1075l92 -94h416l92 94h-600zM209 133h397l92 94h-395zM209 557h311l94 94h-311z" />
<glyph unicode="f" d="M61 0v1094h672v-246h-426v-176h340v-246h-340v-426h-246zM82 35l92 94v838l-92 94v-1026zM96 1075l92 -94h414l94 94h-600zM209 559h311l94 92h-313z" />
<glyph unicode="g" d="M61 152v790q0 63 44.5 107.5t107.5 44.5h369q63 0 107 -44.5t44 -107.5v-207l-248 -57v170h-178v-600h178v92h-131l45 248h183q63 0 107 -45t44 -107v-284q0 -62 -44 -107t-107 -45h-369q-63 0 -107.5 45t-44.5 107zM82 152q0 -43 31 -86l61 63v838l-61 61 q-31 -40 -31 -86v-790zM127 1042l61 -61h414l64 63q-40 31 -84 31h-369q-48 0 -86 -33zM209 133h375l-95 94h-188zM381 377l88 86l-55 88zM426 567l59 -94h121l62 62q-40 32 -86 32h-156zM506 240l94 -95v295l-94 -94v-106zM506 715l94 92v143l-94 -94v-141z" />
<glyph unicode="h" d="M61 0v1094h246v-422h178v422h248v-1094h-248v426h-178v-426h-246zM82 35l92 94v838l-92 94v-1026zM96 1075l88 -88l88 88h-176zM209 559h375l-95 92h-188zM506 35l94 94v395l-94 -92v-397zM506 664l94 -95v398l-94 94v-397zM520 1075l88 -88l88 88h-176z" />
<glyph unicode="i" horiz-adv-x="368" d="M61 0v1094h246v-1094h-246zM82 35l92 94v838l-92 94v-1026zM96 1075l88 -88l88 88h-176z" />
<glyph unicode="j" horiz-adv-x="800" d="M61 154v297l248 57v-260h180v846h248v-940q0 -63 -45 -108.5t-108 -45.5h-371q-63 0 -107.5 45.5t-44.5 108.5zM82 154q0 -46 31 -86l63 61v246l-94 51v-272zM100 438l84 -45l84 84zM209 135h377l-94 94h-189zM508 240l94 -95v828l-94 94v-827zM530 1075l82 -82l82 82 h-164z" />
<glyph unicode="k" horiz-adv-x="790" d="M61 0v1094h246v-422h27l180 422h254l-233 -545l233 -549h-248l-184 426h-29v-426h-246zM82 35l92 94v838l-92 94v-1026zM96 1075l88 -88l88 88h-176zM207 557h182l-55 94h-33zM352 438l178 -407l64 92l-191 405zM352 662l51 -93l177 406l-58 88zM539 1075l55 -86l125 86 h-180z" />
<glyph unicode="l" horiz-adv-x="710" d="M61 0v1094h246v-846h342v-248h-588zM82 35l92 94v838l-92 94v-1026zM96 1075l88 -88l88 88h-176zM209 133h311l94 94h-313z" />
<glyph unicode="m" horiz-adv-x="1214" d="M61 0v1092h940q63 0 107.5 -44.5t44.5 -107.5v-940h-248v846h-174v-846h-246v846h-178v-846h-246zM82 33l92 92v840l-92 92v-1024zM94 1073l94 -94h836l61 63q-40 31 -84 31h-907zM504 33l94 92v823l-94 -94v-821zM926 33l94 92v823l-94 -94v-821z" />
<glyph unicode="n" d="M61 0v1094h521q63 0 107 -44.5t44 -107.5v-942h-248v848h-178v-848h-246zM82 35l92 94v838l-92 94v-1026zM96 1075l92 -94h414l64 63q-40 31 -84 31h-486zM506 35l94 94v821l-94 -94v-821z" />
<glyph unicode="o" d="M61 152v790q0 63 44.5 107.5t107.5 44.5h369q63 0 107 -44.5t44 -107.5v-790q0 -62 -44 -107t-107 -45h-369q-63 0 -107.5 45t-44.5 107zM82 152q0 -43 31 -86l61 63v838l-61 61q-31 -40 -31 -86v-790zM127 1042l61 -61h414l64 63q-40 31 -84 31h-369q-48 0 -86 -33z M209 133h375l-95 94h-188zM307 248h178v600h-178v-600zM506 240l94 -95v805l-94 -94v-616z" />
<glyph unicode="p" d="M61 0v1094h521q63 0 107 -44.5t44 -107.5v-364q0 -63 -44 -107.5t-107 -44.5h-275v-426h-246zM82 35l92 94v838l-92 94v-1026zM96 1075l92 -94h414l64 63q-40 31 -84 31h-486zM209 559h375l-95 92h-188zM307 672h178v176h-178v-176zM506 664l94 -95v381l-94 -94v-192z " />
<glyph unicode="q" d="M61 152v790q0 63 44.5 107.5t107.5 44.5h369q63 0 107 -44.5t44 -107.5v-790q0 -63 -44 -107.5t-107 -44.5h-21v-172h-246v172h-102q-63 0 -107.5 44.5t-44.5 107.5zM82 152q0 -46 31 -86l61 61v840l-61 61q-31 -40 -31 -86v-790zM127 1042l61 -61h416l62 63 q-40 31 -84 31h-369q-48 0 -86 -33zM209 133h375l-95 94h-186zM307 246h180v602h-180v-602zM336 4v-141l92 92v143zM506 238l94 -93v805l-94 -94v-618z" />
<glyph unicode="r" horiz-adv-x="802" d="M61 0v1092h521q63 0 107 -44t44 -106v-367q0 -44 -23.5 -81t-62.5 -56l94 -438h-254l-84 424h-96v-424h-246zM82 33l92 94v838l-92 94v-1026zM96 1073l92 -94h414l64 63q-40 31 -84 31h-486zM209 557h375l-95 94h-188zM307 670h178v176h-178v-176zM422 432l78 -401l88 92 l-90 405zM506 662l94 -93v379l-94 -94v-192z" />
<glyph unicode="s" d="M61 152v124l246 60v-88h178v178h-272q-63 0 -107.5 44.5t-44.5 107.5v366q0 62 44.5 106t107.5 44h369q63 0 107 -44t44 -106v-123l-248 -57v84h-178v-176h275q63 0 107 -44.5t44 -107.5v-368q0 -62 -44 -107t-107 -45h-369q-63 0 -107.5 45t-44.5 107zM82 152 q0 -44 31 -84l61 61v74l-92 51v-102zM82 578q0 -46 31 -86l61 61v414l-61 61q-31 -40 -31 -84v-366zM98 266l84 -45l84 84zM127 1042l61 -61h414l64 63q-40 31 -84 31h-369q-48 0 -86 -33zM209 133h375l-95 94h-188zM209 559h397l62 62q-40 32 -86 32h-281zM506 240l94 -95 v379l-94 -92v-192zM506 799l94 94v57l-94 -94v-57z" />
<glyph unicode="t" horiz-adv-x="880" d="M61 848v246h756v-246h-254v-848h-248v848h-254zM82 885l88 88l-88 88v-176zM96 1075l92 -94h500l94 94h-686zM336 35l94 94v821l-94 -94v-821z" />
<glyph unicode="u" horiz-adv-x="796" d="M61 152v942h246v-846h178v846h248v-942q0 -62 -44 -107t-107 -45h-369q-63 0 -107.5 45t-44.5 107zM82 152q0 -43 31 -86l61 63v838l-92 94v-909zM94 1075l90 -88l88 88h-178zM209 133h375l-95 94h-188zM506 240l94 -95v822l-94 94v-821zM520 1075l88 -88l88 88h-176z " />
<glyph unicode="v" d="M61 1094h246l78 -846h27l75 846h246l-94 -1094h-483zM84 1059l90 -1026l86 94l-76 840zM96 1075l97 -88l81 88h-178zM293 133h207l-86 94h-35zM430 238l86 -93l76 822l-88 92zM518 1073l82 -88l96 88h-178z" />
<glyph unicode="w" horiz-adv-x="1214" d="M61 1094h246l10 -846h29l143 846h234l147 -846h25l12 846h246l-29 -1094h-452l-66 371l-63 -371h-453zM82 1059l27 -1024l86 92l-21 840zM94 1075l88 -90l90 90h-178zM227 133h193l-76 94h-31zM362 236l70 -86l152 829l-80 82zM518 1075l88 -92l92 92h-180zM616 430 l70 -399l78 98l-148 809v-508zM795 133h192l-86 94h-31zM915 242l86 -95l21 820l-96 96zM944 1073l88 -88l88 88h-176z" />
<glyph unicode="x" horiz-adv-x="770" d="M61 0l177 547l-177 547l248 -2l76 -236l76 236h248l-177 -545l177 -547h-263l-61 238l-61 -238h-263zM90 1067l168 -520l-166 -514l129 94l133 418l-135 420zM115 1073l110 -88l58 88h-168zM395 279l64 -248l69 92l-133 420v-264zM395 547l135 422l-59 90l-76 -238v-274z M487 1073l58 -88l110 88h-168z" />
<glyph unicode="y" horiz-adv-x="770" d="M61 1094h250l68 -258l80 258h250l-207 -660v-434h-248v434zM92 1061l182 -625v-401l95 94v346l-158 490zM104 1075l111 -88l70 88h-181zM387 535l154 436l-72 92l-82 -266v-262zM485 1075l68 -88l111 88h-179z" />
<glyph unicode="z" horiz-adv-x="802" d="M61 0l324 848h-319v246h675l-323 -846h319v-248h-676zM86 885l88 88l-88 88v-176zM96 37l135 96l314 815l-135 -94zM100 1075l95 -94h362l135 94h-592zM266 133h344l92 94h-303z" />
<glyph unicode="{" horiz-adv-x="700" d="M61 596v246h168v686q0 63 44 107t106 44h260v-245h-166v-1434h166v-244h-260q-62 0 -106 43.5t-44 106.5v690h-168zM80 629l88 90l-88 86v-176zM92 821l92 -92h142l-93 92h-141zM250 -94q0 -50 31 -86l61 61v813l-92 -94v-694zM250 834l92 -95v813l-61 62 q-31 -36 -31 -86v-694zM295 1628l59 -61h160l90 92h-225q-44 0 -84 -31zM375 -113h141l90 93h-139z" />
<glyph unicode="|" horiz-adv-x="360" d="M61 -94v1630h238v-1630h-238zM80 -61l90 90v1384l-90 90v-1564zM94 1518l84 -86l86 86h-170z" />
<glyph unicode="}" horiz-adv-x="702" d="M61 0h168v1434h-168v243h263q60 0 103.5 -44t43.5 -107v-688h170v-242h-170v-690q0 -63 -43.5 -106.5t-103.5 -43.5h-263v244zM82 -35v-178l88 90zM82 1466l88 90l-88 89v-179zM94 -20l94 -93h140l-92 93h-142zM98 1657l92 -92h158l60 61q-43 31 -84 31h-226zM250 -6 l92 -92v1628l-92 -92v-1444zM375 727h141l94 92h-141z" />
<glyph unicode="&#xa1;" horiz-adv-x="368" d="M61 -170v1092h246v-1092h-246zM61 1018v246h246v-246h-246zM82 -135l92 92v838l-92 94v-1024zM82 1053l88 88l-88 90v-178zM94 903l90 -88l88 88h-178zM96 1245l88 -90l90 90h-178z" />
<glyph unicode="&#xa2;" horiz-adv-x="878" d="M61 406v620q0 63 44.5 107.5t107.5 44.5h102v256h246v-256h105q63 0 107 -44.5t44 -107.5v-207l-246 -57v170h-264v-432h264v112l246 58v-264q0 -63 -44 -107.5t-107 -44.5h-105v-254h-246v254h-102q-63 0 -107.5 44.5t-44.5 107.5zM80 406q0 -49 33 -87l61 62v670 l-61 61q-33 -38 -33 -86v-620zM127 1126l61 -61h230l-96 92h-109q-50 0 -86 -31zM209 387h459l-95 94h-272zM336 33l92 94v227l-92 -94v-227zM336 1174l92 -97v230l-92 92v-225zM348 1413l90 -88l88 88h-178zM457 1065h231l62 61q-36 31 -84 31h-113zM590 492l94 -93v138 l-94 51v-96zM590 799l94 92v141l-94 -92v-141zM608 600l84 -45l84 84z" />
<glyph unicode="&#xa3;" horiz-adv-x="962" d="M61 0v248h170v262h-170v248h170v524q0 63 44.5 107.5t107.5 44.5h369q62 0 105.5 -44.5t43.5 -107.5v-209l-246 -59v174h-178v-430h254v-248h-254v-262h424v-248h-840zM80 35l88 88l-88 88v-176zM80 545l88 88l-88 88v-176zM92 227l94 -94h144l-97 94h-141zM92 737 l94 -94h144l-97 94h-141zM250 240l94 -97v469l-94 -94v-278zM250 750l94 -97v654l-61 61q-33 -38 -33 -86v-532zM297 1382l61 -61h414l64 63q-40 31 -84 31h-369q-48 0 -86 -33zM373 643h233l92 94h-227zM377 133h397l94 94h-397zM676 1053l92 94v143l-92 -94v-143z" />
<glyph unicode="&#xa5;" horiz-adv-x="843" d="M61 1434h250l111 -269l110 269h250l-233 -592h168v-246h-170v-94h170v-246h-172v-256h-246v256h-168v246h168v94h-168v246h166zM96 1401l223 -565l93 -95v117l-179 447zM111 1415l125 -88l53 88h-178zM152 289l88 88l-88 88v-176zM152 629l88 88l-88 88v-176zM162 481 l94 -92h143l-94 92h-143zM162 821l94 -92h143l-94 92h-143zM319 35l93 94v225l-93 -94v-225zM319 496l93 -95v293l-93 -94v-104zM432 913l164 400l-55 90l-109 -266v-224zM444 389h144l94 92h-141zM444 729h144l94 92h-141zM557 1415l53 -88l125 88h-178z" />
<glyph unicode="&#xa7;" d="M61 -2v102v109l246 57v-172h180v264h-274q-63 0 -107.5 44.5t-44.5 107.5v874q0 63 44.5 107.5t107.5 44.5h369q63 0 107 -44.5t44 -107.5v-206l-246 -58v170h-180v-260h275q63 0 107 -44.5t44 -106.5v-881q0 -62 -44 -107t-107 -45h-369q-63 0 -107.5 45t-44.5 107z M82 -2q0 -44 31 -84l61 61v160l-92 49v-84v-102zM82 510q0 -46 31 -86l61 61v924l-61 61q-31 -40 -31 -86v-874zM98 197l84 -43l84 82zM127 1485l61 -62h416l62 64q-40 31 -84 31h-369q-48 0 -86 -33zM209 -20h375l-95 94h-186zM209 492h375l-92 90h-193zM209 915h397l62 62 q-38 33 -86 33h-279zM307 602h180v178h-180v-178zM506 86l94 -94v465l-94 -95v-276zM506 596l94 -94v381l-94 -95v-192zM506 1157l94 92v144l-94 -95v-141z" />
<glyph unicode="&#xa9;" horiz-adv-x="1388" d="M61 152v1130q0 63 44.5 107.5t107.5 44.5h963q63 0 107 -44.5t44 -107.5v-1130q0 -62 -44 -107t-107 -45h-963q-63 0 -107.5 45t-44.5 107zM82 152q0 -43 31 -86l61 63v1178l-61 61q-31 -40 -31 -86v-1130zM127 1382l61 -61h1010l64 63q-43 31 -86 31h-963q-48 0 -86 -33 zM209 133h969l-93 94h-784zM307 248h774v940h-774v-940zM401 492v450q0 63 44.5 107.5t107.5 44.5h285q62 0 105.5 -44.5t43.5 -107.5v-121l-246 -57v84h-92v-260h92v43l246 53v-192q0 -62 -44 -107t-105 -45h-285q-63 0 -107.5 45t-44.5 107zM422 492q0 -43 31 -86l63 63 v498l-63 61q-31 -40 -31 -86v-450zM467 1042l61 -61h330l64 63q-40 31 -84 31h-285q-45 0 -86 -33zM549 473h289l-93 94h-102zM762 580l92 -95v68l-92 53v-26zM762 799l92 94v57l-92 -94v-57zM778 618l84 -47l84 84zM1102 240l92 -95v1145l-92 -94v-956z" />
<glyph unicode="&#xab;" horiz-adv-x="1128" d="M20 567l355 355l176 -177l-180 -178l182 -182l-176 -176zM59 575h134l174 175v135zM221 557l160 -162h133l-162 162h-131zM385 758h127l-127 127v-127zM535 567l354 355l176 -177l-180 -178l182 -182l-176 -176zM573 575h134l174 175v135zM735 557l160 -162h133l-162 162 h-131zM899 758h127l-127 127v-127z" />
<glyph unicode="&#xad;" horiz-adv-x="622" d="M61 424v246h500v-246h-500zM80 457l88 88l-88 88v-176zM92 649l94 -94h248l92 94h-434z" />
<glyph unicode="&#xae;" horiz-adv-x="1388" d="M61 152v1130q0 63 44.5 107.5t107.5 44.5h963q63 0 107 -44.5t44 -107.5v-1130q0 -62 -44 -107t-107 -45h-963q-63 0 -107.5 45t-44.5 107zM82 152q0 -43 31 -86l61 63v1178l-61 61q-31 -40 -31 -86v-1130zM127 1382l61 -61h1010l64 63q-43 31 -86 31h-963q-48 0 -86 -33 zM209 133h969l-93 94h-784zM307 248h774v940h-774v-940zM401 342v754h435q63 0 107 -44.5t44 -107.5v-280q0 -82 -67 -127q-12 -8 -21 -11l23 -184h-236l-14 170h-25v-170h-246zM422 375l92 94v500l-92 92v-686zM436 1075l92 -94h330l64 63q-43 31 -86 31h-400zM549 645h289 l-93 92h-102zM647 758h94v90h-94v-90zM690 520l12 -145l80 92l-20 145zM762 750l92 -95v295l-92 -94v-106zM1102 240l92 -95v1145l-92 -94v-956z" />
<glyph unicode="&#xb0;" horiz-adv-x="708" d="M61 1257v281q0 63 44.5 107.5t107.5 44.5h283q63 0 107 -44.5t44 -107.5v-281q0 -63 -44 -107t-107 -44h-283q-63 0 -107.5 44t-44.5 107zM82 1257q0 -45 33 -83l59 59v330l-59 59q-33 -38 -33 -84v-281zM129 1636l59 -59h330l62 61q-36 31 -84 31h-283q-46 0 -84 -33z M209 1239h289l-95 94h-100zM307 1352h94v92h-94v-92zM422 1346l92 -95v293l-92 -92v-106z" />
<glyph unicode="&#xb1;" horiz-adv-x="876" d="M61 727v246h254v254h246v-254h254v-246h-254v-254h-246v254h-254zM63 135v246h752v-246h-752zM82 168l88 88l-88 88v-176zM82 760l88 88l-88 88v-176zM94 360l92 -92h502l94 92h-688zM94 952l92 -92h228l-95 92h-225zM336 508l94 92v225l-94 -92v-225zM336 965l94 -95 v228l-94 92v-225zM348 1206l90 -90l90 90h-180zM463 860h227l92 92h-227z" />
<glyph unicode="&#xb6;" horiz-adv-x="1048" d="M61 1001v281q0 63 44.5 107.5t107.5 44.5h774v-1434h-246v1188h-94v-1188h-246v850h-188q-63 0 -107.5 44t-44.5 107zM82 1001q0 -43 31 -86l61 62v330l-61 61q-31 -40 -31 -86v-281zM127 1382l61 -61h670l92 94h-737q-48 0 -86 -33zM209 983h289l-92 94h-105zM307 1098 h94v90h-94v-90zM420 35l94 94v821l-94 -94v-821zM422 1090l92 -95v295l-92 -94v-106zM760 35l94 94v1161l-94 -94v-1161z" />
<glyph unicode="&#xb7;" horiz-adv-x="368" d="M61 571v248h246v-248h-246zM80 606l90 90l-90 88v-178zM96 799l88 -90l90 90h-178z" />
<glyph unicode="&#xbb;" horiz-adv-x="1128" d="M61 387l181 180l-179 178l175 177l356 -355l-356 -358zM100 395h131l164 162h-135zM102 758h125v125zM248 752l170 -174h137l-307 305v-131zM575 387l181 180l-178 178l174 177l356 -355l-356 -358zM614 395h131l164 162h-135zM616 758h125v125zM762 752l170 -174h137 l-307 305v-131z" />
<glyph unicode="&#xbc;" horiz-adv-x="1654" d="M61 1393l406 59v-772h-246v491l-100 -14zM90 1356l43 -164l49 94zM98 1378l99 -78l145 27l88 103zM188 0l762 1434h254l-760 -1434h-256zM231 41l123 82l643 1192l-41 88zM240 715l94 94v479l-94 -106v-467zM901 256v444l248 60v-258h94v254h244v-254h86v-246h-86v-256 h-244v256h-342zM922 289l94 92v248l-94 49v-389zM940 690l82 -45l86 86zM971 1415l41 -88l139 88h-180zM1049 387h288l-92 94h-102zM1262 35l92 94v225l-92 -90v-229zM1262 494l92 -93v226l-92 92v-225zM1276 735l86 -88l90 88h-176zM1391 387h53l92 96h-53z" />
<glyph unicode="&#xbd;" horiz-adv-x="1568" d="M61 1393l406 59v-772h-246v494l-100 -17zM90 1358l41 -164l51 92zM98 1378l99 -78l145 29l88 101zM188 0l762 1434h256l-764 -1434h-254zM231 41l123 82l643 1194l-41 86zM240 717l94 92v479l-94 -104v-467zM903 0v342q0 63 44 107.5t108 44.5h205v22h-357v80 q0 62 44 105.5t108 43.5h280q63 0 107.5 -43.5t44.5 -105.5v-180q0 -63 -44.5 -107.5t-107.5 -44.5h-205v-24h357v-240h-584zM922 35l84 90v252l-50 55q-34 -37 -34 -90v-307zM922 551l88 80l-52 53q-36 -36 -36 -88v-45zM971 444l53 -55h319l-79 84h-209q-47 0 -84 -29z M971 1415l41 -86l139 86h-180zM973 698l55 -57h336l53 59q-39 27 -82 27h-280q-50 0 -82 -29zM1044 133h318l90 84h-328zM1278 487l86 -90v215l-86 -90v-35z" />
<glyph unicode="&#xbe;" horiz-adv-x="1753" d="M61 831v78h359v31h-146l-34 227h180v29h-359v78q0 63 45 107t107 44h285q63 0 107 -44t44 -107v-78q0 -69 -51 -113q51 -74 51 -125v-127q0 -63 -44 -107t-107 -44h-285q-62 0 -107 44t-45 107zM82 831q0 -48 33 -86l51 54l-84 78v-46zM82 1229l90 82l-53 53 q-37 -37 -37 -90v-45zM98 889l82 -76h322l-76 76h-328zM133 1378l57 -57h334l54 57q-39 27 -80 27h-285q-41 0 -80 -27zM266 1130l23 -155l53 80zM276 1147l84 -82h142l-84 82h-142zM287 0l760 1434h256l-762 -1434h-254zM330 41l123 82l643 1192l-43 88zM438 905l86 -86 v221l-86 -86v-49zM438 1155l86 -84v219l-86 -92v-43zM999 256v446l246 58v-258h94v252h246v-252h86v-246h-86v-256h-246v256h-340zM1020 289l92 94v246l-92 49v-389zM1038 690l82 -45l84 84zM1069 1415l41 -86l139 86h-180zM1147 389h289l-93 92h-102zM1360 35l92 94v225 l-92 -92v-227zM1360 494l92 -95v228l-92 94v-227zM1374 735l88 -88l88 88h-176zM1487 389h53l94 94h-53z" />
<glyph unicode="&#xbf;" d="M61 152v536q0 63 44.5 107.5t107.5 44.5h102v254h248v-351q0 -61 -44.5 -106t-106.5 -45h-105v-344h178v198l248 78v-372q0 -62 -45 -107t-106 -45h-369q-63 0 -107.5 45t-44.5 107zM80 152q0 -46 35 -86l59 59v590l-59 59q-35 -40 -35 -86v-536zM129 788l61 -61h228 l-94 92h-111q-48 0 -84 -31zM211 133h375l-94 94h-187zM315 1188v246h248v-246h-248zM336 836l94 -93v226l-94 94v-227zM336 1223l90 88l-90 90v-178zM350 1415l90 -90l88 90h-178zM352 1075l88 -88l88 88h-176zM506 242l94 -95v226l-94 49v-180zM522 436l84 -45l86 98z" />
<glyph unicode="&#xc6;" horiz-adv-x="1218" d="M61 0v1282q0 63 44.5 107.5t107.5 44.5h944v-246h-424v-346h340v-246h-340v-348h424v-248h-672v426h-178v-426h-246zM82 35l92 94v1178l-61 61q-31 -40 -31 -86v-1247zM127 1382l61 -61h840l94 94h-909q-48 0 -86 -33zM209 559h375l-95 92h-188zM307 672h178v516h-178 v-516zM506 35l94 94v395l-94 -92v-397zM506 664l94 -95v721l-94 -94v-532zM633 133h397l94 94h-397zM633 729h311l94 92h-311z" />
<glyph unicode="&#xd7;" horiz-adv-x="823" d="M61 543l177 178l-175 180l175 174l174 -174l176 174l172 -174l-176 -180l178 -178l-174 -178l-176 178l-174 -178zM100 551h136l161 160h-141zM102 907h129v129zM244 909l157 -161v139l-157 149v-127zM422 750l156 151v135l-156 -149v-137zM428 711l160 -160h135 l-158 160h-137zM594 907h125l-125 127v-127z" />
<glyph unicode="&#xe6;" horiz-adv-x="1218" d="M61 0v942q0 63 44.5 107.5t107.5 44.5h944v-246h-426v-176h340v-246h-340v-178h426v-248h-672v256h-178v-256h-246zM82 35l92 92v840l-59 61q-33 -33 -33 -86v-907zM127 1042l61 -61h840l92 92h-907q-47 0 -86 -31zM209 389h375l-95 94h-188zM307 502h178v346h-178v-346z M506 35l94 92v227l-94 -92v-227zM506 494l94 -93v549l-94 -94v-362zM633 133h397l92 94h-395zM633 559h311l94 92h-311z" />
<glyph unicode="&#xf7;" horiz-adv-x="1048" d="M61 596v246h926v-246h-926zM82 631l88 88l-88 88v-176zM92 821l94 -92h672l94 92h-860zM403 266v248h246v-248h-246zM403 922v247h246v-247h-246zM422 301l90 90l-90 88v-178zM422 956l90 91l-90 88v-179zM438 494l88 -91l90 91h-178zM438 1149l88 -90l90 90h-178z" />
<glyph unicode="&#x152;" horiz-adv-x="1218" d="M61 152v1130q0 63 44.5 107.5t107.5 44.5h944v-246h-424v-346h340v-246h-340v-348h424v-248h-944q-63 0 -107.5 45t-44.5 107zM80 152q0 -45 33 -86l61 63v1178l-61 61q-33 -38 -33 -86v-1130zM127 1382l61 -61h840l92 94h-907q-48 0 -86 -33zM209 133h375l-95 94h-188z M307 248h178v940h-178v-940zM506 240l94 -95v1145l-94 -94v-956zM633 133h397l92 94h-395zM633 729h311l94 92h-311z" />
<glyph unicode="&#x153;" horiz-adv-x="1218" d="M61 152v790q0 63 44.5 107.5t107.5 44.5h944v-246h-424v-176h340v-246h-340v-178h424v-248h-944q-63 0 -107.5 45t-44.5 107zM82 152q0 -43 31 -86l61 63v838l-61 61q-31 -40 -31 -86v-790zM127 1042l61 -61h840l92 94h-907q-48 0 -86 -33zM209 133h375l-95 94h-188z M307 248h178v600h-178v-600zM506 240l94 -95v805l-94 -94v-616zM633 133h397l94 94h-397zM633 559h311l94 92h-311z" />
<glyph unicode="&#x2c6;" horiz-adv-x="876" d="M61 1290l377 379l377 -377l-186 -186l-191 192l-190 -192zM102 1303h144l182 184v141zM449 1487l186 -184h139l-325 325v-141z" />
<glyph unicode="&#x2000;" horiz-adv-x="845" />
<glyph unicode="&#x2001;" horiz-adv-x="1690" />
<glyph unicode="&#x2002;" horiz-adv-x="845" />
<glyph unicode="&#x2003;" horiz-adv-x="1690" />
<glyph unicode="&#x2004;" horiz-adv-x="563" />
<glyph unicode="&#x2005;" horiz-adv-x="422" />
<glyph unicode="&#x2006;" horiz-adv-x="281" />
<glyph unicode="&#x2007;" horiz-adv-x="281" />
<glyph unicode="&#x2008;" horiz-adv-x="211" />
<glyph unicode="&#x2009;" horiz-adv-x="338" />
<glyph unicode="&#x200a;" horiz-adv-x="93" />
<glyph unicode="&#x2010;" horiz-adv-x="622" d="M61 424v246h500v-246h-500zM80 457l88 88l-88 88v-176zM92 649l94 -94h248l92 94h-434z" />
<glyph unicode="&#x2011;" horiz-adv-x="622" d="M61 424v246h500v-246h-500zM80 457l88 88l-88 88v-176zM92 649l94 -94h248l92 94h-434z" />
<glyph unicode="&#x2012;" horiz-adv-x="622" d="M61 424v246h500v-246h-500zM80 457l88 88l-88 88v-176zM92 649l94 -94h248l92 94h-434z" />
<glyph unicode="&#x2013;" d="M61 424v246h672v-246h-672zM80 459l88 88l-88 88v-176zM92 651l94 -94h420l92 94h-606z" />
<glyph unicode="&#x2014;" horiz-adv-x="1048" d="M61 424v246h926v-246h-926zM82 459l88 88l-88 88v-176zM92 649l94 -92h672l94 92h-860z" />
<glyph unicode="&#x2018;" horiz-adv-x="368" d="M61 1171v263h246v-242h-112v-172q-27 6 -33 8q-44 15 -72.5 55.5t-28.5 87.5zM82 1225l88 88l-88 86v-174zM94 1415l90 -88l88 88h-178z" />
<glyph unicode="&#x2019;" horiz-adv-x="368" d="M61 1190v244h246v-234v-31q0 -47 -28.5 -86.5t-73.5 -56.5q-12 -4 -33 -6v170h-111zM82 1221l86 90l-86 88v-178zM94 1413l86 -86l90 86h-176z" />
<glyph unicode="&#x201a;" horiz-adv-x="368" d="M61 -68v244h246v-233v-31q0 -47 -28.5 -86.5t-73.5 -56.5q-16 -5 -33 -7v170h-111zM82 -37l86 90l-86 88v-178zM94 156l86 -86l90 86h-176z" />
<glyph unicode="&#x201c;" horiz-adv-x="675" d="M61 1167v267h250v-246h-114v-174q-27 6 -33 8q-46 15 -74.5 55.5t-28.5 89.5zM82 1221l90 90l-90 88v-178zM94 1415l92 -90l90 90h-182zM365 1167v267h249v-246h-114v-174q-27 6 -33 8q-46 15 -74 55t-28 90zM385 1221l90 90l-90 88v-178zM397 1415l92 -90l91 90h-183z " />
<glyph unicode="&#x201d;" horiz-adv-x="671" d="M61 1190v244h246v-265q0 -47 -28.5 -86.5t-73.5 -56.5q-12 -4 -33 -6v170h-111zM82 1221l86 90l-86 88v-178zM94 1413l86 -86l90 86h-176zM365 1190v244h245v-265q0 -47 -28.5 -86.5t-73.5 -56.5q-12 -4 -33 -6v170h-110zM385 1221l86 90l-86 88v-178zM397 1413l86 -86 l90 86h-176z" />
<glyph unicode="&#x201e;" horiz-adv-x="671" d="M61 -68v244h246v-264q0 -47 -28.5 -86.5t-73.5 -56.5q-16 -5 -33 -7v170h-111zM82 -37l86 90l-86 88v-178zM94 156l86 -86l90 86h-176zM365 -68v244h245v-264q0 -47 -28.5 -86.5t-73.5 -56.5q-16 -5 -33 -7v170h-110zM385 -37l86 90l-86 88v-178zM397 156l86 -86l90 86 h-176z" />
<glyph unicode="&#x2022;" horiz-adv-x="512" d="M82 713v28q0 66 47 113t113 47h28q66 0 113 -47t47 -113v-28q0 -66 -47 -113t-113 -47h-28q-66 0 -113 47t-47 113zM104 713q0 -47 33 -92l105 106l-105 107q-33 -45 -33 -93v-28zM152 846l104 -105l106 105q-39 33 -92 33h-28q-54 0 -90 -33z" />
<glyph unicode="&#x2026;" horiz-adv-x="1048" d="M61 0v248h246v-248h-246zM80 35l90 90l-90 88v-178zM96 227l88 -90l90 90h-178zM401 0v248h246v-248h-246zM420 35l90 90l-90 88v-178zM436 227l88 -90l90 90h-178zM741 0v248h246v-248h-246zM760 35l90 90l-90 88v-178zM776 227l88 -90l90 90h-178z" />
<glyph unicode="&#x202f;" horiz-adv-x="338" />
<glyph unicode="&#x2039;" horiz-adv-x="614" d="M20 567l355 355l176 -177l-180 -178l182 -182l-176 -176zM59 575h134l174 175v135zM221 557l160 -162h133l-162 162h-131zM385 758h127l-127 127v-127z" />
<glyph unicode="&#x203a;" horiz-adv-x="614" d="M61 387l181 180l-179 178l175 177l356 -355l-356 -358zM100 395h131l164 162h-135zM102 758h125v125zM248 752l170 -174h137l-307 305v-131z" />
<glyph unicode="&#x205f;" horiz-adv-x="422" />
<glyph unicode="&#x20ac;" horiz-adv-x="876" d="M61 424v246h82v94h-82v246h82v272q0 63 45 107.5t107 44.5h369q63 0 107 -44.5t44 -107.5v-121l-246 -57v84h-178v-176h254v-246h-254v-94h254v-246h-254v-178h178v84l246 -60v-120q0 -62 -44 -107t-107 -45h-369q-61 0 -106.5 45t-45.5 107v272h-82zM80 459l88 88 l-88 88v-176zM80 799l88 88l-88 88v-176zM92 651l92 -94h62l-96 94h-58zM92 991l92 -94h62l-96 94h-58zM164 152q0 -45 33 -86l61 63v395l-94 -96v-276zM164 664l94 -97v297l-94 -96v-104zM164 1004l94 -97v400l-61 61q-33 -38 -33 -86v-278zM211 1382l61 -61h414l64 63 q-43 31 -86 31h-369q-46 0 -84 -33zM287 899h231l94 92h-227zM289 559h229l94 92h-227zM291 133h375l-93 94h-188zM590 240l92 -95v58l-92 92v-55zM590 1139l92 94v57l-92 -94v-57zM612 301l82 -82l84 41z" />
<glyph unicode="&#x2122;" horiz-adv-x="1712" d="M61 1188v246h586v-246h-168v-336h-248v336h-170zM82 1223l86 90l-86 88v-178zM94 1415l94 -94h330l92 94h-516zM252 885l92 92v311l-92 -92v-311zM725 852v582h774q63 0 107.5 -44.5t44.5 -107.5v-430h-248v336h-92v-336h-246v336h-94v-336h-246zM743 885l95 90v334 l-95 94v-518zM758 1415l94 -94h668l63 63q-40 31 -84 31h-741zM1085 885l93 92v311l-93 -92v-311zM1423 885l93 92v311l-93 -92v-311z" />
<glyph unicode="&#xe000;" horiz-adv-x="1095" d="M0 0v1096h1096v-1096h-1096z" />
</font>
</defs>
</svg>
