<?xml version="1.0" standalone="no"?>
<!DOCTYPE svg PUBLIC "-//W3C//DTD SVG 1.1//EN" "http://www.w3.org/Graphics/SVG/1.1/DTD/svg11.dtd" >
<svg xmlns="http://www.w3.org/2000/svg">
<metadata></metadata>
<defs>
<font id="valenciaitalic" horiz-adv-x="346" >
<font-face units-per-em="2048" ascent="1536" descent="-512" />
<missing-glyph horiz-adv-x="292" />
<glyph horiz-adv-x="2048" />
<glyph horiz-adv-x="2048" />
<glyph unicode="&#xd;" horiz-adv-x="2048" />
<glyph unicode=" "  horiz-adv-x="292" />
<glyph unicode="&#x09;" horiz-adv-x="292" />
<glyph unicode="&#xa0;" horiz-adv-x="292" />
<glyph unicode="&#x22;" horiz-adv-x="286" d="M203 1061q3 19 41 260h78q-6 -45 -20.5 -131.5t-20.5 -128.5h-78zM342 1061q6 42 20.5 128.5t20.5 131.5h78q-7 -50 -41 -260h-78z" />
<glyph unicode="#" horiz-adv-x="395" d="M70 225l12 76h57l37 236h-57l12 75h57l66 406h76l-64 -406h45l66 406h76l-64 -406h57l-12 -75h-57l-37 -236h57l-10 -76h-59l-35 -225h-78l37 225h-47l-35 -225h-78l35 225h-57zM215 301h47l37 236h-47z" />
<glyph unicode="$" horiz-adv-x="317" d="M61 98q0 17 2 25q20 118 39 250h91l-41 -271q4 -22 24 -22q12 0 22 9.5t13 23.5l25 153q4 46 4 64q0 68 -36 197t-36 208q0 43 4 66l51 332q7 46 39.5 85.5t79.5 45.5l14 88h41l-14 -88q34 -8 55 -33t21 -60q0 -3 -1 -9t-1 -9l-41 -252h-88q21 126 39 252v8q0 19 -19 19 q-27 0 -31 -27q-28 -167 -57 -352q-4 -36 -4 -56q0 -63 33 -184q1 1 2.5 -2t1.5 -8q37 -129 37 -209q0 -17 -4 -63l-23 -146q-9 -55 -42.5 -93t-78.5 -44l-16 -113h-41l16 113q-39 6 -59.5 33.5t-20.5 68.5z" />
<glyph unicode="&#x26;" d="M70 176l43 266q9 57 61 88q-42 28 -33 88l66 422q7 49 47 83t88 34h102l-14 -86h-100q-11 0 -21.5 -9t-13.5 -22l-68 -438q-3 -12 4.5 -21.5t18.5 -9.5h31l10 68h88l-10 -68h34l-14 -86h-35l-67 -426h-119q-48 0 -76.5 34t-21.5 83zM160 176q-3 -12 3.5 -21.5t18.5 -9.5 h31l53 340h-30q-10 0 -20 -9t-13 -21z" />
<glyph unicode="'" horiz-adv-x="241" d="M203 1061l121 260h94l-121 -260h-94z" />
<glyph unicode="(" horiz-adv-x="229" d="M43 8l195 1219q8 48 48 82t89 34h37l-15 -86h-35q-14 0 -24.5 -8.5t-11.5 -21.5l-193 -1219q-3 -13 5 -22t22 -9h35l-15 -88h-35q-51 0 -80 34t-22 85z" />
<glyph unicode=")" horiz-adv-x="239" d="M25 -111l16 88h35q13 0 23 9.5t12 21.5q115 708 194 1219q0 28 -26 28h-37q3 15 7 44t7 44h35q45 0 74.5 -28t29.5 -70q0 -3 -1 -9t-1 -9l-194 -1219q-7 -51 -47 -85t-91 -34h-36z" />
<glyph unicode="," horiz-adv-x="210" d="M-6 -100q39 90 117 258h94q-13 -27 -56 -117.5t-65 -140.5h-90z" />
<glyph unicode="-" horiz-adv-x="317" d="M133 459q8 55 14 88h189q-7 -54 -14 -88h-189z" />
<glyph unicode="." horiz-adv-x="288" d="M100 0l25 166h92l-24 -166h-93z" />
<glyph unicode="/" horiz-adv-x="321" d="M0 -137q76 270 218.5 768.5t199.5 701.5h90q-40 -138 -190.5 -662.5t-231.5 -807.5h-86z" />
<glyph unicode="0" d="M72 113l166 1036q6 49 46.5 83t90.5 34q47 0 75.5 -34t22.5 -83l-166 -1036q-7 -49 -47 -84t-88 -35q-49 0 -78.5 34.5t-21.5 84.5zM160 113q-3 -13 4.5 -22t21.5 -9q12 0 21 9t12 22l74 479l-90 -213zM225 524l92 213l66 412q2 12 -4.5 21.5t-18.5 9.5q-29 0 -36 -31z " />
<glyph unicode="1" horiz-adv-x="249" d="M82 0l199 1260h88l-199 -1260h-88z" />
<glyph unicode="2" d="M55 0q3 20 41 266q19 137 127 295q83 127 101 225l10 58q7 40 23.5 146t27.5 163v4q0 23 -23 23q-9 0 -17.5 -11t-14.5 -31t-11 -42.5t-9 -52.5t-6.5 -52.5t-5.5 -50t-5 -39.5h-88l37 238q8 56 43.5 91.5t89.5 35.5q41 0 68.5 -25.5t27.5 -66.5q0 -21 -2 -33 q-9 -66 -53 -340q-17 -104 -109 -260l-10 -19q-89 -131 -111 -256l-30 -180h147l-12 -86h-236z" />
<glyph unicode="3" d="M72 113l43 270h90l-43 -270q-3 -13 3.5 -22t18.5 -9t23 9t12 22l49 311q3 11 -3 20t-19 9h-88l12 90h88q14 0 23.5 8t9.5 20l94 582q3 27 -23 27q-25 0 -30 -27l-39 -252h-88l41 252q6 49 43.5 81t87.5 32q47 0 74.5 -32.5t21.5 -80.5q-90 -565 -90 -567q-9 -56 -59 -88 q39 -31 30 -86l-47 -299q-8 -50 -48 -84.5t-89 -34.5q-47 0 -76 35t-22 84z" />
<glyph unicode="4" d="M106 449l130 811h88l-129 -811q-2 -11 4.5 -20t19.5 -9h29l133 840h90l-133 -840h35l-13 -88h-36l-52 -332h-90l54 332h-31q-47 0 -76.5 35t-22.5 82z" />
<glyph unicode="5" d="M70 98q0 7 4 27l39 254h90l-43 -266v-7q0 -26 24 -26q12 0 23 10t12 23l27 163q4 40 4 60q0 17 -1.5 35.5t-3.5 31.5t-6.5 34.5t-7 30t-9 34t-7.5 30.5l-6 21q-33 122 -33 190q0 31 6 66l72 451h227l-12 -89h-139l-60 -362q-4 -18 -4 -57q0 -66 33 -181l6 -24 q35 -129 35 -197q0 -36 -6 -74l-27 -163q-16 -53 -52 -86t-85 -33q-46 0 -73 29.5t-27 74.5z" />
<glyph unicode="6" d="M70 113l166 1040q8 47 47 80t88 33q47 0 73.5 -31.5t20.5 -81.5l-41 -252h-88l39 252q5 27 -19 27q-26 0 -32 -27l-101 -635h31q49 0 77.5 -34.5t20.5 -84.5l-45 -286q-8 -50 -48 -84.5t-89 -34.5q-48 0 -77.5 35t-22.5 84zM160 113q-3 -13 4.5 -22t19.5 -9t22 9t13 22 l45 286q2 12 -5 21.5t-19 9.5h-31z" />
<glyph unicode="7" d="M47 0q60 206 172 600t164 574h-150q3 15 7.5 43.5t7.5 42.5h248l-361 -1260h-88z" />
<glyph unicode="8" d="M72 113l45 276q10 60 61 88q-41 27 -31 86l95 590q6 49 44.5 81t88.5 32q47 0 73.5 -31.5t20.5 -81.5l-94 -590q-9 -58 -58 -86q44 -30 35 -88l-45 -276q-7 -49 -47 -84t-88 -35q-49 0 -78.5 34.5t-21.5 84.5zM162 113q-3 -14 4 -22.5t20 -8.5q11 0 20.5 9t12.5 22 l45 288q2 12 -5 21.5t-17 9.5q-13 0 -23 -9.5t-12 -21.5zM233 545q-3 -27 23 -27q24 0 27 27l96 608q5 27 -19 27q-25 0 -30 -27z" />
<glyph unicode="9" d="M76 86q0 12 2 20l39 250h88l-39 -250q0 -2 -1 -5.5t-1 -4.5q0 -18 22 -18q28 0 31 28q9 54 25.5 162t25.5 162h-30q-44 0 -72.5 29t-28.5 73q0 2 1 8t1 9q68 411 97 598q11 49 48.5 84t86.5 35q44 0 73 -29t29 -72q0 -3 -1 -9t-1 -9q-27 -173 -82 -520.5t-82 -520.5 q-7 -44 -50.5 -76t-86.5 -32q-42 0 -68 23.5t-26 64.5zM227 545q0 -12 7.5 -20.5t17.5 -8.5h31q77 493 100 631q0 31 -27 31q-12 0 -21.5 -9t-10.5 -22q-16 -104 -49 -303.5t-48 -294.5v-4z" />
<glyph unicode=":" horiz-adv-x="280" d="M98 0l25 166h92l-25 -166h-92zM223 791l27 167h90l-25 -167h-92z" />
<glyph unicode=";" horiz-adv-x="286" d="M20 -100q16 35 56.5 122t62.5 136h94q-22 -50 -63.5 -139.5t-54.5 -118.5h-95zM225 791q5 27 13.5 82t13.5 83h92l-25 -165h-94z" />
<glyph unicode="@" horiz-adv-x="466" d="M27 -86q0 2 1 6.5t1 7.5l155 969q6 41 40 70.5t77 29.5h176q38 0 62 -24.5t24 -61.5v-14l-135 -854q-6 -38 -41.5 -69t-73.5 -31h-88q-38 0 -63 23.5t-25 58.5q0 10 2 16l97 616q6 43 40.5 73t77.5 30q38 0 62 -23.5t24 -60.5q0 -3 -1 -9.5t-1 -9.5l-86 -553 q-1 -6 -6 -33.5t-6 -43.5h-47l12 77q10 62 27.5 173.5t32 204.5t28.5 175v11q0 20 -13.5 32.5t-33.5 12.5q-23 0 -42.5 -16.5t-22.5 -39.5l-97 -616q0 -2 -1 -5.5t-1 -4.5q0 -20 14 -32.5t35 -12.5h86q22 0 42 17t24 40l135 854v8q0 21 -13 34t-34 13h-176q-25 0 -44 -16 t-22 -39l-153 -969v-8q0 -21 13 -34t34 -13h184l-8 -47h-184q-38 0 -63 25t-25 63z" />
<glyph unicode="A" horiz-adv-x="350" d="M33 0l76 336h-31l14 88h37l193 838h110l-106 -1262h-88l30 336h-75l-74 -336h-86zM211 424h68l61 596z" />
<glyph unicode="B" horiz-adv-x="329" d="M57 0l52 338h-37l14 86h37l133 838h117q47 0 77 -35q24 -28 24 -65q0 -8 -1 -17l-108 -676q-3 -27 -20 -50.5t-42 -37.5q37 -25 37 -69q0 -9 -2 -19l-29 -174q-6 -49 -46.5 -84t-88.5 -35h-117zM158 88h28q14 0 24 9t11 22l31 188q2 12 -6 21.5t-21 9.5h-28zM211 424h29 q13 0 22.5 9.5t11.5 21.5l109 690q1 4 1 7q0 8 -5 15q-7 9 -21 9h-28z" />
<glyph unicode="C" horiz-adv-x="311" d="M59 115l166 1034q6 49 46.5 84t90.5 35q47 0 76 -34q24 -29 24 -68q0 -8 -1 -17l-41 -246h-88l39 246q3 13 -4.5 23t-18.5 10q-13 0 -23 -9.5t-12 -23.5l-166 -1034q-1 -13 7 -23t20 -10t21 9.5t12 23.5l43 270h90l-45 -270q-6 -50 -46.5 -85.5t-88.5 -35.5q-50 0 -79 35 q-23 28 -23 67q0 9 1 19z" />
<glyph unicode="D" horiz-adv-x="321" d="M43 0l199 1262h116q49 0 79 -34q24 -27 24 -63q0 -10 -2 -20l-164 -1026q-6 -49 -45.5 -84t-89.5 -35h-117zM143 88h29q14 0 24 9t11 22l162 1026q1 4 1 7q0 8 -5 15q-7 9 -19 9h-31z" />
<glyph unicode="E" horiz-adv-x="276" d="M57 0l52 338h-35l14 86h35l133 838h197l-13 -86h-108l-119 -752h100l-14 -86h-100l-39 -250h108l-14 -88h-197z" />
<glyph unicode="F" horiz-adv-x="264" d="M51 0l51 338h-34l14 86h35l133 838h194l-12 -88h-108l-119 -750h102q-6 -31 -14 -86h-103q-7 -47 -53 -338h-86z" />
<glyph unicode="G" horiz-adv-x="311" d="M61 115l166 1034q6 49 46.5 84t91.5 35q47 0 75 -34q24 -29 24 -68q0 -8 -1 -17l-41 -246h-88l41 246q2 13 -5 23t-20 10t-22.5 -9.5t-12.5 -23.5l-163 -1034q-3 -14 4 -23.5t20 -9.5t23 10.5t10 22.5l35 211h-33l14 86h119l-47 -297q-7 -50 -47 -85.5t-88 -35.5 q-50 0 -79 35q-23 28 -23 67q0 9 1 19z" />
<glyph unicode="H" horiz-adv-x="313" d="M53 0l51 338h-36l14 86h37l133 838h86l-131 -838h49l133 838h88l-198 -1262h-89l52 338h-49l-54 -338h-86z" />
<glyph unicode="I" horiz-adv-x="174" d="M39 0l199 1262h88l-199 -1262h-88z" />
<glyph unicode="J" horiz-adv-x="296" d="M49 109l39 249h88l-39 -249q-3 -14 3.5 -21.5t17.5 -7.5q27 0 30 29l183 1153h88l-183 -1153q-7 -49 -46 -82t-87 -33q-49 0 -75 32q-21 25 -21 61q0 10 2 22z" />
<glyph unicode="K" horiz-adv-x="358" d="M51 0l51 338h-32q8 55 14 86h33l133 838h88l-131 -838h20l228 838h84l-246 -877l57 -385h-92l-39 338h-26q-6 -39 -17.5 -107t-20.5 -124.5t-16 -106.5h-88z" />
<glyph unicode="L" horiz-adv-x="256" d="M47 0l199 1262h86l-185 -1174h109l-12 -88h-197z" />
<glyph unicode="M" horiz-adv-x="485" d="M49 0l180 1151q8 50 45 83.5t84 33.5q54 0 72 -45q40 45 90 45q41 0 66.5 -27.5t25.5 -69.5q0 -3 -1 -10t-1 -10l-180 -1151h-88l180 1147v4q0 27 -24 27q-10 0 -21 -8.5t-12 -22.5q-134 -834 -182 -1147h-88q134 834 182 1147v6q0 12 -8.5 18.5t-16.5 6.5 q-14 0 -23.5 -9t-11.5 -22l-180 -1147h-88z" />
<glyph unicode="N" horiz-adv-x="325" d="M45 0l199 1262h116q42 0 71.5 -28.5t29.5 -68.5q0 -14 -2 -20l-178 -1145h-88q83 535 180 1145v4q0 11 -7.5 18t-19.5 7h-27q-32 -195 -93 -586.5t-93 -587.5h-88z" />
<glyph unicode="O" horiz-adv-x="315" d="M59 115l166 1034q6 49 46.5 84t90.5 35q47 0 76 -34q24 -29 24 -68q0 -8 -1 -17l-166 -1034q-6 -50 -46.5 -85.5t-88.5 -35.5q-49 0 -78 35q-24 29 -24 69q0 8 1 17zM147 115q-1 -13 7 -23t20 -10q13 0 22 10t11 23l164 1034v6q-1 9 -5 17q-6 10 -18 10q-13 0 -23 -9.5 t-12 -23.5z" />
<glyph unicode="P" horiz-adv-x="319" d="M49 0l53 338h-34l14 86h35l131 838h119q49 0 77 -34q22 -27 23 -63q0 -10 -2 -20l-109 -690q-8 -48 -47 -82.5t-88 -34.5h-31l-51 -338h-90zM205 424h31q12 0 21 9.5t11 21.5l109 690q1 4 1 7q0 8 -4 14q-6 10 -20 10h-30z" />
<glyph unicode="Q" horiz-adv-x="323" d="M59 115l166 1034q6 49 46.5 84t90.5 35q47 0 76 -34q24 -29 24 -68q0 -8 -1 -17l-166 -1034q-6 -38 -30 -68.5t-58 -42.5l-2 -22q-3 -12 4 -21.5t18 -9.5h37l-12 -78h-35q-50 0 -81 28q-24 23 -24 61q0 8 1 18l4 22q-30 14 -47 45q-13 23 -13 49q0 9 2 19zM147 115 q-1 -13 7 -23t20 -10q13 0 22 10t11 23l164 1034v6q0 9 -5 17q-6 10 -18 10q-13 0 -23 -9.5t-12 -23.5z" />
<glyph unicode="R" horiz-adv-x="329" d="M53 0l53 338h-34l14 86h35l131 838h119q49 0 78 -35q22 -27 22 -60q0 -10 -2 -22l-107 -678q-9 -56 -59 -88q33 -24 33 -66q0 -10 -2 -20l-45 -293h-86l47 307q3 12 -5.5 21.5t-19.5 9.5h-30l-52 -338h-90zM209 424h31q11 0 21 9.5t11 21.5l109 690q1 3 1 7q0 8 -6 14 q-8 10 -18 10h-30z" />
<glyph unicode="S" horiz-adv-x="315" d="M61 94q0 21 5 31l36 248h91l-41 -260v-4q0 -27 24 -27q12 0 22 9.5t13 21.5l25 155q4 40 4 62q0 68 -36 199t-36 206q0 43 4 66l53 340q6 53 45 90t92 37q42 0 69.5 -27.5t27.5 -69.5q0 -4 -2 -14.5t-2 -13.5q-7 -40 -19.5 -120t-19.5 -120h-88q23 138 39 250v8 q0 19 -19 19q-28 0 -31 -27q-28 -167 -57 -352q-4 -36 -4 -56q0 -72 35 -182l8 -35q3 -13 10 -42.5t11 -48t7.5 -47t2.5 -54.5q0 -43 -4 -68l-25 -145q-14 -59 -49.5 -94t-89.5 -35q-44 0 -72.5 28.5t-28.5 71.5z" />
<glyph unicode="T" horiz-adv-x="260" d="M84 0l184 1174h-69l12 88h233l-12 -88h-74q-32 -195 -93.5 -586.5t-92.5 -587.5h-88z" />
<glyph unicode="U" horiz-adv-x="319" d="M59 94q0 13 2 19q26 170 56.5 361.5t68.5 425.5t58 362h86l-180 -1149q0 -1 -1.5 -3.5t-1.5 -3.5q0 -10 8.5 -17t20.5 -7t21.5 10t9.5 21q153 958 182 1149h90q-153 -957 -182 -1149q-7 -49 -47 -84t-88 -35q-44 0 -73.5 28.5t-29.5 71.5z" />
<glyph unicode="V" horiz-adv-x="335" d="M111 0l110 1262h88l-104 -1020l217 1020h86l-287 -1262h-110z" />
<glyph unicode="W" horiz-adv-x="468" d="M57 88q0 15 2 23q30 192 91.5 576t91.5 575h88q-20 -128 -58 -362t-68.5 -425.5t-56.5 -361.5v-4q0 -11 7 -19t18 -8q10 0 21 8.5t14 22.5l180 1149h88q-29 -191 -182 -1149q0 -31 24 -31q14 0 23.5 9.5t11.5 21.5q29 192 91 575t92 574h88q-37 -228 -106.5 -666.5 t-76.5 -484.5q-7 -49 -45 -83t-84 -34q-23 0 -38.5 7.5t-22 15t-12.5 20.5q-34 -43 -88 -43q-42 0 -67.5 26.5t-25.5 67.5z" />
<glyph unicode="X" horiz-adv-x="325" d="M25 0q68 215 125 385l73 877h88l-88 -838h10l179 838h86q-92 -397 -201 -877l4 -385h-90l12 338h-2h-6h-2h-6q-21 -72 -94 -338h-88z" />
<glyph unicode="Y" horiz-adv-x="337" d="M121 0l49 315l51 947h88l-59 -699l166 699h88q-199 -763 -248 -947q-10 -76 -47 -315h-88z" />
<glyph unicode="Z" horiz-adv-x="327" d="M41 0l336 1174h-148l13 88h247l-335 -1174h145l-12 -88h-246z" />
<glyph unicode="\" horiz-adv-x="321" d="M184 -137l47 1470h88l-47 -1470h-88z" />
<glyph unicode="_" horiz-adv-x="495" d="M14 -106q2 16 11 63h430q-9 -47 -11 -63h-430z" />
<glyph unicode="a" horiz-adv-x="350" d="M33 0l76 336h-31l14 88h37l193 838h110l-106 -1262h-88l30 336h-75l-74 -336h-86zM211 424h68l61 596z" />
<glyph unicode="b" horiz-adv-x="329" d="M57 0l52 338h-37l14 86h37l133 838h117q47 0 77 -35q24 -28 24 -65q0 -8 -1 -17l-108 -676q-3 -27 -20 -50.5t-42 -37.5q37 -25 37 -69q0 -9 -2 -19l-29 -174q-6 -49 -46.5 -84t-88.5 -35h-117zM158 88h28q14 0 24 9t11 22l31 188q2 12 -6 21.5t-21 9.5h-28zM211 424h29 q13 0 22.5 9.5t11.5 21.5l109 690q1 4 1 7q0 8 -5 15q-7 9 -21 9h-28z" />
<glyph unicode="c" horiz-adv-x="311" d="M59 115l166 1034q6 49 46.5 84t90.5 35q47 0 76 -34q24 -29 24 -68q0 -8 -1 -17l-41 -246h-88l39 246q3 13 -4.5 23t-18.5 10q-13 0 -23 -9.5t-12 -23.5l-166 -1034q-1 -13 7 -23t20 -10t21 9.5t12 23.5l43 270h90l-45 -270q-6 -50 -46.5 -85.5t-88.5 -35.5q-50 0 -79 35 q-23 28 -23 67q0 9 1 19z" />
<glyph unicode="d" horiz-adv-x="321" d="M43 0l199 1262h116q49 0 79 -34q24 -27 24 -63q0 -10 -2 -20l-164 -1026q-6 -49 -45.5 -84t-89.5 -35h-117zM143 88h29q14 0 24 9t11 22l162 1026q1 4 1 7q0 8 -5 15q-7 9 -19 9h-31z" />
<glyph unicode="e" horiz-adv-x="276" d="M57 0l52 338h-35l14 86h35l133 838h197l-13 -86h-108l-119 -752h100l-14 -86h-100l-39 -250h108l-14 -88h-197z" />
<glyph unicode="f" horiz-adv-x="264" d="M51 0l51 338h-34l14 86h35l133 838h194l-12 -88h-108l-119 -750h102q-6 -31 -14 -86h-103q-7 -47 -53 -338h-86z" />
<glyph unicode="g" horiz-adv-x="311" d="M61 115l166 1034q6 49 46.5 84t91.5 35q47 0 75 -34q24 -29 24 -68q0 -8 -1 -17l-41 -246h-88l41 246q2 13 -5 23t-20 10t-22.5 -9.5t-12.5 -23.5l-163 -1034q-3 -14 4 -23.5t20 -9.5t23 10.5t10 22.5l35 211h-33l14 86h119l-47 -297q-7 -50 -47 -85.5t-88 -35.5 q-50 0 -79 35q-23 28 -23 67q0 9 1 19z" />
<glyph unicode="h" horiz-adv-x="313" d="M53 0l51 338h-36l14 86h37l133 838h86l-131 -838h49l133 838h88l-198 -1262h-89l52 338h-49l-54 -338h-86z" />
<glyph unicode="i" horiz-adv-x="174" d="M39 0l199 1262h88l-199 -1262h-88z" />
<glyph unicode="j" horiz-adv-x="296" d="M49 109l39 249h88l-39 -249q-3 -14 3.5 -21.5t17.5 -7.5q27 0 30 29l183 1153h88l-183 -1153q-7 -49 -46 -82t-87 -33q-49 0 -75 32q-21 25 -21 61q0 10 2 22z" />
<glyph unicode="k" horiz-adv-x="358" d="M51 0l51 338h-32q8 55 14 86h33l133 838h88l-131 -838h20l228 838h84l-246 -877l57 -385h-92l-39 338h-26q-6 -39 -17.5 -107t-20.5 -124.5t-16 -106.5h-88z" />
<glyph unicode="l" horiz-adv-x="256" d="M47 0l199 1262h86l-185 -1174h109l-12 -88h-197z" />
<glyph unicode="m" horiz-adv-x="485" d="M49 0l180 1151q8 50 45 83.5t84 33.5q54 0 72 -45q40 45 90 45q41 0 66.5 -27.5t25.5 -69.5q0 -3 -1 -10t-1 -10l-180 -1151h-88l180 1147v4q0 27 -24 27q-10 0 -21 -8.5t-12 -22.5q-134 -834 -182 -1147h-88q134 834 182 1147v6q0 12 -8.5 18.5t-16.5 6.5 q-14 0 -23.5 -9t-11.5 -22l-180 -1147h-88z" />
<glyph unicode="n" horiz-adv-x="325" d="M45 0l199 1262h116q42 0 71.5 -28.5t29.5 -68.5q0 -14 -2 -20l-178 -1145h-88q83 535 180 1145v4q0 11 -7.5 18t-19.5 7h-27q-32 -195 -93 -586.5t-93 -587.5h-88z" />
<glyph unicode="o" horiz-adv-x="315" d="M59 115l166 1034q6 49 46.5 84t90.5 35q47 0 76 -34q24 -29 24 -68q0 -8 -1 -17l-166 -1034q-6 -50 -46.5 -85.5t-88.5 -35.5q-49 0 -78 35q-24 29 -24 69q0 8 1 17zM147 115q-1 -13 7 -23t20 -10q13 0 22 10t11 23l164 1034v6q-1 9 -5 17q-6 10 -18 10q-13 0 -23 -9.5 t-12 -23.5z" />
<glyph unicode="p" horiz-adv-x="319" d="M49 0l53 338h-34l14 86h35l131 838h119q49 0 77 -34q23 -27 23 -63q0 -9 -2 -20l-109 -690q-8 -48 -47 -82.5t-88 -34.5h-31l-51 -338h-90zM205 424h31q12 0 21 9.5t11 21.5l109 690q1 4 1 7q0 8 -4 14q-7 10 -20 10h-30z" />
<glyph unicode="q" horiz-adv-x="323" d="M59 115l166 1034q6 49 46.5 84t90.5 35q47 0 76 -34q24 -29 24 -68q0 -8 -1 -17l-166 -1034q-6 -38 -30 -68.5t-58 -42.5l-2 -22q-3 -12 4 -21.5t18 -9.5h37l-12 -78h-35q-50 0 -81 28q-24 23 -24 61q0 8 1 18l4 22q-30 14 -47 45q-13 23 -13 49q0 9 2 19zM147 115 q-1 -13 7 -23t20 -10q13 0 22 10t11 23l164 1034v6q0 9 -5 17q-6 10 -18 10q-13 0 -23 -9.5t-12 -23.5z" />
<glyph unicode="r" horiz-adv-x="329" d="M53 0l53 338h-34l14 86h35l131 838h119q49 0 78 -35q22 -27 22 -60q0 -10 -2 -22l-107 -678q-9 -56 -59 -88q33 -24 33 -66q0 -10 -2 -20l-45 -293h-86l47 307q3 12 -5.5 21.5t-19.5 9.5h-30l-52 -338h-90zM209 424h31q11 0 21 9.5t11 21.5l109 690q1 3 1 7q0 8 -6 14 q-8 10 -18 10h-30z" />
<glyph unicode="s" horiz-adv-x="315" d="M61 94q0 21 5 31l36 248h91l-41 -260v-4q0 -27 24 -27q12 0 22 9.5t13 21.5l25 155q4 40 4 62q0 68 -36 199t-36 206q0 43 4 66l53 340q6 53 45 90t92 37q42 0 69.5 -27.5t27.5 -69.5q0 -4 -2 -14.5t-2 -13.5q-7 -40 -19.5 -120t-19.5 -120h-88q23 138 39 250v8 q0 19 -19 19q-28 0 -31 -27q-28 -167 -57 -352q-4 -36 -4 -56q0 -72 35 -182l8 -35q3 -13 10 -42.5t11 -48t7.5 -47t2.5 -54.5q0 -43 -4 -68l-25 -145q-14 -59 -49.5 -94t-89.5 -35q-44 0 -72.5 28.5t-28.5 71.5z" />
<glyph unicode="t" horiz-adv-x="260" d="M84 0l184 1174h-69l12 88h233l-12 -88h-74q-32 -195 -93.5 -586.5t-92.5 -587.5h-88z" />
<glyph unicode="u" horiz-adv-x="319" d="M59 94q0 13 2 19q26 170 56.5 361.5t68.5 425.5t58 362h86l-180 -1149q0 -1 -1.5 -3.5t-1.5 -3.5q0 -10 8.5 -17t20.5 -7t21.5 10t9.5 21q153 958 182 1149h90q-153 -957 -182 -1149q-7 -49 -47 -84t-88 -35q-44 0 -73.5 28.5t-29.5 71.5z" />
<glyph unicode="v" horiz-adv-x="335" d="M111 0l110 1262h88l-104 -1020l217 1020h86l-287 -1262h-110z" />
<glyph unicode="w" horiz-adv-x="468" d="M57 88q0 15 2 23q30 192 91.5 576t91.5 575h88q-20 -128 -58 -362t-68.5 -425.5t-56.5 -361.5v-4q0 -11 7 -19t18 -8q10 0 21 8.5t14 22.5l180 1149h88q-29 -191 -182 -1149q0 -31 24 -31q14 0 23.5 9.5t11.5 21.5q29 192 91 575t92 574h88q-37 -228 -106.5 -666.5 t-76.5 -484.5q-7 -49 -45 -83t-84 -34q-23 0 -38.5 7.5t-22 15t-12.5 20.5q-34 -43 -88 -43q-42 0 -67.5 26.5t-25.5 67.5z" />
<glyph unicode="x" horiz-adv-x="325" d="M25 0q68 215 125 385l73 877h88l-88 -838h10l179 838h86q-92 -397 -201 -877l4 -385h-90l12 338h-2h-6h-2h-6q-21 -72 -94 -338h-88z" />
<glyph unicode="y" horiz-adv-x="337" d="M121 0l49 315l51 947h88l-59 -699l166 699h88q-199 -763 -248 -947q-10 -76 -47 -315h-88z" />
<glyph unicode="z" horiz-adv-x="327" d="M41 0l336 1174h-148l13 88h247l-335 -1174h145l-12 -88h-246z" />
<glyph unicode="&#xad;" horiz-adv-x="317" d="M133 459q8 55 14 88h189q-7 -54 -14 -88h-189z" />
<glyph unicode="&#x2000;" horiz-adv-x="682" />
<glyph unicode="&#x2001;" horiz-adv-x="1365" />
<glyph unicode="&#x2002;" horiz-adv-x="682" />
<glyph unicode="&#x2003;" horiz-adv-x="1365" />
<glyph unicode="&#x2004;" horiz-adv-x="455" />
<glyph unicode="&#x2005;" horiz-adv-x="341" />
<glyph unicode="&#x2006;" horiz-adv-x="227" />
<glyph unicode="&#x2007;" horiz-adv-x="227" />
<glyph unicode="&#x2008;" horiz-adv-x="170" />
<glyph unicode="&#x2009;" horiz-adv-x="273" />
<glyph unicode="&#x200a;" horiz-adv-x="75" />
<glyph unicode="&#x2010;" horiz-adv-x="317" d="M133 459q8 55 14 88h189q-7 -54 -14 -88h-189z" />
<glyph unicode="&#x2011;" horiz-adv-x="317" d="M133 459q8 55 14 88h189q-7 -54 -14 -88h-189z" />
<glyph unicode="&#x2012;" horiz-adv-x="317" d="M133 459q8 55 14 88h189q-7 -54 -14 -88h-189z" />
<glyph unicode="&#x2013;" horiz-adv-x="1138" d="M133 459q40 55 71 88h953q-35 -54 -71 -88h-953z" />
<glyph unicode="&#x2014;" horiz-adv-x="2162" d="M133 459q81 55 141 88h1907q-71 -54 -141 -88h-1907z" />
<glyph unicode="&#x2018;" horiz-adv-x="237" d="M242 1321h94l37 -260h-94z" />
<glyph unicode="&#x2019;" horiz-adv-x="235" d="M203 1061l121 260h94l-121 -260h-94z" />
<glyph unicode="&#x201c;" horiz-adv-x="407" d="M260 1321h94q22 -139 39 -260h-94q-17 121 -39 260zM387 1321h94q22 -139 39 -260h-94q-17 121 -39 260z" />
<glyph unicode="&#x201d;" horiz-adv-x="421" d="M209 1061l121 260h94l-121 -260h-94zM371 1061l121 260h94l-121 -260h-94z" />
<glyph unicode="&#x2026;" horiz-adv-x="868" d="M100 0l25 166h92l-24 -166h-93zM389 0l25 166h92l-25 -166h-92zM678 0l27 166h90l-25 -166h-92z" />
<glyph unicode="&#x202f;" horiz-adv-x="273" />
<glyph unicode="&#x205f;" horiz-adv-x="341" />
<glyph unicode="&#xe000;" horiz-adv-x="1259" d="M0 0v1260h1260v-1260h-1260z" />
</font>
</defs>
</svg>
