<?xml version="1.0" standalone="no"?>
<!DOCTYPE svg PUBLIC "-//W3C//DTD SVG 1.1//EN" "http://www.w3.org/Graphics/SVG/1.1/DTD/svg11.dtd" >
<svg xmlns="http://www.w3.org/2000/svg">
<metadata></metadata>
<defs>
<font id="valenciaitalic" horiz-adv-x="325" >
<font-face units-per-em="2048" ascent="1536" descent="-512" />
<missing-glyph horiz-adv-x="292" />
<glyph horiz-adv-x="2048" />
<glyph horiz-adv-x="2048" />
<glyph unicode="&#xd;" horiz-adv-x="2048" />
<glyph unicode=" "  horiz-adv-x="292" />
<glyph unicode="&#x09;" horiz-adv-x="292" />
<glyph unicode="&#xa0;" horiz-adv-x="292" />
<glyph unicode="&#x22;" horiz-adv-x="251" d="M209 1077l37 240h59l-39 -240h-57zM326 1077l39 240h57l-37 -240h-59z" />
<glyph unicode="#" horiz-adv-x="360" d="M70 229l8 56h53l41 260h-53l10 55h51l66 412h57l-65 -412h63l66 412h57l-66 -412h54l-11 -55h-53l-41 -260h53l-8 -56h-53l-35 -229h-57l35 229h-62l-37 -229h-57l37 229h-53zM188 285h62l41 260h-62z" />
<glyph unicode="$" horiz-adv-x="301" d="M61 80q0 27 2 43l37 235h66l-39 -256q-2 -4 -2 -10q0 -13 10 -24t27 -11t31.5 13t17.5 32l27 158q4 40 4 64q0 74 -38 206t-38 205q0 33 6 68l49 317q9 55 37.5 97t77.5 47l14 88h33l-14 -88q32 -6 50.5 -28.5t18.5 -53.5q0 -38 -6.5 -81.5t-18.5 -100.5t-16 -80h-65 q3 16 15 75t18 99.5t6 76.5q0 13 -8.5 22t-22.5 9q-17 0 -30 -12t-15 -27q-34 -208 -57 -360q-5 -25 -5 -60q0 -78 35 -188v-6q2 -6 7 -25t7 -26.5t6 -25.5t6 -28t5 -26.5t4.5 -29t2.5 -28t1 -30.5q0 -31 -2 -47l-22 -140q-9 -58 -37 -99.5t-78 -47.5l-16 -115h-35l18 115 q-32 3 -53 26.5t-21 57.5z" />
<glyph unicode="&#x26;" horiz-adv-x="333" d="M70 168l43 274q4 26 21 49t40 35q-44 29 -35 86l70 437q6 43 42.5 74.5t80.5 31.5h90l-8 -63h-92q-16 0 -30.5 -12.5t-17.5 -30.5l-71 -447q-3 -19 7.5 -32t27.5 -13h45l10 68h63l-10 -68h37l-12 -61h-35l-70 -437h-108q-43 0 -69 32.5t-19 76.5zM135 168q-3 -19 6.5 -32 t26.5 -13h45l57 373h-43q-17 0 -30.5 -13.5t-16.5 -31.5z" />
<glyph unicode="'" horiz-adv-x="215" d="M209 1077l110 240h70l-110 -240h-70z" />
<glyph unicode="(" horiz-adv-x="210" d="M41 -4l199 1241q6 44 43 75t82 31h24l-10 -63h-25q-19 0 -33.5 -12t-15.5 -31l-199 -1241q-3 -19 8.5 -32t30.5 -13h25l-12 -64h-25q-46 0 -72.5 31.5t-19.5 77.5z" />
<glyph unicode=")" horiz-adv-x="219" d="M25 -113l12 66h24q19 0 33 12t17 31l198 1241q0 19 -10.5 31t-28.5 12h-24l10 63h25q41 0 67.5 -25.5t26.5 -62.5q0 -3 -1 -9t-1 -9l-197 -1241q-7 -46 -44 -77.5t-83 -31.5h-24z" />
<glyph unicode="," horiz-adv-x="178" d="M-8 -102q28 65 108 237h70l-113 -237h-65z" />
<glyph unicode="-" horiz-adv-x="299" d="M133 467q1 15 10 65h176q-1 -15 -10 -65h-176z" />
<glyph unicode="." horiz-adv-x="264" d="M100 0l21 145h69l-22 -145h-68z" />
<glyph unicode="/" horiz-adv-x="294" d="M-2 -139q226 795 420 1472h65l-422 -1472h-63z" />
<glyph unicode="0" d="M70 102l168 1057q6 43 43.5 75t80.5 32q44 0 70.5 -32t20.5 -75l-168 -1057q-7 -45 -43.5 -76.5t-79.5 -31.5q-45 0 -72 31.5t-20 76.5zM135 102q-3 -19 7.5 -32t29.5 -13q18 0 31 13t16 32l86 543l-137 -332zM188 436l136 332l63 391q3 18 -7 30.5t-28 12.5 q-19 0 -32.5 -12t-16.5 -31z" />
<glyph unicode="1" horiz-adv-x="231" d="M84 0l199 1260h63l-199 -1260h-63z" />
<glyph unicode="2" d="M55 0q3 19 41 260q19 116 109 266l33 54q65 105 86 194l12 57q7 46 53 332v8q0 14 -9 22.5t-24 8.5q-38 0 -45 -39q-21 -123 -39 -243h-65l35 215q6 57 37.5 94t85.5 37q37 0 62 -22.5t26 -57.5q0 -17 -4 -49q-1 -9 -54 -334q-18 -105 -102 -250l-31 -51 q-85 -143 -100 -242l-33 -197h150l-9 -63h-215z" />
<glyph unicode="3" d="M70 102l43 265h65l-43 -265q-3 -19 7.5 -32t27.5 -13q19 0 33.5 13t17.5 32l47 308q3 19 -5.5 31t-26.5 12h-78l10 65h76q19 0 32.5 12.5t16.5 30.5l96 602q6 39 -35 39q-37 0 -43 -39l-39 -243h-65l39 243q8 43 41.5 73t77.5 30t70 -30t18 -73q-95 -590 -95 -592 q-6 -57 -59 -84q42 -30 33 -86l-47 -299q-7 -45 -43.5 -76.5t-81.5 -31.5t-71 31.5t-19 76.5z" />
<glyph unicode="4" d="M106 444l130 816h63l-129 -816q-2 -18 7.5 -30.5t27.5 -12.5h43l137 859h66l-138 -859h37l-10 -63h-35l-53 -338h-66l54 338h-43q-44 0 -71.5 31.5t-19.5 74.5z" />
<glyph unicode="5" d="M70 90q0 13 4 37l37 235h65q-7 -50 -41 -260v-8q0 -16 9 -26.5t26 -10.5q19 0 33.5 13t17.5 32l27 168q4 40 4 64q1 26 -3 55t-8.5 47.5t-13.5 52.5t-12 48l-8 30q-31 110 -31 181q0 31 6 65l72 447h207l-10 -66h-142l-61 -381q-6 -34 -6 -63q0 -66 34 -185 q41 -113 41 -221q0 -36 -6 -74l-26 -168q-8 -44 -44.5 -76t-80.5 -32q-43 0 -66.5 26.5t-23.5 69.5z" />
<glyph unicode="6" d="M70 102l168 1061q6 43 41 73t79 30t69 -30t17 -73l-38 -243h-66l39 243q6 39 -31 39q-39 0 -45 -39l-104 -661h43q44 0 70 -31.5t20 -77.5l-47 -291q-7 -45 -43.5 -76.5t-81.5 -31.5t-71 31.5t-19 76.5zM135 102q-3 -19 7 -32t28 -13t32 13t17 32l47 291q2 19 -8 32 t-27 13h-43z" />
<glyph unicode="7" d="M49 0q61 212 175.5 613.5t166.5 582.5h-153l10 64h227l-360 -1260h-66z" />
<glyph unicode="8" d="M70 102l45 287q10 58 63 84q-40 24 -33 82l97 608q8 43 42 73t78 30t69.5 -30t17.5 -73l-97 -608q-7 -57 -55 -82q42 -30 33 -84l-45 -287q-7 -45 -43.5 -76.5t-79.5 -31.5q-46 0 -72.5 31t-19.5 77zM135 102q-3 -19 7.5 -32t29.5 -13q17 0 30.5 13t16.5 32l47 293 q3 19 -7.5 32t-27.5 13q-18 0 -32 -13t-17 -32zM209 543q-6 -41 33 -41q37 0 43 41l98 620q6 39 -31 39q-39 0 -45 -39z" />
<glyph unicode="9" d="M74 82q0 2 1 6.5t1 7.5l39 242h65l-39 -242q0 -2 -1 -5t-1 -5q0 -31 33 -31q40 0 47 41l53 342h-43q-41 0 -66.5 26t-25.5 66q0 3 1 8.5t1 8.5l99 610q6 42 42.5 75.5t79.5 33.5q40 0 66.5 -27.5t26.5 -67.5v-14l-168 -1061q-5 -33 -46 -65.5t-79 -32.5t-62 23t-24 61z M205 539q0 -15 10 -26t25 -11h43l104 655q0 43 -37 43q-18 0 -32 -12.5t-17 -30.5q-16 -107 -48.5 -310.5t-47.5 -299.5v-8z" />
<glyph unicode=":" horiz-adv-x="260" d="M98 0l23 145h67l-20 -145h-70zM225 805l23 145h69l-22 -145h-70z" />
<glyph unicode=";" horiz-adv-x="262" d="M23 -102l110 237h70l-111 -237h-69zM227 805l23 145h69l-22 -145h-70z" />
<glyph unicode="@" horiz-adv-x="454" d="M37 -78q0 3 1 8.5t1 8.5l154 958q6 40 38.5 68t73.5 28h160q35 0 58.5 -23.5t23.5 -58.5v-14l-135 -854q-6 -37 -40 -66.5t-71 -29.5h-80q-37 0 -60.5 22t-23.5 56q0 10 2 16l97 616q6 41 39 70t73 29q36 0 59 -23t23 -59v-17q-8 -49 -88 -561q-7 -37 -10 -63h-37 q3 26 10 63q80 511 88 561v11q0 23 -14 37t-37 14q-25 0 -45.5 -18t-24.5 -44l-96 -616q0 -2 -1 -5.5t-1 -4.5q0 -22 14.5 -35.5t36.5 -13.5h78q26 0 46.5 18t25.5 43l135 854v8q0 23 -14 38t-37 15h-160q-27 0 -46 -17t-24 -44l-153 -958v-9q0 -23 14 -38t37 -15h180 l-6 -37h-180q-37 0 -60.5 23.5t-23.5 58.5z" />
<glyph unicode="A" horiz-adv-x="323" d="M31 0l80 342h-35l10 66h37l199 852h84l-107 -1260h-63l30 342h-96l-76 -342h-63zM184 408h88l66 684z" />
<glyph unicode="B" horiz-adv-x="313" d="M53 0l53 344h-38l10 64h39l135 852h106q44 0 71 -32q21 -25 22 -57q0 -9 -2 -18l-109 -694q-9 -54 -61 -84q35 -21 35 -69q0 -7 -1 -15l-30 -182q-6 -44 -42.5 -76.5t-80.5 -32.5h-107zM127 66h41q19 0 33.5 12t15.5 31l33 190q3 19 -7.5 32t-29.5 13h-43zM180 408h43 q18 0 32 12.5t17 30.5l111 702q1 5 1 9q0 13 -8 22q-10 12 -28 12h-43z" />
<glyph unicode="C" horiz-adv-x="296" d="M59 102l168 1057q6 44 42.5 75.5t82.5 31.5q44 0 70 -32q22 -26 21 -59q0 -8 -1 -16l-39 -239h-65l39 239q3 19 -7.5 31t-27.5 12q-19 0 -33.5 -12t-17.5 -31l-168 -1057q-3 -19 7.5 -31t29.5 -12q18 0 32 12.5t17 30.5l41 265h65l-41 -265q-8 -44 -44 -76t-80 -32 q-46 0 -72 32q-21 25 -20 58q0 9 1 18z" />
<glyph unicode="D" horiz-adv-x="303" d="M43 0l199 1260h106q45 0 72 -32q21 -25 22 -57q0 -9 -2 -18l-166 -1044q-6 -46 -42 -77.5t-82 -31.5h-107zM117 66h43q19 0 32.5 12t16.5 31l166 1044q1 4 1 8q0 14 -8 23q-10 12 -30 12h-41z" />
<glyph unicode="E" horiz-adv-x="256" d="M53 0l53 344h-36l10 64h37l135 852h176l-10 -64h-111l-125 -788h103l-11 -64h-102l-45 -278h111l-9 -66h-176z" />
<glyph unicode="F" horiz-adv-x="247" d="M49 0q7 49 53 344h-36q8 39 10 64h37l135 852h174l-10 -64h-111l-125 -788h105q-11 -62 -11 -64h-104q-7 -49 -53 -344h-64z" />
<glyph unicode="G" horiz-adv-x="296" d="M59 102l168 1057q6 44 43 75.5t82 31.5q44 0 70 -32q21 -25 21 -59q0 -8 -1 -16l-39 -239h-63l39 239q2 18 -8 30.5t-29 12.5t-32.5 -12t-16.5 -31l-168 -1057q-3 -19 7.5 -31t29.5 -12q18 0 32 12.5t17 30.5l35 230h-43l10 63h109l-48 -293q-6 -44 -42.5 -76t-79.5 -32 q-46 0 -73 32q-21 25 -21 58q0 9 1 18z" />
<glyph unicode="H" horiz-adv-x="292" d="M49 0l53 344h-36l10 64h37l135 852h65l-135 -852h74l135 852h66l-199 -1260h-66l54 344h-74l-53 -344h-66z" />
<glyph unicode="I" horiz-adv-x="159" d="M41 0l199 1260h65l-199 -1260h-65z" />
<glyph unicode="J" horiz-adv-x="276" d="M47 96l39 244h64l-39 -244q-6 -39 32 -39q39 0 45 39l185 1164h65l-184 -1164q-7 -43 -42.5 -72.5t-78.5 -29.5q-44 0 -69 29q-19 23 -19 54q0 9 2 19z" />
<glyph unicode="K" horiz-adv-x="335" d="M49 0q7 49 53 344h-34q2 15 10 64h35l135 852h65l-135 -852h33l240 852h61l-252 -881l62 -379h-68l-49 344h-37q-46 -295 -53 -344h-66z" />
<glyph unicode="L" horiz-adv-x="237" d="M45 0l199 1260h65l-190 -1194h112l-10 -66h-176z" />
<glyph unicode="M" horiz-adv-x="464" d="M49 0q34 213 95.5 607t86.5 552q6 44 41 75.5t78 31.5q56 0 72 -45q35 45 88 45q39 0 62.5 -25.5t23.5 -64.5v-17q-158 -1003 -182 -1159h-66q143 904 182 1157v8q0 15 -9 25t-25 10q-18 0 -32.5 -11.5t-17.5 -31.5q-143 -904 -182 -1157h-65q143 904 182 1157v8 q0 16 -11 25.5t-24 9.5q-20 0 -33.5 -12.5t-15.5 -30.5q-143 -904 -182 -1157h-66z" />
<glyph unicode="N" horiz-adv-x="307" d="M45 0l199 1260h106q39 0 65.5 -26t26.5 -63q0 -3 -1 -9t-1 -9l-180 -1153h-65l182 1153v6q0 37 -37 37h-41l-188 -1196h-66z" />
<glyph unicode="O" horiz-adv-x="299" d="M59 102l168 1057q6 43 43.5 75t81.5 32t70 -32q22 -26 21 -59q0 -8 -1 -16l-168 -1057q-8 -44 -44 -76t-80 -32t-71 32q-21 25 -21 58q0 9 1 18zM123 102q-1 -4 0 -8q-1 -14 7 -23q10 -12 30 -12q18 0 32 12.5t17 30.5l168 1057v6q1 15 -7 25q-10 12 -28 12 q-19 0 -33.5 -12t-17.5 -31z" />
<glyph unicode="P" horiz-adv-x="305" d="M47 0l53 344h-34l10 64h35l135 852h108q44 0 70 -32q21 -25 22 -57q0 -9 -2 -18l-110 -702q-8 -44 -44.5 -75.5t-80.5 -31.5h-43l-53 -344h-66zM176 408h43q18 0 32 12.5t17 30.5l111 702q1 5 1 9q0 13 -7 22q-9 12 -29 12h-43z" />
<glyph unicode="Q" horiz-adv-x="303" d="M59 102l168 1057q6 43 43.5 75t81.5 32q43 0 70 -32q21 -25 21 -59q0 -8 -1 -16l-168 -1057q-6 -36 -31.5 -64.5t-58.5 -37.5l-4 -25q-3 -18 8 -29.5t29 -11.5h25l-9 -59h-26q-45 0 -72 27q-21 21 -21 53q0 9 1 18l4 27q-31 11 -49 39q-13 21 -13 46q0 8 2 17zM123 102 q-1 -4 -1 -8q0 -14 8 -23q11 -12 30 -12q18 0 32 12.5t17 30.5l168 1057v6q0 14 -7 25q-10 12 -28 12q-19 0 -33.5 -12t-17.5 -31z" />
<glyph unicode="R" horiz-adv-x="313" d="M51 0l53 344h-36l10 64h37l135 852h108q43 0 69 -32q20 -25 21 -57q0 -9 -2 -18l-108 -694q-10 -57 -62 -84q36 -24 36 -70q0 -7 -1 -14l-45 -291h-65l47 299q3 19 -7.5 32t-27.5 13h-43l-53 -344h-66zM180 408h43q17 0 31.5 13t17.5 30l111 702q1 4 1 8q0 14 -8 23 q-10 12 -28 12h-43z" />
<glyph unicode="S" horiz-adv-x="299" d="M59 84q0 18 7 43l34 231h66l-39 -256q0 -2 -1 -4.5t-1 -3.5q0 -14 10 -24.5t27 -10.5q18 0 32 12.5t17 30.5l27 158q4 40 4 64q0 73 -38 205.5t-38 207.5q0 31 6 66l53 334q6 56 39 92.5t86 36.5q39 0 63.5 -23.5t24.5 -60.5q0 -23 -6 -41l-35 -221h-65q24 141 39 243v11 q0 28 -31 28q-39 0 -45 -39q-34 -208 -57 -360q-5 -25 -5 -60q0 -79 35 -186l13 -55q26 -114 26 -168v-8q0 -39 -12 -113t-14 -90l-13 -45q-14 -37 -46 -60.5t-70 -23.5q-40 0 -66.5 26t-26.5 64z" />
<glyph unicode="T" horiz-adv-x="245" d="M88 0l188 1196h-71l10 64h213l-10 -64h-76l-188 -1196h-66z" />
<glyph unicode="U" horiz-adv-x="301" d="M57 88q0 2 1 6.5t1 7.5l185 1158h63q-30 -193 -91.5 -579.5t-90.5 -578.5v-8q0 -15 10 -25t27 -10q18 0 31.5 12.5t15.5 30.5l184 1158h66l-185 -1158q-8 -44 -43.5 -76t-78.5 -32q-41 0 -68 27t-27 67z" />
<glyph unicode="V" horiz-adv-x="317" d="M117 0l108 1260h64l-105 -1090l240 1090h63l-288 -1260h-82z" />
<glyph unicode="W" horiz-adv-x="456" d="M61 80q0 12 2 20q30 199 92 586t91 574h65l-184 -1158q0 -43 35 -43q17 0 32.5 11.5t18.5 31.5q30 193 91.5 579t90.5 579h66l-185 -1158v-8q0 -16 10.5 -25.5t24.5 -9.5q20 0 34 12.5t17 30.5q30 192 92 578.5t91 579.5h65l-184 -1160q-8 -44 -42 -75t-77 -31 q-54 0 -74 45q-31 -45 -86 -45q-39 0 -62.5 24.5t-23.5 61.5z" />
<glyph unicode="X" horiz-adv-x="309" d="M31 0l123 379l77 881h64l-86 -852h18l185 852h63q-87 -373 -201 -881l5 -379h-66l6 344h-2h-10h-10q-40 -131 -101 -344h-65z" />
<glyph unicode="Y" horiz-adv-x="317" d="M125 0q10 75 47 309q11 211 53 951h64q-10 -127 -29 -382t-29 -382l189 764h65l-249 -951q-3 -24 -48 -309h-63z" />
<glyph unicode="Z" horiz-adv-x="311" d="M45 0l340 1196h-152l11 64h225l-342 -1194h149l-8 -66h-223z" />
<glyph unicode="\" horiz-adv-x="294" d="M182 -139l47 1472h66l-47 -1472h-66z" />
<glyph unicode="_" horiz-adv-x="479" d="M16 -92l9 49h413l-8 -49h-414z" />
<glyph unicode="a" horiz-adv-x="323" d="M31 0l80 342h-35l10 66h37l199 852h84l-107 -1260h-63l30 342h-96l-76 -342h-63zM184 408h88l66 684z" />
<glyph unicode="b" horiz-adv-x="313" d="M53 0l53 344h-38l10 64h39l135 852h106q44 0 71 -32q21 -25 22 -57q0 -9 -2 -18l-109 -694q-9 -54 -61 -84q35 -21 35 -69q0 -7 -1 -15l-30 -182q-6 -44 -42.5 -76.5t-80.5 -32.5h-107zM127 66h41q19 0 33.5 12t15.5 31l33 190q3 19 -7.5 32t-29.5 13h-43zM180 408h43 q18 0 32 12.5t17 30.5l111 702q1 5 1 9q0 13 -8 22q-10 12 -28 12h-43z" />
<glyph unicode="c" horiz-adv-x="296" d="M59 102l168 1057q6 44 42.5 75.5t82.5 31.5q44 0 70 -32q22 -26 21 -59q0 -8 -1 -16l-39 -239h-65l39 239q3 19 -7.5 31t-27.5 12q-19 0 -33.5 -12t-17.5 -31l-168 -1057q-3 -19 7.5 -31t29.5 -12q18 0 32 12.5t17 30.5l41 265h65l-41 -265q-8 -44 -44 -76t-80 -32 q-46 0 -72 32q-21 25 -20 58q0 9 1 18z" />
<glyph unicode="d" horiz-adv-x="303" d="M43 0l199 1260h106q45 0 72 -32q21 -25 22 -57q0 -9 -2 -18l-166 -1044q-6 -46 -42 -77.5t-82 -31.5h-107zM117 66h43q19 0 32.5 12t16.5 31l166 1044q1 4 1 8q0 14 -8 23q-10 12 -30 12h-41z" />
<glyph unicode="e" horiz-adv-x="256" d="M53 0l53 344h-36l10 64h37l135 852h176l-10 -64h-111l-125 -788h103l-11 -64h-102l-45 -278h111l-9 -66h-176z" />
<glyph unicode="f" horiz-adv-x="247" d="M49 0q7 49 53 344h-36q8 39 10 64h37l135 852h174l-10 -64h-111l-125 -788h105q-11 -62 -11 -64h-104q-7 -49 -53 -344h-64z" />
<glyph unicode="g" horiz-adv-x="296" d="M59 102l168 1057q6 44 43 75.5t82 31.5q44 0 70 -32q21 -25 21 -59q0 -8 -1 -16l-39 -239h-63l39 239q2 18 -8 30.5t-29 12.5t-32.5 -12t-16.5 -31l-168 -1057q-3 -19 7.5 -31t29.5 -12q18 0 32 12.5t17 30.5l35 230h-43l10 63h109l-48 -293q-6 -44 -42.5 -76t-79.5 -32 q-46 0 -73 32q-21 25 -21 58q0 9 1 18z" />
<glyph unicode="h" horiz-adv-x="292" d="M49 0l53 344h-36l10 64h37l135 852h65l-135 -852h74l135 852h66l-199 -1260h-66l54 344h-74l-53 -344h-66z" />
<glyph unicode="i" horiz-adv-x="159" d="M41 0l199 1260h65l-199 -1260h-65z" />
<glyph unicode="j" horiz-adv-x="276" d="M47 96l39 244h64l-39 -244q-6 -39 32 -39q39 0 45 39l185 1164h65l-184 -1164q-7 -43 -42.5 -72.5t-78.5 -29.5q-44 0 -69 29q-19 23 -19 54q0 9 2 19z" />
<glyph unicode="k" horiz-adv-x="335" d="M49 0q7 49 53 344h-34q2 15 10 64h35l135 852h65l-135 -852h33l240 852h61l-252 -881l62 -379h-68l-49 344h-37q-46 -295 -53 -344h-66z" />
<glyph unicode="l" horiz-adv-x="237" d="M45 0l199 1260h65l-190 -1194h112l-10 -66h-176z" />
<glyph unicode="m" horiz-adv-x="464" d="M49 0q34 213 95.5 607t86.5 552q6 44 41 75.5t78 31.5q56 0 72 -45q35 45 88 45q39 0 62.5 -25.5t23.5 -64.5v-17q-158 -1003 -182 -1159h-66q143 904 182 1157v8q0 15 -9 25t-25 10q-18 0 -32.5 -11.5t-17.5 -31.5q-143 -904 -182 -1157h-65q143 904 182 1157v8 q0 16 -11 25.5t-24 9.5q-20 0 -33.5 -12.5t-15.5 -30.5q-143 -904 -182 -1157h-66z" />
<glyph unicode="n" horiz-adv-x="307" d="M45 0l199 1260h106q39 0 65.5 -26t26.5 -63q0 -3 -1 -9t-1 -9l-180 -1153h-65l182 1153v6q0 37 -37 37h-41l-188 -1196h-66z" />
<glyph unicode="o" horiz-adv-x="299" d="M59 102l168 1057q6 43 43.5 75t81.5 32t70 -32q22 -26 21 -59q0 -8 -1 -16l-168 -1057q-8 -44 -44 -76t-80 -32t-71 32q-21 25 -21 58q0 9 1 18zM123 102q-1 -4 0 -8q-1 -14 7 -23q10 -12 30 -12q18 0 32 12.5t17 30.5l168 1057v6q1 15 -7 25q-10 12 -28 12 q-19 0 -33.5 -12t-17.5 -31z" />
<glyph unicode="p" horiz-adv-x="305" d="M47 0l53 344h-34l10 64h35l135 852h108q44 0 70 -32q21 -24 21 -57q0 -9 -1 -18l-110 -702q-8 -44 -44.5 -75.5t-80.5 -31.5h-43l-53 -344h-66zM176 408h43q18 0 32 12.5t17 30.5l111 702q1 5 1 9q0 13 -7 22q-9 12 -29 12h-43z" />
<glyph unicode="q" horiz-adv-x="303" d="M59 102l168 1057q6 43 43.5 75t81.5 32q43 0 70 -32q21 -25 21 -59q0 -8 -1 -16l-168 -1057q-6 -36 -31.5 -64.5t-58.5 -37.5l-4 -25q-3 -18 8 -29.5t29 -11.5h25l-9 -59h-26q-45 0 -72 27q-21 21 -21 53q0 9 1 18l4 27q-31 11 -49 39q-13 21 -13 46q0 8 2 17zM123 102 q-1 -4 -1 -8q0 -14 8 -23q11 -12 30 -12q18 0 32 12.5t17 30.5l168 1057v6q0 14 -7 25q-10 12 -28 12q-19 0 -33.5 -12t-17.5 -31z" />
<glyph unicode="r" horiz-adv-x="313" d="M51 0l53 344h-36l10 64h37l135 852h108q43 0 69 -32q20 -25 21 -57q0 -9 -2 -18l-108 -694q-10 -57 -62 -84q36 -24 36 -70q0 -7 -1 -14l-45 -291h-65l47 299q3 19 -7.5 32t-27.5 13h-43l-53 -344h-66zM180 408h43q17 0 31.5 13t17.5 30l111 702q1 4 1 8q0 14 -8 23 q-10 12 -28 12h-43z" />
<glyph unicode="s" horiz-adv-x="299" d="M59 84q0 18 7 43l34 231h66l-39 -256q0 -2 -1 -4.5t-1 -3.5q0 -14 10 -24.5t27 -10.5q18 0 32 12.5t17 30.5l27 158q4 40 4 64q0 73 -38 205.5t-38 207.5q0 31 6 66l53 334q6 56 39 92.5t86 36.5q39 0 63.5 -23.5t24.5 -60.5q0 -23 -6 -41l-35 -221h-65q24 141 39 243v11 q0 28 -31 28q-39 0 -45 -39q-34 -208 -57 -360q-5 -25 -5 -60q0 -79 35 -186l13 -55q26 -114 26 -168v-8q0 -39 -12 -113t-14 -90l-13 -45q-14 -37 -46 -60.5t-70 -23.5q-40 0 -66.5 26t-26.5 64z" />
<glyph unicode="t" horiz-adv-x="245" d="M88 0l188 1196h-71l10 64h213l-10 -64h-76l-188 -1196h-66z" />
<glyph unicode="u" horiz-adv-x="301" d="M57 88q0 2 1 6.5t1 7.5l185 1158h63q-30 -193 -91.5 -579.5t-90.5 -578.5v-8q0 -15 10 -25t27 -10q18 0 31.5 12.5t15.5 30.5l184 1158h66l-185 -1158q-8 -44 -43.5 -76t-78.5 -32q-41 0 -68 27t-27 67z" />
<glyph unicode="v" horiz-adv-x="317" d="M117 0l108 1260h64l-105 -1090l240 1090h63l-288 -1260h-82z" />
<glyph unicode="w" horiz-adv-x="456" d="M61 80q0 12 2 20q30 199 92 586t91 574h65l-184 -1158q0 -43 35 -43q17 0 32.5 11.5t18.5 31.5q30 193 91.5 579t90.5 579h66l-185 -1158v-8q0 -16 10.5 -25.5t24.5 -9.5q20 0 34 12.5t17 30.5q30 192 92 578.5t91 579.5h65l-184 -1160q-8 -44 -42 -75t-77 -31 q-54 0 -74 45q-31 -45 -86 -45q-39 0 -62.5 24.5t-23.5 61.5z" />
<glyph unicode="x" horiz-adv-x="309" d="M31 0l123 379l77 881h64l-86 -852h18l185 852h63q-87 -373 -201 -881l5 -379h-66l6 344h-2h-10h-10q-40 -131 -101 -344h-65z" />
<glyph unicode="y" horiz-adv-x="317" d="M125 0q10 75 47 309q11 211 53 951h64q-10 -127 -29 -382t-29 -382l189 764h65l-249 -951q-3 -24 -48 -309h-63z" />
<glyph unicode="z" horiz-adv-x="311" d="M45 0l340 1196h-152l11 64h225l-342 -1194h149l-8 -66h-223z" />
<glyph unicode="&#xad;" horiz-adv-x="299" d="M133 467q1 15 10 65h176q-1 -15 -10 -65h-176z" />
<glyph unicode="&#x2000;" horiz-adv-x="682" />
<glyph unicode="&#x2001;" horiz-adv-x="1365" />
<glyph unicode="&#x2002;" horiz-adv-x="682" />
<glyph unicode="&#x2003;" horiz-adv-x="1365" />
<glyph unicode="&#x2004;" horiz-adv-x="455" />
<glyph unicode="&#x2005;" horiz-adv-x="341" />
<glyph unicode="&#x2006;" horiz-adv-x="227" />
<glyph unicode="&#x2007;" horiz-adv-x="227" />
<glyph unicode="&#x2008;" horiz-adv-x="170" />
<glyph unicode="&#x2009;" horiz-adv-x="273" />
<glyph unicode="&#x200a;" horiz-adv-x="75" />
<glyph unicode="&#x2010;" horiz-adv-x="299" d="M133 467q1 15 10 65h176q-1 -15 -10 -65h-176z" />
<glyph unicode="&#x2011;" horiz-adv-x="299" d="M133 467q1 15 10 65h176q-1 -15 -10 -65h-176z" />
<glyph unicode="&#x2012;" horiz-adv-x="299" d="M133 467q1 15 10 65h176q-1 -15 -10 -65h-176z" />
<glyph unicode="&#x2013;" horiz-adv-x="1137" d="M133 467q6 15 55 65h969q-6 -15 -55 -65h-969z" />
<glyph unicode="&#x2014;" horiz-adv-x="2161" d="M133 467q11 15 110 65h1938q-11 -15 -110 -65h-1938z" />
<glyph unicode="&#x2018;" horiz-adv-x="215" d="M244 1317h69l37 -240h-69z" />
<glyph unicode="&#x2019;" horiz-adv-x="212" d="M209 1077l110 240h70l-110 -240h-70z" />
<glyph unicode="&#x201c;" horiz-adv-x="350" d="M281 1317h69l37 -240h-70zM342 1317h70l37 -240h-70z" />
<glyph unicode="&#x201d;" horiz-adv-x="360" d="M213 1077l111 240h69l-110 -240h-70zM344 1077l111 240h69l-110 -240h-70z" />
<glyph unicode="&#x2026;" horiz-adv-x="794" d="M100 0l21 145h69l-22 -145h-68zM365 0l22 145h68l-21 -145h-69zM631 0l20 145h70l-23 -145h-67z" />
<glyph unicode="&#x202f;" horiz-adv-x="273" />
<glyph unicode="&#x205f;" horiz-adv-x="341" />
<glyph unicode="&#xe000;" horiz-adv-x="1259" d="M0 0v1260h1260v-1260h-1260z" />
</font>
</defs>
</svg>
