<?xml version="1.0" standalone="no"?>
<!DOCTYPE svg PUBLIC "-//W3C//DTD SVG 1.1//EN" "http://www.w3.org/Graphics/SVG/1.1/DTD/svg11.dtd" >
<svg xmlns="http://www.w3.org/2000/svg">
<metadata></metadata>
<defs>
<font id="valenciaitalic" horiz-adv-x="366" >
<font-face units-per-em="2048" ascent="1536" descent="-512" />
<missing-glyph horiz-adv-x="292" />
<glyph horiz-adv-x="2048" />
<glyph horiz-adv-x="2048" />
<glyph unicode="&#xd;" horiz-adv-x="2048" />
<glyph unicode=" "  horiz-adv-x="292" />
<glyph unicode="&#x09;" horiz-adv-x="292" />
<glyph unicode="&#xa0;" horiz-adv-x="292" />
<glyph unicode="&#x22;" horiz-adv-x="323" d="M197 1044l45 281h98l-45 -281h-98zM358 1044l45 281h99l-45 -281h-99z" />
<glyph unicode="#" horiz-adv-x="430" d="M70 223l14 94h63l33 211h-63l16 95h64l63 401h96l-63 -401h31l63 401h96l-63 -401h63l-16 -95h-64l-32 -211h63l-14 -94h-64l-34 -223h-97l35 223h-31l-34 -223h-97l35 223h-63zM244 317h30l33 211h-31z" />
<glyph unicode="$" horiz-adv-x="335" d="M66 123l40 264h113l-41 -264q-2 -7 2.5 -13t12.5 -6q14 0 18 19l25 151q9 61 1 116t-30 128l-4 12q-46 163 -31 269l55 346q7 46 43 80.5t80 40.5l15 86h49l-15 -86q41 -9 63 -42.5t15 -78.5l-41 -260h-112l41 260q1 8 -1 10t-8 2q-14 0 -16 -12l-55 -346 q-8 -54 -0.5 -105t28.5 -125h2l2 -14q11 -38 17 -62t13.5 -67t6 -72.5t-5.5 -79.5l-24 -151q-7 -47 -43 -83t-82 -44l-17 -111h-49l17 111q-43 8 -67 44t-17 83z" />
<glyph unicode="&#x26;" horiz-adv-x="360" d="M72 186l41 256q10 59 61 90q-42 31 -33 93l64 409q9 53 52 90t95 37h113l-16 -110h-113q-5 0 -11.5 -5t-7.5 -12l-67 -430q-1 -7 2.5 -12.5t9.5 -5.5h19l10 65h110l-10 -65h35l-18 -109h-35l-66 -420h-129q-53 0 -84 37.5t-22 91.5zM184 186q-1 -7 2 -12.5t9 -5.5h18 l49 309h-18q-4 0 -9.5 -6t-7.5 -12z" />
<glyph unicode="'" horiz-adv-x="270" d="M197 1044l131 281h118l-131 -281h-118z" />
<glyph unicode="(" horiz-adv-x="245" d="M45 20l191 1197q7 52 51 89t98 37h47l-16 -110h-47q-21 0 -21 -16l-190 -1197q-1 -7 3.5 -12.5t12.5 -5.5h47l-18 -111h-47q-56 0 -88 37t-23 92z" />
<glyph unicode=")" horiz-adv-x="260" d="M27 -109l18 111h47q17 0 21 18l190 1197q0 16 -16 16h-47l16 110h47q54 0 86.5 -36.5t24.5 -89.5l-191 -1197q-9 -56 -51.5 -92.5t-97.5 -36.5h-47z" />
<glyph unicode="," horiz-adv-x="245" d="M-6 -100l127 280h119l-129 -280h-117z" />
<glyph unicode="-" horiz-adv-x="333" d="M133 451l19 110h202l-18 -110h-203z" />
<glyph unicode="." horiz-adv-x="313" d="M100 0l29 188h115l-29 -188h-115z" />
<glyph unicode="/" horiz-adv-x="346" d="M0 -135l420 1468h112l-419 -1468h-113z" />
<glyph unicode="0" d="M74 123l162 1018q7 52 51.5 89.5t97.5 37.5q52 0 83.5 -37t23.5 -90l-162 -1018q-9 -54 -52 -91.5t-96 -37.5q-54 0 -85.5 37.5t-22.5 91.5zM184 123q-1 -7 4 -13t13 -6q11 0 16 19l66 418l-47 -97zM262 612l47 97l70 432q0 16 -12 16q-18 0 -21 -16z" />
<glyph unicode="1" horiz-adv-x="270" d="M82 0l199 1262h110l-198 -1262h-111z" />
<glyph unicode="2" d="M55 0l43 274q7 51 29 107.5t38.5 86.5t49.5 87l10 14q31 52 46.5 80.5t32 70t22.5 79.5l55 346q3 12 -10 12q-14 0 -17 -12l-41 -260h-110l41 260q7 52 48.5 87.5t94.5 35.5q52 0 82.5 -36t22.5 -87l-56 -346q-9 -67 -37 -129t-75 -140l-7 -12q-46 -74 -71.5 -128.5 t-34.5 -115.5l-27 -163h144l-17 -111h-256z" />
<glyph unicode="3" d="M74 123l45 278h112l-45 -278q-1 -7 3 -13t10 -6q16 0 20 19l49 313q4 17 -12 17h-98l16 112h98q8 0 13.5 5.5t5.5 11.5l90 563q1 7 -1.5 9.5t-10.5 2.5q-13 0 -15 -12l-41 -260h-110l41 260q7 52 48.5 87.5t94.5 35.5q52 0 82.5 -36t22.5 -87q-86 -541 -86 -545 q-9 -57 -60 -90q40 -35 31 -90l-47 -297q-9 -54 -52.5 -91.5t-97.5 -37.5q-53 0 -84 37.5t-22 91.5z" />
<glyph unicode="4" d="M109 453l127 809h110l-127 -809q-4 -17 12 -17h17l131 826h113l-132 -826h35l-16 -110h-35l-51 -326h-113l51 326h-16q-53 0 -84 37.5t-22 89.5z" />
<glyph unicode="5" d="M74 123l43 274h112l-43 -274q-2 -6 2 -12.5t11 -6.5q16 0 20 19l27 162q2 42 3.5 65t-5.5 60.5t-12.5 58.5t-16.5 59l-4 13l-7.5 30t-8 33t-6.5 30t-6 34t-3.5 32t-2.5 35.5t1 34t4 37.5l72 455h250l-17 -111h-137l-55 -344q-14 -94 27 -227l4 -15q15 -50 22 -83.5 t12.5 -92.5t-4.5 -104l-26 -162q-9 -54 -52.5 -91.5t-97.5 -37.5q-53 0 -84 37.5t-22 91.5z" />
<glyph unicode="6" d="M72 123l161 1022q8 51 51 87t97 36q52 0 81 -35t21 -88l-41 -260h-112l41 260q1 8 -1 10t-8 2q-14 0 -16 -12l-96 -613h16q54 0 85.5 -37.5t23.5 -91.5l-45 -280q-9 -54 -52.5 -91.5t-97.5 -37.5q-53 0 -85 37.5t-23 91.5zM184 123q-2 -8 3 -13.5t12 -5.5q14 0 18 19 l45 280q0 19 -14 19h-17z" />
<glyph unicode="7" d="M45 0l330 1151h-144l17 111h270l-360 -1262h-113z" />
<glyph unicode="8" d="M74 123l43 268q10 59 61 90q-38 28 -28 90l90 574q7 52 49 87.5t96 35.5q52 0 81 -35t21 -88l-90 -574q-10 -59 -57 -90q42 -34 33 -90l-43 -268q-9 -54 -52 -91.5t-96 -37.5q-54 0 -85.5 37.5t-22.5 91.5zM186 123q-2 -8 3 -13.5t12 -5.5q12 0 16 19l45 283 q1 7 -2.5 12.5t-9.5 5.5q-15 0 -19 -18zM258 547q-1 -10 1 -12.5t9 -2.5q11 0 13 15l94 598q1 8 -1 10t-7 2q-13 0 -15 -12z" />
<glyph unicode="9" d="M80 117l39 258h112l-38 -258q-2 -11 -0.5 -13t8.5 -2q13 0 16 15l47 305h-16q-54 0 -84.5 37.5t-22.5 91.5l95 588q7 54 50 91.5t97 37.5q53 0 84.5 -37.5t24.5 -91.5l-162 -1022q-9 -52 -51 -87.5t-95 -35.5q-54 0 -83.5 35t-20.5 88zM252 551q-2 -8 2.5 -13.5 t11.5 -5.5h17l96 607q0 16 -14 16q-19 0 -19 -16z" />
<glyph unicode=":" horiz-adv-x="303" d="M98 0l29 188h115l-29 -188h-115zM221 776l29 189h115l-29 -189h-115z" />
<glyph unicode=";" horiz-adv-x="313" d="M18 -100l129 280h119l-129 -280h-119zM225 776l29 189h117l-29 -189h-117z" />
<glyph unicode="@" horiz-adv-x="479" d="M20 -82l156 979q6 43 42.5 73.5t80.5 30.5h193q44 0 70 -30.5t20 -73.5l-136 -854q-6 -41 -42.5 -73.5t-77.5 -32.5h-97q-44 0 -70.5 30.5t-19.5 73.5l97 616q8 44 44 75.5t80 31.5t70 -31.5t19 -75.5l-101 -634h-55l100 634q4 22 -8.5 37t-34.5 15q-21 0 -37.5 -15 t-21.5 -37l-96 -616q-4 -22 8.5 -36.5t34.5 -14.5h94q22 0 39 15.5t20 37.5l135 854q3 22 -9 36.5t-34 14.5h-192q-22 0 -39.5 -14.5t-20.5 -36.5l-155 -979q-3 -22 9 -36.5t34 -14.5h188l-8 -55h-188q-44 0 -70.5 31t-20.5 75z" />
<glyph unicode="A" horiz-adv-x="374" d="M33 0l76 330h-31l18 112h37l189 822h137l-109 -1264h-110l32 330h-59l-70 -330h-110zM238 442h47l57 506z" />
<glyph unicode="B" horiz-adv-x="348" d="M61 0l52 332h-37l18 110h37l129 822h127q53 0 85 -38q25 -29 26 -67q0 -11 -2 -22l-105 -660q-6 -57 -61 -90q34 -25 34 -71q0 -10 -2 -21l-26 -166q-7 -52 -51 -90.5t-97 -38.5h-127zM188 113h17q18 0 18 16l31 184q2 8 -2.5 13.5t-11.5 5.5h-17zM242 442h16q14 0 18 17 l107 678q1 3 1 5q0 11 -13 11h-17z" />
<glyph unicode="C" horiz-adv-x="327" d="M61 125l162 1016q7 54 51.5 91.5t98.5 37.5q52 0 83 -38q25 -30 25 -70q0 -10 -2 -21l-41 -254h-112l41 254q1 7 -3 12.5t-10 5.5q-16 0 -20 -18l-162 -1016q-1 -7 3.5 -13t12.5 -6q13 0 17 19l45 278h112l-45 -278q-7 -54 -50.5 -92.5t-96.5 -38.5q-54 0 -86 38 q-25 30 -25 70q0 11 2 23z" />
<glyph unicode="D" horiz-adv-x="339" d="M43 0l199 1264h127q53 0 85 -38q25 -29 25 -67q0 -11 -2 -22l-160 -1008q-7 -54 -50 -91.5t-97 -37.5h-127zM170 113h16q19 0 19 16l160 1008q3 16 -13 16h-16z" />
<glyph unicode="E" horiz-adv-x="296" d="M61 0l52 332h-35l18 110h35l129 822h219l-16 -111h-107l-112 -711h98l-18 -110h-99l-35 -219h107l-16 -113h-220z" />
<glyph unicode="F" horiz-adv-x="282" d="M53 0l51 332h-34l18 110h35l129 822h217l-16 -111h-107l-113 -711h101l-19 -110h-100l-51 -332h-111z" />
<glyph unicode="G" horiz-adv-x="327" d="M63 125l162 1016q7 54 51.5 91.5t98.5 37.5q52 0 83 -38q25 -29 25 -70q0 -10 -2 -21l-41 -254h-110l41 254q0 18 -15 18q-14 0 -18 -18l-162 -1016q-2 -8 2.5 -13.5t11.5 -5.5q8 0 13.5 6t5.5 13l31 194h-21l19 111h131l-50 -305q-7 -54 -50.5 -92.5t-96.5 -38.5 q-54 0 -86 38q-25 30 -25 70q0 11 2 23z" />
<glyph unicode="H" horiz-adv-x="333" d="M55 0l51 332h-36l18 110h37l129 822h111l-129 -822h26l129 822h113l-199 -1264h-112l51 332h-27l-51 -332h-111z" />
<glyph unicode="I" horiz-adv-x="188" d="M37 0l199 1264h112l-198 -1264h-113z" />
<glyph unicode="J" horiz-adv-x="319" d="M51 119l41 258h111l-41 -258q-2 -15 10 -15q13 0 16 15l181 1145h110l-180 -1145q-9 -53 -51 -89t-94 -36q-53 0 -82 36q-23 27 -23 65q0 11 2 24z" />
<glyph unicode="K" horiz-adv-x="378" d="M53 0l51 332h-32l18 110h33l129 822h113l-129 -822h8l215 822h106l-239 -871l55 -393h-117l-31 332h-16l-51 -332h-113z" />
<glyph unicode="L" horiz-adv-x="276" d="M47 0l199 1264h110l-182 -1151h109l-17 -113h-219z" />
<glyph unicode="M" horiz-adv-x="505" d="M49 0l180 1143q8 54 47 90.5t91 36.5q24 0 40.5 -8t21.5 -15.5t11 -19.5q12 13 19.5 20t27 15t43.5 8q52 0 78 -36q20 -28 21 -67q0 -12 -2 -24l-181 -1143h-110l180 1139q0 18 -14 18q-16 0 -19 -18l-180 -1139h-110l180 1139q1 9 -4.5 13.5t-10.5 4.5q-8 0 -13 -5.5 t-5 -12.5l-180 -1139h-111z" />
<glyph unicode="N" horiz-adv-x="342" d="M45 0l199 1264h127q53 0 85 -37q24 -29 25 -67q0 -11 -2 -23l-178 -1137h-111l179 1137q3 16 -15 16h-14l-182 -1153h-113z" />
<glyph unicode="O" horiz-adv-x="331" d="M61 125l162 1016q8 53 52 91t98 38q52 0 83 -38q25 -30 25 -70q0 -10 -2 -21l-162 -1016q-7 -54 -50.5 -92.5t-96.5 -38.5q-54 0 -86 38q-25 31 -25 72q0 10 2 21zM172 125q-1 -7 3.5 -13t12.5 -6q7 0 12 6t5 13l162 1016q0 18 -13 18q-16 0 -20 -18z" />
<glyph unicode="P" horiz-adv-x="333" d="M51 0l51 332h-32l18 110h33l129 822h129q55 0 85 -37q24 -29 23 -67q0 -11 -2 -23l-106 -678q-8 -53 -51 -90t-97 -37h-16l-51 -332h-113zM233 442h17q14 0 18 17l107 678q1 3 1 6q0 10 -14 10h-16z" />
<glyph unicode="Q" horiz-adv-x="342" d="M61 125l162 1016q8 53 52 91t98 38q52 0 83 -38q25 -29 25 -70q0 -10 -2 -21l-162 -1016q-6 -38 -30 -70t-58 -47l-2 -20q-1 -7 3 -13t10 -6h47l-15 -98h-47q-56 0 -88 29q-26 22 -26 64q0 10 2 22l4 20q-30 18 -46 50q-12 23 -12 49q0 10 2 20zM172 125q-1 -7 3.5 -13 t12.5 -6q7 0 12 6t5 13l162 1016q0 18 -13 18q-16 0 -20 -18z" />
<glyph unicode="R" horiz-adv-x="348" d="M57 0l52 332h-35l18 110h35l129 822h129q53 0 85 -38q24 -29 24 -67q0 -11 -2 -22l-105 -662q-9 -58 -59 -90q32 -26 32 -69q0 -10 -2 -21l-45 -295h-110l49 313q1 7 -3.5 13t-10.5 6h-17l-51 -332h-113zM240 442h16q6 0 11 5.5t7 11.5l107 678q1 6 -2.5 11t-9.5 5h-17z " />
<glyph unicode="S" horiz-adv-x="331" d="M66 125l40 262h113l-41 -262q0 -19 15 -19q14 0 18 19l25 151q5 32 5 62q0 26 -4 52q-8 54 -30 130l-4 12q-35 123 -35 212q0 29 4 55l55 346q7 52 50.5 88.5t97.5 36.5q53 0 82 -36q22 -27 22 -64q0 -12 -2 -25l-41 -258h-112l41 258q1 7 -0.5 10t-3 3.5t-5.5 0.5 q-13 0 -16 -14l-55 -346q-4 -28 -4 -55q-1 -25 3 -50q8 -51 29 -123h2l2 -16q35 -120 36 -215q0 -34 -5 -64l-24 -151q-9 -55 -52.5 -93t-97.5 -38t-85 38q-25 31 -25 71q0 11 2 22z" />
<glyph unicode="T" horiz-adv-x="274" d="M80 0l182 1153h-69l16 111h254l-17 -111h-71l-182 -1153h-113z" />
<glyph unicode="U" horiz-adv-x="337" d="M63 125l181 1139h110l-180 -1139q-1 -7 3.5 -13t12.5 -6q7 0 12 6t5 13l180 1139h113l-181 -1139q-7 -54 -50.5 -92.5t-96.5 -38.5q-54 0 -86 38q-25 31 -25 72q0 10 2 21z" />
<glyph unicode="V" horiz-adv-x="354" d="M106 0l113 1264h111l-105 -949l193 949h110l-284 -1264h-138z" />
<glyph unicode="W" horiz-adv-x="481" d="M57 121l181 1143h110l-180 -1139q0 -19 14 -19q5 0 11.5 5t7.5 14l180 1139h111l-181 -1139q-1 -9 4.5 -14t10.5 -5q8 0 13 6t5 13l180 1139h111l-180 -1143q-9 -55 -47.5 -91t-90.5 -36q-24 0 -41 8t-21.5 14.5t-12.5 20.5q-33 -43 -88 -43q-52 0 -79 36q-20 27 -20 65 q0 12 2 26z" />
<glyph unicode="X" horiz-adv-x="339" d="M18 0l127 391l72 873h111l-88 -822h2l170 822h110l-203 -873l5 -391h-113l16 332h-4h-6l-86 -332h-113z" />
<glyph unicode="Y" horiz-adv-x="356" d="M119 0l49 322l51 942h111l-60 -631l142 631h112l-245 -942l-50 -322h-110z" />
<glyph unicode="Z" horiz-adv-x="342" d="M39 0l330 1153h-144l17 111h270l-330 -1151h142l-17 -113h-268z" />
<glyph unicode="\" horiz-adv-x="346" d="M186 -135l47 1468h113l-47 -1468h-113z" />
<glyph unicode="_" horiz-adv-x="512" d="M12 -123l13 80h446l-12 -80h-447z" />
<glyph unicode="a" horiz-adv-x="374" d="M33 0l76 330h-31l18 112h37l189 822h137l-109 -1264h-110l32 330h-59l-70 -330h-110zM238 442h47l57 506z" />
<glyph unicode="b" horiz-adv-x="348" d="M61 0l52 332h-37l18 110h37l129 822h127q53 0 85 -38q25 -29 26 -67q0 -11 -2 -22l-105 -660q-6 -57 -61 -90q34 -25 34 -71q0 -10 -2 -21l-26 -166q-7 -52 -51 -90.5t-97 -38.5h-127zM188 113h17q18 0 18 16l31 184q2 8 -2.5 13.5t-11.5 5.5h-17zM242 442h16q14 0 18 17 l107 678q1 3 1 5q0 11 -13 11h-17z" />
<glyph unicode="c" horiz-adv-x="327" d="M61 125l162 1016q7 54 51.5 91.5t98.5 37.5q52 0 83 -38q25 -30 25 -70q0 -10 -2 -21l-41 -254h-112l41 254q1 7 -3 12.5t-10 5.5q-16 0 -20 -18l-162 -1016q-1 -7 3.5 -13t12.5 -6q13 0 17 19l45 278h112l-45 -278q-7 -54 -50.5 -92.5t-96.5 -38.5q-54 0 -86 38 q-25 30 -25 70q0 11 2 23z" />
<glyph unicode="d" horiz-adv-x="339" d="M43 0l199 1264h127q53 0 85 -38q25 -29 25 -67q0 -11 -2 -22l-160 -1008q-7 -54 -50 -91.5t-97 -37.5h-127zM170 113h16q19 0 19 16l160 1008q3 16 -13 16h-16z" />
<glyph unicode="e" horiz-adv-x="296" d="M61 0l52 332h-35l18 110h35l129 822h219l-16 -111h-107l-112 -711h98l-18 -110h-99l-35 -219h107l-16 -113h-220z" />
<glyph unicode="f" horiz-adv-x="282" d="M53 0l51 332h-34l18 110h35l129 822h217l-16 -111h-107l-113 -711h101l-19 -110h-100l-51 -332h-111z" />
<glyph unicode="g" horiz-adv-x="327" d="M63 125l162 1016q7 54 51.5 91.5t98.5 37.5q52 0 83 -38q25 -29 25 -70q0 -10 -2 -21l-41 -254h-110l41 254q0 18 -15 18q-14 0 -18 -18l-162 -1016q-2 -8 2.5 -13.5t11.5 -5.5q8 0 13.5 6t5.5 13l31 194h-21l19 111h131l-50 -305q-7 -54 -50.5 -92.5t-96.5 -38.5 q-54 0 -86 38q-25 30 -25 70q0 11 2 23z" />
<glyph unicode="h" horiz-adv-x="333" d="M55 0l51 332h-36l18 110h37l129 822h111l-129 -822h26l129 822h113l-199 -1264h-112l51 332h-27l-51 -332h-111z" />
<glyph unicode="i" horiz-adv-x="188" d="M37 0l199 1264h112l-198 -1264h-113z" />
<glyph unicode="j" horiz-adv-x="319" d="M51 119l41 258h111l-41 -258q-2 -15 10 -15q13 0 16 15l181 1145h110l-180 -1145q-9 -53 -51 -89t-94 -36q-53 0 -82 36q-23 27 -23 65q0 11 2 24z" />
<glyph unicode="k" horiz-adv-x="378" d="M53 0l51 332h-32l18 110h33l129 822h113l-129 -822h8l215 822h106l-239 -871l55 -393h-117l-31 332h-16l-51 -332h-113z" />
<glyph unicode="l" horiz-adv-x="276" d="M47 0l199 1264h110l-182 -1151h109l-17 -113h-219z" />
<glyph unicode="m" horiz-adv-x="505" d="M49 0l180 1143q8 54 47 90.5t91 36.5q24 0 40.5 -8t21.5 -15.5t11 -19.5q12 13 19.5 20t27 15t43.5 8q52 0 78 -36q20 -28 21 -67q0 -12 -2 -24l-181 -1143h-110l180 1139q0 18 -14 18q-16 0 -19 -18l-180 -1139h-110l180 1139q1 9 -4.5 13.5t-10.5 4.5q-8 0 -13 -5.5 t-5 -12.5l-180 -1139h-111z" />
<glyph unicode="n" horiz-adv-x="342" d="M45 0l199 1264h127q53 0 85 -37q24 -29 25 -67q0 -11 -2 -23l-178 -1137h-111l179 1137q3 16 -15 16h-14l-182 -1153h-113z" />
<glyph unicode="o" horiz-adv-x="331" d="M61 125l162 1016q8 53 52 91t98 38q52 0 83 -38q25 -30 25 -70q0 -10 -2 -21l-162 -1016q-7 -54 -50.5 -92.5t-96.5 -38.5q-54 0 -86 38q-25 31 -25 72q0 10 2 21zM172 125q-1 -7 3.5 -13t12.5 -6q7 0 12 6t5 13l162 1016q0 18 -13 18q-16 0 -20 -18z" />
<glyph unicode="p" horiz-adv-x="333" d="M51 0l51 332h-32l18 110h33l129 822h129q54 0 85 -37q23 -29 23 -67q0 -11 -2 -23l-106 -678q-8 -53 -51 -90t-97 -37h-16l-51 -332h-113zM233 442h17q14 0 18 17l107 678q1 3 1 6q0 10 -14 10h-16z" />
<glyph unicode="q" horiz-adv-x="342" d="M61 125l162 1016q8 53 52 91t98 38q52 0 83 -38q25 -29 25 -70q0 -10 -2 -21l-162 -1016q-6 -38 -30 -70t-58 -47l-2 -20q-1 -7 3 -13t10 -6h47l-15 -98h-47q-56 0 -88 29q-26 22 -26 64q0 10 2 22l4 20q-30 18 -46 50q-12 23 -12 49q0 10 2 20zM172 125q-1 -7 3.5 -13 t12.5 -6q7 0 12 6t5 13l162 1016q0 18 -13 18q-16 0 -20 -18z" />
<glyph unicode="r" horiz-adv-x="348" d="M57 0l52 332h-35l18 110h35l129 822h129q53 0 85 -38q24 -29 24 -67q0 -11 -2 -22l-105 -662q-9 -58 -59 -90q32 -26 32 -69q0 -10 -2 -21l-45 -295h-110l49 313q1 7 -3.5 13t-10.5 6h-17l-51 -332h-113zM240 442h16q6 0 11 5.5t7 11.5l107 678q1 6 -2.5 11t-9.5 5h-17z " />
<glyph unicode="s" horiz-adv-x="331" d="M66 125l40 262h113l-41 -262q0 -19 15 -19q14 0 18 19l25 151q5 32 5 62q0 26 -4 52q-8 54 -30 130l-4 12q-35 123 -35 212q0 29 4 55l55 346q7 52 50.5 88.5t97.5 36.5q53 0 82 -36q22 -27 22 -64q0 -12 -2 -25l-41 -258h-112l41 258q1 7 -0.5 10t-3 3.5t-5.5 0.5 q-13 0 -16 -14l-55 -346q-4 -28 -4 -55q-1 -25 3 -50q8 -51 29 -123h2l2 -16q35 -120 36 -215q0 -34 -5 -64l-24 -151q-9 -55 -52.5 -93t-97.5 -38t-85 38q-25 31 -25 71q0 11 2 22z" />
<glyph unicode="t" horiz-adv-x="274" d="M80 0l182 1153h-69l16 111h254l-17 -111h-71l-182 -1153h-113z" />
<glyph unicode="u" horiz-adv-x="337" d="M63 125l181 1139h110l-180 -1139q-1 -7 3.5 -13t12.5 -6q7 0 12 6t5 13l180 1139h113l-181 -1139q-7 -54 -50.5 -92.5t-96.5 -38.5q-54 0 -86 38q-25 31 -25 72q0 10 2 21z" />
<glyph unicode="v" horiz-adv-x="354" d="M106 0l113 1264h111l-105 -949l193 949h110l-284 -1264h-138z" />
<glyph unicode="w" horiz-adv-x="481" d="M57 121l181 1143h110l-180 -1139q0 -19 14 -19q5 0 11.5 5t7.5 14l180 1139h111l-181 -1139q-1 -9 4.5 -14t10.5 -5q8 0 13 6t5 13l180 1139h111l-180 -1143q-9 -55 -47.5 -91t-90.5 -36q-24 0 -41 8t-21.5 14.5t-12.5 20.5q-33 -43 -88 -43q-52 0 -79 36q-20 27 -20 65 q0 12 2 26z" />
<glyph unicode="x" horiz-adv-x="339" d="M18 0l127 391l72 873h111l-88 -822h2l170 822h110l-203 -873l5 -391h-113l16 332h-4h-6l-86 -332h-113z" />
<glyph unicode="y" horiz-adv-x="356" d="M119 0l49 322l51 942h111l-60 -631l142 631h112l-245 -942l-50 -322h-110z" />
<glyph unicode="z" horiz-adv-x="342" d="M39 0l330 1153h-144l17 111h270l-330 -1151h142l-17 -113h-268z" />
<glyph unicode="&#xad;" horiz-adv-x="333" d="M133 451l19 110h202l-18 -110h-203z" />
<glyph unicode="&#x2000;" horiz-adv-x="682" />
<glyph unicode="&#x2001;" horiz-adv-x="1365" />
<glyph unicode="&#x2002;" horiz-adv-x="682" />
<glyph unicode="&#x2003;" horiz-adv-x="1365" />
<glyph unicode="&#x2004;" horiz-adv-x="455" />
<glyph unicode="&#x2005;" horiz-adv-x="341" />
<glyph unicode="&#x2006;" horiz-adv-x="227" />
<glyph unicode="&#x2007;" horiz-adv-x="227" />
<glyph unicode="&#x2008;" horiz-adv-x="170" />
<glyph unicode="&#x2009;" horiz-adv-x="273" />
<glyph unicode="&#x200a;" horiz-adv-x="75" />
<glyph unicode="&#x2010;" horiz-adv-x="333" d="M133 451l19 110h202l-18 -110h-203z" />
<glyph unicode="&#x2011;" horiz-adv-x="333" d="M133 451l19 110h202l-18 -110h-203z" />
<glyph unicode="&#x2012;" horiz-adv-x="333" d="M133 451l19 110h202l-18 -110h-203z" />
<glyph unicode="&#x2013;" horiz-adv-x="1136" d="M133 451l88 110h936l-83 -110h-941z" />
<glyph unicode="&#x2014;" horiz-adv-x="2160" d="M133 451l176 110h1872l-167 -110h-1881z" />
<glyph unicode="&#x2018;" horiz-adv-x="260" d="M238 1325h118l41 -281h-118z" />
<glyph unicode="&#x2019;" horiz-adv-x="258" d="M197 1044l131 281h118l-131 -281h-118z" />
<glyph unicode="&#x201c;" horiz-adv-x="462" d="M242 1325h118l41 -281h-118zM434 1325h119l41 -281h-119z" />
<glyph unicode="&#x201d;" horiz-adv-x="483" d="M205 1044l131 281h119l-131 -281h-119zM397 1044l131 281h119l-131 -281h-119z" />
<glyph unicode="&#x2026;" horiz-adv-x="940" d="M100 0l29 188h115l-29 -188h-115zM414 0l28 188h115l-29 -188h-114zM727 0l29 188h114l-28 -188h-115z" />
<glyph unicode="&#x202f;" horiz-adv-x="273" />
<glyph unicode="&#x205f;" horiz-adv-x="341" />
<glyph unicode="&#xe000;" horiz-adv-x="1259" d="M0 0v1260h1260v-1260h-1260z" />
</font>
</defs>
</svg>
