<?xml version="1.0" standalone="no"?>
<!DOCTYPE svg PUBLIC "-//W3C//DTD SVG 1.1//EN" "http://www.w3.org/Graphics/SVG/1.1/DTD/svg11.dtd" >
<svg xmlns="http://www.w3.org/2000/svg">
<metadata></metadata>
<defs>
<font id="valenciaregular" horiz-adv-x="325" >
<font-face units-per-em="2048" ascent="1536" descent="-512" />
<missing-glyph horiz-adv-x="292" />
<glyph horiz-adv-x="2048" />
<glyph horiz-adv-x="2048" />
<glyph unicode="&#xd;" horiz-adv-x="2048" />
<glyph unicode=" "  horiz-adv-x="292" />
<glyph unicode="&#x09;" horiz-adv-x="292" />
<glyph unicode="&#xa0;" horiz-adv-x="292" />
<glyph unicode="&#x22;" horiz-adv-x="251" d="M39 1077v240h57v-240h-57zM156 1077v240h59v-240h-59z" />
<glyph unicode="#" horiz-adv-x="360" d="M35 229v56h51v260h-51v55h51v412h57v-412h64v412h57v-412h53v-55h-53v-260h53v-56h-53v-229h-57v229h-64v-229h-57v229h-51zM143 285h64v260h-64v-260z" />
<glyph unicode="$" horiz-adv-x="301" d="M45 123v235h66v-256q0 -17 11.5 -31t31.5 -14q17 0 30 13t13 32v158q0 46 -12 96.5t-25 84t-37 85.5l-12 27q-64 138 -66 250v336q0 53 22.5 87t69.5 38v88h33v-88q42 -9 63 -42t21 -81v-221h-66v243q0 19 -10.5 29t-25.5 10q-41 0 -41 -39v-360q0 -41 10.5 -86.5 t23 -77.5t35.5 -84l4 -6q27 -63 38.5 -92t25.5 -87t14 -110v-137q0 -53 -23.5 -87t-68.5 -40v-115h-33v115q-45 4 -68.5 39.5t-23.5 87.5z" />
<glyph unicode="&#x26;" horiz-adv-x="333" d="M43 168v274q0 26 13.5 49t35.5 35q-49 30 -49 86v437q0 43 32 74.5t75 31.5h92v-63h-92q-16 0 -28.5 -12.5t-12.5 -30.5v-447q0 -19 12 -32t29 -13h45v68h63v-68h37v-61h-37v-437h-108q-43 0 -75 32.5t-32 76.5zM109 168q0 -19 12 -32t29 -13h45v373h-45q-15 0 -28 -14 t-13 -31v-283z" />
<glyph unicode="'" horiz-adv-x="215" d="M39 1077l74 240h69l-73 -240h-70z" />
<glyph unicode="(" horiz-adv-x="210" d="M43 -4v1241q0 44 32.5 75t78.5 31h24v-63h-24q-19 0 -32 -12t-13 -31v-1241q0 -19 13 -32t32 -13h24v-64h-24q-46 0 -78.5 31.5t-32.5 77.5z" />
<glyph unicode=")" horiz-adv-x="219" d="M45 -47h25q19 0 31 12t12 31v1241q0 19 -12 31t-31 12h-25v63h25q44 0 76 -31t32 -75v-1241q0 -46 -31 -77.5t-77 -31.5h-25v66z" />
<glyph unicode="," horiz-adv-x="178" d="M6 -102l74 237h70l-74 -237h-70z" />
<glyph unicode="-" horiz-adv-x="299" d="M59 467v65h179v-65h-179z" />
<glyph unicode="." horiz-adv-x="264" d="M100 0v145h68v-145h-68z" />
<glyph unicode="/" horiz-adv-x="294" d="M18 -139l189 1472h65l-188 -1472h-66z" />
<glyph unicode="0" d="M55 102v1057q0 43 32.5 75t76.5 32q43 0 74.5 -32t31.5 -75v-1057q0 -45 -31.5 -76.5t-74.5 -31.5q-45 0 -77 31.5t-32 76.5zM119 102q0 -19 13 -32t32 -13q18 0 29.5 13t11.5 32v543l-86 -332v-211zM119 436l86 332v391q0 18 -11.5 30.5t-29.5 12.5q-19 0 -32 -12 t-13 -31v-723z" />
<glyph unicode="1" horiz-adv-x="231" d="M84 0v1260h63v-1260h-63z" />
<glyph unicode="2" d="M55 0v260q0 114 68 266q0 1 1 3t1 3l20 48q60 135 60 223v360q0 18 -10.5 28.5t-28.5 10.5t-28.5 -10.5t-10.5 -28.5v-243h-64v215q0 59 24.5 95t78.5 36q51 0 77.5 -36.5t26.5 -92.5v-334q0 -101 -63 -246q0 -4 -2 -6l-21 -49q-21 -49 -32.5 -78.5t-21.5 -75.5t-9 -88 v-197h149v-63h-215z" />
<glyph unicode="3" d="M55 102v265h66v-265q0 -19 12 -32t29 -13q19 0 31 13t12 32v308q0 19 -11 31t-30 12h-78v65h78q18 0 29.5 12.5t11.5 30.5v602q0 39 -39 39q-18 0 -28.5 -10.5t-10.5 -28.5v-243h-64v243q0 43 29.5 73t73.5 30q43 0 73.5 -30t30.5 -73v-592q0 -56 -47 -84q47 -31 47 -86 v-299q0 -45 -31.5 -76.5t-76.5 -31.5q-44 0 -75.5 31t-31.5 77z" />
<glyph unicode="4" d="M37 444v816h63v-816q0 -18 12.5 -30.5t30.5 -12.5h43v859h66v-859h35v-63h-35v-338h-66v338h-43q-44 0 -75 31.5t-31 74.5z" />
<glyph unicode="5" d="M55 133v229h66v-260q0 -19 11.5 -32t29.5 -13q19 0 31 13t12 32v168q0 41 -11 87.5t-21.5 76t-31.5 78.5l-24 55q-59 133 -62 246v447h207v-66h-141v-381q0 -60 16.5 -114.5t50.5 -133.5q82 -164 82 -295v-168q0 -45 -31.5 -76.5t-76.5 -31.5q-107 0 -107 139z" />
<glyph unicode="6" d="M53 102v1061q0 43 31.5 73t75.5 30t73 -30t29 -73v-243h-65v243q0 39 -37 39q-41 0 -41 -39v-661h43q44 0 76 -32t32 -77v-291q0 -45 -31.5 -76.5t-76.5 -31.5t-77 31.5t-32 76.5zM119 102q0 -19 12 -32t31 -13t31 13t12 32v291q0 19 -12 32t-31 13h-43v-336z" />
<glyph unicode="7" d="M49 0l154 1196h-154v64h227l-161 -1260h-66z" />
<glyph unicode="8" d="M55 102v287q0 58 47 84q-43 25 -43 82v608q0 43 30.5 73t74.5 30t73 -30t29 -73v-608q0 -57 -43 -82q47 -29 47 -84v-287q0 -45 -31.5 -76.5t-74.5 -31.5q-46 0 -77.5 31t-31.5 77zM121 102q0 -19 12 -32t31 -13q17 0 29 13t12 32v293q0 19 -12 32t-29 13q-19 0 -31 -13 t-12 -32v-293zM125 543q0 -41 39 -41q37 0 37 41v620q0 39 -37 39q-39 0 -39 -39v-620z" />
<glyph unicode="9" d="M55 547v610q0 42 32 75.5t75 33.5q44 0 76 -32.5t32 -76.5v-1061q0 -41 -30.5 -71.5t-73.5 -30.5q-46 0 -75.5 29t-29.5 73v242h66v-242q0 -41 39 -41q17 0 28 11t11 30v342h-43q-44 0 -75.5 31.5t-31.5 77.5zM119 547q0 -19 12 -32t31 -13h43v655q0 19 -12 31t-31 12 t-31 -12t-12 -31v-610z" />
<glyph unicode=":" horiz-adv-x="260" d="M98 0v145h70v-145h-70zM98 805v145h70v-145h-70z" />
<glyph unicode=";" horiz-adv-x="262" d="M39 -102l74 237h69l-73 -237h-70zM100 805v145h70v-145h-70z" />
<glyph unicode="@" horiz-adv-x="454" d="M51 -61v958q0 40 28 68t68 28h160q41 0 70 -28t29 -68v-854q0 -37 -30 -66.5t-67 -29.5h-80q-40 0 -68 28t-28 66v616q0 41 28 70t68 29q41 0 70 -29t29 -70v-624h-37v624q0 26 -18 44t-44 18q-25 0 -42 -18t-17 -44v-616q0 -25 17 -42t42 -17h78q26 0 44 18t18 43v854 q0 26 -18 43.5t-44 17.5h-160q-25 0 -42 -17.5t-17 -43.5v-958q0 -26 17 -44t42 -18h181v-37h-181q-40 0 -68 29t-28 70z" />
<glyph unicode="A" horiz-adv-x="323" d="M23 342v66h36l64 852h84l92 -1260h-63l-23 342h-96l-23 -342h-63l26 342h-34zM121 408h88l-43 684z" />
<glyph unicode="B" horiz-adv-x="313" d="M14 344v64h39v852h107q44 0 76 -31.5t32 -75.5v-694q0 -54 -49 -84q49 -27 49 -84v-182q0 -44 -32 -76.5t-76 -32.5h-107v344h-39zM117 66h43q19 0 31 12t12 31v190q0 19 -12 32t-31 13h-43v-278zM117 408h43q18 0 30.5 12.5t12.5 30.5v702q0 19 -12 31t-31 12h-43v-788z " />
<glyph unicode="C" horiz-adv-x="296" d="M43 102v1057q0 44 32.5 75.5t76.5 31.5t75 -31.5t31 -75.5v-239h-65v239q0 19 -12 31t-29 12q-19 0 -31 -12t-12 -31v-1057q0 -19 12 -31t31 -12q17 0 29 12t12 31v265h65v-265q0 -44 -31 -76t-75 -32q-45 0 -77 31.5t-32 76.5z" />
<glyph unicode="D" horiz-adv-x="303" d="M43 0v1260h107q44 0 76 -31.5t32 -75.5v-1044q0 -46 -31 -77.5t-77 -31.5h-107zM109 66h41q19 0 31 12t12 31v1044q0 19 -12 31t-31 12h-41v-1130z" />
<glyph unicode="E" horiz-adv-x="256" d="M16 344v64h37v852h176v-64h-110v-788h102v-64h-102v-278h110v-66h-176v344h-37z" />
<glyph unicode="F" horiz-adv-x="247" d="M12 344v64h37v852h174v-64h-110v-788h104v-64h-104v-344h-64v344h-37z" />
<glyph unicode="G" horiz-adv-x="296" d="M45 102v1057q0 44 31.5 75.5t77.5 31.5q43 0 74.5 -31.5t31.5 -75.5v-239h-65v239q0 18 -11.5 30.5t-29.5 12.5q-19 0 -31 -12t-12 -31v-1057q0 -19 12 -31t31 -12q18 0 29.5 12.5t11.5 30.5v230h-43v63h108v-293q0 -44 -31.5 -76t-74.5 -32q-46 0 -77.5 31t-31.5 77z " />
<glyph unicode="H" horiz-adv-x="292" d="M12 344v64h37v852h66v-852h73v852h66v-1260h-66v344h-73v-344h-66v344h-37z" />
<glyph unicode="I" horiz-adv-x="159" d="M41 0v1260h65v-1260h-65z" />
<glyph unicode="J" horiz-adv-x="276" d="M33 96v244h63v-244q0 -39 39 -39t39 39v1164h66v-1164q0 -42 -31 -72t-74 -30q-44 0 -73 29t-29 73z" />
<glyph unicode="K" horiz-adv-x="335" d="M14 344v64h35v852h66v-852h32l105 852h61q-26 -195 -112 -881l121 -379h-68q-17 57 -51.5 171.5t-50.5 172.5h-37v-344h-66v344h-35z" />
<glyph unicode="L" horiz-adv-x="237" d="M45 0v1260h66v-1194h110v-66h-176z" />
<glyph unicode="M" horiz-adv-x="464" d="M49 0v1159q0 45 29.5 76t73.5 31q52 0 79 -45q23 45 80 45q43 0 73 -31.5t30 -75.5v-1159h-66v1157q0 18 -11.5 30.5t-31.5 12.5q-16 0 -28.5 -12t-12.5 -31v-1157h-65v1157q0 20 -13 31.5t-30 11.5q-18 0 -29.5 -12.5t-11.5 -30.5v-1157h-66z" />
<glyph unicode="N" horiz-adv-x="307" d="M45 0v1260h107q44 0 76 -31.5t32 -75.5v-1153h-65v1153q0 19 -12 31t-31 12h-41v-1196h-66z" />
<glyph unicode="O" horiz-adv-x="299" d="M43 102v1057q0 43 32.5 75t76.5 32t75 -31.5t31 -75.5v-1057q0 -44 -31 -76t-75 -32t-76.5 32t-32.5 76zM109 102q0 -19 12 -31t31 -12q18 0 29.5 12.5t11.5 30.5v1057q0 18 -11.5 30.5t-29.5 12.5q-19 0 -31 -12t-12 -31v-1057z" />
<glyph unicode="P" horiz-adv-x="305" d="M12 344v64h35v852h109q44 0 75 -31.5t31 -75.5v-702q0 -44 -31 -75.5t-75 -31.5h-43v-344h-66v344h-35zM113 408h43q18 0 30.5 12.5t12.5 30.5v702q0 19 -11.5 31t-31.5 12h-43v-788z" />
<glyph unicode="Q" horiz-adv-x="303" d="M43 102v1057q0 43 32.5 75t76.5 32t75 -31.5t31 -75.5v-1057q0 -36 -20.5 -64.5t-53.5 -37.5v-25q0 -18 12.5 -29.5t30.5 -11.5h27v-59h-27q-45 0 -76.5 26.5t-31.5 71.5v27q-33 11 -54.5 39t-21.5 63zM109 102q0 -19 12 -31t31 -12q18 0 29.5 12.5t11.5 30.5v1057 q0 18 -11.5 30.5t-29.5 12.5q-19 0 -31 -12t-12 -31v-1057z" />
<glyph unicode="R" horiz-adv-x="313" d="M14 344v64h37v852h109q43 0 74.5 -31.5t31.5 -75.5v-694q0 -26 -13 -49t-34 -35q47 -31 47 -84v-291h-65v299q0 19 -12 32t-29 13h-43v-344h-66v344h-37zM117 408h43q17 0 29 13t12 30v702q0 19 -12 31t-29 12h-43v-788z" />
<glyph unicode="S" horiz-adv-x="299" d="M45 127v231h66v-256q0 -18 11.5 -30.5t31.5 -12.5q18 0 30.5 12.5t12.5 30.5v158q0 90 -62 238l-22 51q0 1 -1 3t-1 3q-21 48 -33 79.5t-22.5 78.5t-10.5 90v334q0 56 26 92.5t81 36.5q44 0 73 -29.5t29 -73.5v-243h-66v243q0 39 -36 39q-41 0 -41 -39v-360 q0 -97 69 -246q27 -60 39.5 -91t27.5 -91t15 -115v-129q0 -60 -27.5 -98.5t-80.5 -38.5q-52 0 -80.5 38t-28.5 95z" />
<glyph unicode="T" horiz-adv-x="245" d="M16 1196v64h213v-64h-75v-1196h-66v1196h-72z" />
<glyph unicode="U" horiz-adv-x="301" d="M45 102v1158h64v-1158q0 -19 13 -31t32 -12q18 0 29.5 12.5t11.5 30.5v1158h65v-1158q0 -44 -31.5 -76t-74.5 -32q-44 0 -76.5 32t-32.5 76z" />
<glyph unicode="V" horiz-adv-x="317" d="M27 1260h63l68 -1090l67 1090h64l-90 -1260h-82z" />
<glyph unicode="W" horiz-adv-x="456" d="M47 100v1160h66v-1158q0 -18 11.5 -30.5t29.5 -12.5q17 0 30 11.5t13 31.5v1158h65v-1158q0 -19 12.5 -31t28.5 -12q20 0 31.5 12.5t11.5 30.5v1158h66v-1160q0 -44 -30 -75t-73 -31q-57 0 -80 45q-27 -45 -79 -45q-44 0 -73.5 30.5t-29.5 75.5z" />
<glyph unicode="X" horiz-adv-x="309" d="M31 0q38 239 63 379l-61 881h63l49 -852h19l49 852h63l-61 -881q31 -196 64 -379h-66l-47 344h-2h-10h-11l-47 -344h-65z" />
<glyph unicode="Y" horiz-adv-x="317" d="M27 1260h63l66 -764l65 764h66l-99 -951v-309h-63v309z" />
<glyph unicode="Z" horiz-adv-x="311" d="M45 0l152 1196h-152v64h225l-151 -1194h149v-66h-223z" />
<glyph unicode="\" horiz-adv-x="294" d="M18 1333h66l188 -1472h-65z" />
<glyph unicode="_" horiz-adv-x="479" d="M33 -43h413v-49h-413v49z" />
<glyph unicode="a" horiz-adv-x="323" d="M23 342v66h36l64 852h84l92 -1260h-63l-23 342h-96l-23 -342h-63l26 342h-34zM121 408h88l-43 684z" />
<glyph unicode="b" horiz-adv-x="313" d="M14 344v64h39v852h107q44 0 76 -31.5t32 -75.5v-694q0 -54 -49 -84q49 -27 49 -84v-182q0 -44 -32 -76.5t-76 -32.5h-107v344h-39zM117 66h43q19 0 31 12t12 31v190q0 19 -12 32t-31 13h-43v-278zM117 408h43q18 0 30.5 12.5t12.5 30.5v702q0 19 -12 31t-31 12h-43v-788z " />
<glyph unicode="c" horiz-adv-x="296" d="M43 102v1057q0 44 32.5 75.5t76.5 31.5t75 -31.5t31 -75.5v-239h-65v239q0 19 -12 31t-29 12q-19 0 -31 -12t-12 -31v-1057q0 -19 12 -31t31 -12q17 0 29 12t12 31v265h65v-265q0 -44 -31 -76t-75 -32q-45 0 -77 31.5t-32 76.5z" />
<glyph unicode="d" horiz-adv-x="303" d="M43 0v1260h107q44 0 76 -31.5t32 -75.5v-1044q0 -46 -31 -77.5t-77 -31.5h-107zM109 66h41q19 0 31 12t12 31v1044q0 19 -12 31t-31 12h-41v-1130z" />
<glyph unicode="e" horiz-adv-x="256" d="M16 344v64h37v852h176v-64h-110v-788h102v-64h-102v-278h110v-66h-176v344h-37z" />
<glyph unicode="f" horiz-adv-x="247" d="M12 344v64h37v852h174v-64h-110v-788h104v-64h-104v-344h-64v344h-37z" />
<glyph unicode="g" horiz-adv-x="296" d="M45 102v1057q0 44 31.5 75.5t77.5 31.5q43 0 74.5 -31.5t31.5 -75.5v-239h-65v239q0 18 -11.5 30.5t-29.5 12.5q-19 0 -31 -12t-12 -31v-1057q0 -19 12 -31t31 -12q18 0 29.5 12.5t11.5 30.5v230h-43v63h108v-293q0 -44 -31.5 -76t-74.5 -32q-46 0 -77.5 31t-31.5 77z " />
<glyph unicode="h" horiz-adv-x="292" d="M12 344v64h37v852h66v-852h73v852h66v-1260h-66v344h-73v-344h-66v344h-37z" />
<glyph unicode="i" horiz-adv-x="159" d="M41 0v1260h65v-1260h-65z" />
<glyph unicode="j" horiz-adv-x="276" d="M33 96v244h63v-244q0 -39 39 -39t39 39v1164h66v-1164q0 -42 -31 -72t-74 -30q-44 0 -73 29t-29 73z" />
<glyph unicode="k" horiz-adv-x="335" d="M14 344v64h35v852h66v-852h32l105 852h61q-26 -195 -112 -881l121 -379h-68q-17 57 -51.5 171.5t-50.5 172.5h-37v-344h-66v344h-35z" />
<glyph unicode="l" horiz-adv-x="237" d="M45 0v1260h66v-1194h110v-66h-176z" />
<glyph unicode="m" horiz-adv-x="464" d="M49 0v1159q0 45 29.5 76t73.5 31q52 0 79 -45q23 45 80 45q43 0 73 -31.5t30 -75.5v-1159h-66v1157q0 18 -11.5 30.5t-31.5 12.5q-16 0 -28.5 -12t-12.5 -31v-1157h-65v1157q0 20 -13 31.5t-30 11.5q-18 0 -29.5 -12.5t-11.5 -30.5v-1157h-66z" />
<glyph unicode="n" horiz-adv-x="307" d="M45 0v1260h107q44 0 76 -31.5t32 -75.5v-1153h-65v1153q0 19 -12 31t-31 12h-41v-1196h-66z" />
<glyph unicode="o" horiz-adv-x="299" d="M43 102v1057q0 43 32.5 75t76.5 32t75 -31.5t31 -75.5v-1057q0 -44 -31 -76t-75 -32t-76.5 32t-32.5 76zM109 102q0 -19 12 -31t31 -12q18 0 29.5 12.5t11.5 30.5v1057q0 18 -11.5 30.5t-29.5 12.5q-19 0 -31 -12t-12 -31v-1057z" />
<glyph unicode="p" horiz-adv-x="305" d="M12 344v64h35v852h109q44 0 75 -31.5t31 -75.5v-702q0 -44 -31 -75.5t-75 -31.5h-43v-344h-66v344h-35zM113 408h43q18 0 30.5 12.5t12.5 30.5v702q0 19 -11.5 31t-31.5 12h-43v-788z" />
<glyph unicode="q" horiz-adv-x="303" d="M43 102v1057q0 43 32.5 75t76.5 32t75 -31.5t31 -75.5v-1057q0 -36 -20.5 -64.5t-53.5 -37.5v-25q0 -18 12.5 -29.5t30.5 -11.5h27v-59h-27q-45 0 -76.5 26.5t-31.5 71.5v27q-33 11 -54.5 39t-21.5 63zM109 102q0 -19 12 -31t31 -12q18 0 29.5 12.5t11.5 30.5v1057 q0 18 -11.5 30.5t-29.5 12.5q-19 0 -31 -12t-12 -31v-1057z" />
<glyph unicode="r" horiz-adv-x="313" d="M14 344v64h37v852h109q43 0 74.5 -31.5t31.5 -75.5v-694q0 -26 -13 -49t-34 -35q47 -31 47 -84v-291h-65v299q0 19 -12 32t-29 13h-43v-344h-66v344h-37zM117 408h43q17 0 29 13t12 30v702q0 19 -12 31t-29 12h-43v-788z" />
<glyph unicode="s" horiz-adv-x="299" d="M45 127v231h66v-256q0 -18 11.5 -30.5t31.5 -12.5q18 0 30.5 12.5t12.5 30.5v158q0 90 -62 238l-22 51q0 1 -1 3t-1 3q-21 48 -33 79.5t-22.5 78.5t-10.5 90v334q0 56 26 92.5t81 36.5q44 0 73 -29.5t29 -73.5v-243h-66v243q0 39 -36 39q-41 0 -41 -39v-360 q0 -97 69 -246q27 -60 39.5 -91t27.5 -91t15 -115v-129q0 -60 -27.5 -98.5t-80.5 -38.5q-52 0 -80.5 38t-28.5 95z" />
<glyph unicode="t" horiz-adv-x="245" d="M16 1196v64h213v-64h-75v-1196h-66v1196h-72z" />
<glyph unicode="u" horiz-adv-x="301" d="M45 102v1158h64v-1158q0 -19 13 -31t32 -12q18 0 29.5 12.5t11.5 30.5v1158h65v-1158q0 -44 -31.5 -76t-74.5 -32q-44 0 -76.5 32t-32.5 76z" />
<glyph unicode="v" horiz-adv-x="317" d="M27 1260h63l68 -1090l67 1090h64l-90 -1260h-82z" />
<glyph unicode="w" horiz-adv-x="456" d="M47 100v1160h66v-1158q0 -18 11.5 -30.5t29.5 -12.5q17 0 30 11.5t13 31.5v1158h65v-1158q0 -19 12.5 -31t28.5 -12q20 0 31.5 12.5t11.5 30.5v1158h66v-1160q0 -44 -30 -75t-73 -31q-57 0 -80 45q-27 -45 -79 -45q-44 0 -73.5 30.5t-29.5 75.5z" />
<glyph unicode="x" horiz-adv-x="309" d="M31 0q38 239 63 379l-61 881h63l49 -852h19l49 852h63l-61 -881q31 -196 64 -379h-66l-47 344h-2h-10h-11l-47 -344h-65z" />
<glyph unicode="y" horiz-adv-x="317" d="M27 1260h63l66 -764l65 764h66l-99 -951v-309h-63v309z" />
<glyph unicode="z" horiz-adv-x="311" d="M45 0l152 1196h-152v64h225l-151 -1194h149v-66h-223z" />
<glyph unicode="&#xad;" horiz-adv-x="299" d="M59 467v65h179v-65h-179z" />
<glyph unicode="&#x2000;" horiz-adv-x="682" />
<glyph unicode="&#x2001;" horiz-adv-x="1365" />
<glyph unicode="&#x2002;" horiz-adv-x="682" />
<glyph unicode="&#x2003;" horiz-adv-x="1365" />
<glyph unicode="&#x2004;" horiz-adv-x="455" />
<glyph unicode="&#x2005;" horiz-adv-x="341" />
<glyph unicode="&#x2006;" horiz-adv-x="227" />
<glyph unicode="&#x2007;" horiz-adv-x="227" />
<glyph unicode="&#x2008;" horiz-adv-x="170" />
<glyph unicode="&#x2009;" horiz-adv-x="273" />
<glyph unicode="&#x200a;" horiz-adv-x="75" />
<glyph unicode="&#x2010;" horiz-adv-x="299" d="M59 467v65h179v-65h-179z" />
<glyph unicode="&#x2011;" horiz-adv-x="299" d="M59 467v65h179v-65h-179z" />
<glyph unicode="&#x2012;" horiz-adv-x="299" d="M59 467v65h179v-65h-179z" />
<glyph unicode="&#x2013;" horiz-adv-x="1144" d="M59 467v65h1024v-65h-1024z" />
<glyph unicode="&#x2014;" horiz-adv-x="2168" d="M59 467v65h2048v-65h-2048z" />
<glyph unicode="&#x2018;" horiz-adv-x="215" d="M37 1317h69l74 -240h-69z" />
<glyph unicode="&#x2019;" horiz-adv-x="212" d="M39 1077l74 240h69l-73 -240h-70z" />
<glyph unicode="&#x201c;" horiz-adv-x="350" d="M39 1317h70l73 -240h-69zM170 1317h70l73 -240h-69z" />
<glyph unicode="&#x201d;" horiz-adv-x="360" d="M43 1077l74 240h69l-73 -240h-70zM174 1077l74 240h69l-73 -240h-70z" />
<glyph unicode="&#x2026;" horiz-adv-x="794" d="M100 0v145h68v-145h-68zM365 0v145h69v-145h-69zM631 0v145h67v-145h-67z" />
<glyph unicode="&#x202f;" horiz-adv-x="273" />
<glyph unicode="&#x205f;" horiz-adv-x="341" />
<glyph unicode="&#xe000;" horiz-adv-x="1259" d="M0 0v1260h1260v-1260h-1260z" />
</font>
</defs>
</svg>
